<svg xmlns="http://www.w3.org/2000/svg" width="64" height="64" viewBox="0 0 16.933 16.933"><g fill="#3b3c3d" transform="translate(-1506.66 -500.5) scale(.26458)"><path d="m 5663.0004,1912.1143 h -2.002 c -0.5515,2e-4 -0.9989,0.4465 -1,0.998 l -0.014,12.0137 c 0,2.4953 -1.808,4.5409 -4.1914,4.9179 -0.4357,-1.1223 -1.5252,-1.9296 -2.793,-1.9296 h -5.998 c -1.6448,0 -3.002,1.3554 -3.002,3 v 19.998 c 0,1.6447 1.3572,3 3.002,3 H 5653 c 1.3174,0 2.4377,-0.8751 2.8359,-2.0663 1.3634,0.937 3.5345,2.0663 6.1739,2.0663 h 16.9961 c 2.1965,0 3.998,-1.8031 3.998,-4 0,-0.8271 -0.2555,-1.5979 -0.6914,-2.2383 1.558,-0.5461 2.6914,-2.0234 2.6914,-3.7617 0,-0.9825 -0.3725,-1.8748 -0.9668,-2.5742 1.1699,-0.7003 1.9668,-1.9715 1.9668,-3.4258 0,-0.9845 -0.3743,-1.8782 -0.9707,-2.578 1.1701,-0.7005 1.9668,-1.9682 1.9668,-3.422 0,-2.1969 -1.8011,-4 -3.998,-4 h -12.2266 l -2.8086,-11.2421 v -0.014 c -0.3109,-1.1724 -0.7999,-2.3119 -1.6016,-3.2129 -0.8018,-0.9007 -1.978,-1.5312 -3.3652,-1.5312 z m -10,18.002 c 0.5538,0 0.965,0.4062 0.9902,0.9512 0.018,6.9559 0.01,14.0787 0.01,20.0468 0,0.5713 -0.4287,1 -1,1 h -5.998 c -0.5714,0 -1.002,-0.4287 -1.002,-1 v -19.998 c 0,-0.5713 0.4306,-1 1.002,-1 1.9984,0 3.9987,0 5.9978,0 z" color="#000" font-family="sans-serif" font-weight="400" overflow="visible" paint-order="fill markers stroke" transform="translate(54.462 -6.458)" style="line-height:normal;font-variant-ligatures:normal;font-variant-position:normal;font-variant-caps:normal;font-variant-numeric:normal;font-variant-alternates:normal;font-feature-settings:normal;text-indent:0;text-align:start;text-decoration-line:none;text-decoration-style:solid;text-decoration-color:#000;text-transform:none;text-orientation:mixed;shape-padding:0;isolation:auto;mix-blend-mode:normal"/><path d="m 5743.4902,1899.6543 a 1.0001,1.0001 0 0 0 -0.7363,0.293 l -8,8 a 1.0001,1.0001 0 0 0 0.707,1.707 h 3 v 9 a 1,1 0 0 0 1,1 1,1 0 0 0 1,-1 v -10 a 1.0001,1.0001 0 0 0 -1,-1 h -1.5859 l 5.5859,-5.5859 5.586,5.5859 h -1.586 a 1.0001,1.0001 0 0 0 -1,1 v 36 c 0,0.5713 -0.4287,1 -1,1 h -4 a 1,1 0 0 0 -1,1 1,1 0 0 0 1,1 h 4 c 1.6447,0 3,-1.3553 3,-3 v -35 h 3 a 1.0001,1.0001 0 0 0 0.7071,-1.707 l -8,-8 a 1.0001,1.0001 0 0 0 -0.6778,-0.293 z" color="#000" font-family="sans-serif" font-weight="400" overflow="visible" style="line-height:normal;font-variant-ligatures:normal;font-variant-position:normal;font-variant-caps:normal;font-variant-numeric:normal;font-variant-alternates:normal;font-variant-east-asian:normal;font-feature-settings:normal;font-variation-settings:normal;text-indent:0;text-align:start;text-decoration-line:none;text-decoration-style:solid;text-decoration-color:#000;text-transform:none;text-orientation:mixed;shape-padding:0;shape-margin:0;inline-size:0;isolation:auto;mix-blend-mode:normal"/></g></svg>