<svg xmlns="http://www.w3.org/2000/svg" enable-background="new 0 0 100 100" viewBox="0 0 100 100"><path d="M66,5C50,5,37,18,37,34c0,1.1,0.1,2.1,0.2,3.2c-1-0.1-2.1-0.2-3.2-0.2C18,37,5,50,5,66s13,29,29,29s29-13,29-29
	c0-1.1-0.1-2.1-0.2-3.2c1,0.1,2.1,0.2,3.2,0.2c16,0,29-13,29-29S82,5,66,5z M34,91C20.2,91,9,79.8,9,66c0-13.8,11.2-25,25-25
	s25,11.2,25,25C59,79.8,47.8,91,34,91z M66,59c-1.3,0-2.7-0.1-3.9-0.3c-0.8-3.1-2.1-6.1-3.9-8.7c0-0.1-0.1-0.2-0.2-0.2
	c0.1-4.3,3.7-7.8,8-7.8c4.4,0,8,3.6,8,8c0,1.1,0.9,2,2,2s2-0.9,2-2c0-6.6-5.4-12-12-12c-5.1,0-9.5,3.2-11.2,7.8
	c-3.6-3.7-8.3-6.5-13.5-7.9C41.1,36.6,41,35.3,41,34C41,20.2,52.2,9,66,9s25,11.2,25,25C91,47.8,79.8,59,66,59z M46,73
	c0,6.6-5.4,12-12,12s-12-5.4-12-12c0-1.1,0.9-2,2-2s2,0.9,2,2c0,4.4,3.6,8,8,8s8-3.6,8-8c0-1.1,0.9-2,2-2S46,71.9,46,73z"/></svg>