<svg width="762" height="130" xmlns="http://www.w3.org/2000/svg" xml:space="preserve"
    enable-background="new 0 0 1080 1080" version="1.1">

    <g>
        <title>Layer 1</title>
        <path id="svg_2"
            d="m364.28337,54.14003c6.15912,-1.42792 12.34497,-2.75092 18.47132,-4.30774c9.74914,-2.47754 20.03424,6.39746 18.23303,16.24622c-0.28986,1.58508 -3.20111,3.42694 -5.17816,3.84863c-13.63544,2.90832 -27.36231,5.38617 -41.00952,8.24249c-1.90943,0.39966 -4.54602,1.73303 -5.13208,3.28247c-2.5022,6.61536 -4.52335,13.42975 -6.38071,20.2638c-0.82886,3.04974 0.74258,4.62225 4.11481,4.37719c6.07357,-0.44152 12.15927,-0.76538 18.24557,-0.94537c1.38239,-0.04089 2.78809,0.70624 3.26288,0.8371c1.77918,-1.3852 3.04095,-2.9527 4.65442,-3.52033c6.24231,-2.19592 12.58093,-4.12542 18.92163,-6.02777c1.36328,-0.409 2.88464,-0.2912 4.70013,-0.44769c-0.19641,1.5664 -0.34027,2.71344 -0.49896,3.97858c4.41516,-1.13514 8.70331,-2.23755 14.29621,-3.67548c-3.14374,8.27472 -10.40876,7.11859 -15.90693,10.97082c3.14557,1.03498 5.83191,1.91889 9.10822,2.99689c0.68213,2.85645 -1.58521,4.73352 -4.44867,5.8197c-14.9104,5.65607 -29.68036,12.0008 -46.18292,10.97351c-15.58039,-0.96978 -30.1518,-9.76281 -31.38223,-27.39624c-0.3082,-4.41644 -0.95643,-8.8092 -1.461,-13.32586c-7.50986,3.18713 -14.93488,7.77936 -22.96839,9.45587c-18.24936,3.80835 -34.75677,12.09582 -52.06405,18.29443c-1.97028,0.70569 -3.9263,1.60761 -5.67676,2.74506c-11.16654,7.25592 -20.89288,5.97839 -29.53021,-3.99024c-0.1091,-0.12597 -0.20057,-0.31115 -0.33908,-0.36132c-11.01731,-3.98505 -4.70603,-11.87262 -3.08655,-17.49488c6.8984,-23.94922 19.17935,-45.39782 32.87735,-66.03479c5.48724,-8.2669 11.49255,-16.18878 17.15796,-24.34002c0.8619,-1.24012 1.15698,-2.87415 1.7142,-4.32599c12.05872,-0.72553 21.27627,11.99701 16.33517,22.88989c-4.41165,9.72565 -8.94015,19.42895 -14.06045,28.79022c-2.78794,5.09705 -7.16355,9.2992 -10.3675,14.20264c-3.28292,5.02429 -6.00985,10.41193 -9.25949,16.13232c5.82193,-1.50268 11.07166,-3.18994 16.45212,-4.12567c3.39563,-0.59057 7.30646,-0.92517 10.39969,0.21564c3.06809,1.13153 5.17032,0.617 8.05215,-0.1236c5.10624,-1.31207 10.57245,-1.16852 15.74485,-2.29266c5.32303,-1.15704 10.4545,-3.17395 15.71567,-4.65137c1.39843,-0.39276 3.56088,-0.85113 4.35266,-0.14148c3.67083,3.2901 6.1792,0.03046 9.15054,-1.06036c1.34769,-0.49475 2.91638,-0.38757 4.50867,-0.56745c6.38485,-12.98181 13.00479,-26.17907 19.31225,-39.52392c1.05481,-2.23169 0.78186,-5.10114 1.07206,-7.68164c0.51623,-4.59064 0.53546,-8.97785 7.18539,-9.6684c2.71777,-0.28229 5.26666,-3.66546 7.59619,-5.94116c7.62677,-7.45056 17.58655,-8.87427 26.61816,-3.41492c0.87299,0.52777 1.64545,2.22357 1.50391,3.24402c-0.46387,3.34534 -1.37115,6.62915 -2.24664,10.55908c3.45984,0.59851 7.32483,1.21686 11.16906,1.94452c5.04358,0.95478 10.12543,1.79035 15.07746,3.10431c1.8836,0.4997 3.45294,2.18372 4.37604,3.97992c2.16894,-0.14654 4.33795,-0.29309 7.77502,-0.52533c-6.08026,8.99994 -14.48602,10.26209 -22.12476,12.29151c-10.94592,2.90795 -22.25878,4.44592 -33.1773,7.4367c-2.48584,0.68097 -3.99866,4.91455 -6.42432,7.96619c-0.62701,0.79364 -0.789,1.13421 -0.95093,1.47473c0.56763,-0.21759 1.1352,-0.43518 1.70282,-0.65277m7.08564,53.89093c0.43414,-0.14734 0.86828,-0.29468 1.30243,-0.44202c-0.18366,-0.27502 -0.36731,-0.55005 -0.55097,-0.82507c-0.50641,0.37384 -1.01282,0.74768 -0.75146,1.26709z"
            fill="#FBB03F" />
        <path id="svg_3"
            d="m627.2379,39.21614c2.25763,7.70184 4.4502,15.02356 6.64154,22.34149c6.41382,-10.05774 12.70099,-20.27893 19.37555,-30.2406c3.71131,-5.53912 7.7829,-10.90759 12.28321,-15.81042c1.66247,-1.81116 5.0155,-2.07709 7.60504,-3.02747c1.12524,-0.41296 2.31823,-0.67053 3.39715,-1.17633c6.74231,-3.16071 13.84503,-3.3136 20.60095,-0.97101c3.99945,1.38678 7.52033,4.47919 10.88428,7.25556c2.14319,1.76892 1.93982,4.00061 -0.90484,5.49176c-13.42725,7.03839 -24.29603,17.18945 -33.76545,28.7882c-6.04376,7.4029 -11.55993,15.31714 -13.44421,25.04932c-0.16132,0.83295 0.29169,1.85809 -0.03064,2.573c-0.98236,2.17883 1.43182,6.87237 -4.18103,5.86279c-0.35297,-0.06348 -1.13361,1.38751 -1.47119,2.23151c-4.67639,11.69226 -9.28827,23.41052 -13.99213,35.09167c-0.41491,1.03028 -1.53015,2.72351 -2.03766,2.62683c-5.72406,-1.09076 -11.54467,-2.04547 -16.99981,-3.98938c-2.11109,-0.75238 -4.25861,-3.70202 -4.82868,-6.03247c-1.4945,-6.10968 -2.52295,-12.39782 -3.02856,-18.67193c-1.17951,-14.63416 -1.94293,-29.30188 -2.87232,-43.9151c-6.22174,0.91845 -13.33172,9.768 -14.73022,16.72949c-0.98322,4.89429 -4.11456,9.35992 -6.30518,14.00824c-5.37957,11.41485 -10.96002,22.7406 -16.05401,34.28131c-1.81757,4.11786 -4.15021,5.52014 -8.60096,5.50439c-4.72912,-0.01672 -6.78753,-3.07287 -8.44989,-6.2127c-2.99426,-5.65558 -6.08782,-11.44818 -5.75708,-18.19373c0.10077,-2.05444 0.22797,-4.22534 0.94678,-6.11304c5.2934,-13.90167 11.89606,-27.19024 21.40753,-38.6737c9.03601,-10.90955 18.72614,-21.28406 28.34406,-31.69489c0.98376,-1.06488 4.0592,-1.67413 5.11902,-0.95495c7.50708,5.09472 16.182,8.89886 20.84875,17.84216z"
            fill="#FBB03F" />
        <path id="svg_4"
            d="m543.81279,127.05159c-14.72095,2.22729 -26.05249,-4.8728 -37.56378,-11.56116c-6.64801,-3.86261 -13.67657,-7.09698 -20.1745,-11.18518c-10.51874,-6.61761 -20.74176,-13.70532 -30.70959,-20.34149c-5.43952,3.53192 -4.54499,11.67511 -11.81897,13.37396c2.90582,10.1922 -5.99524,18.75818 -6.69452,29.2226c-0.21997,3.29156 -6.65375,3.78265 -9.98902,0.51001c-9.02703,-8.85755 -10.23645,-12.62036 -7.33374,-24.83246c5.05835,-21.28144 16.00757,-39.8689 26.52973,-58.6485c7.38525,-13.18103 14.89282,-26.29712 22.578,-39.30499c3.39246,-5.74219 8.65302,-5.60962 12.56775,0.00775c7.14203,10.24847 8.85486,19.21515 0.65491,30.57019c-1.88886,2.61566 -3.48664,5.44775 -5.1269,8.23407c-0.86248,1.46503 -1.5271,3.04657 -2.62933,5.28198c5.78711,-2.65967 10.9198,-4.93243 15.97608,-7.36407c6.41186,-3.08368 12.56134,-6.82477 19.18328,-9.33441c10.98432,-4.16303 20.78949,-10.76099 31.78516,-14.7497c2.28076,-0.82745 6.06793,-0.84442 7.6698,0.51807c3.02045,2.56915 7.63562,4.92279 5.63483,10.64117c-1.04053,2.974 -6.52295,13.18872 -8.69477,15.04407c-1.13342,0.9682 -1.99932,2.26404 -3.17639,3.16284c-1.62518,1.24091 -2.95709,4.21503 -5.72662,1.27283c-0.2218,-0.23566 -2.32562,1.2489 -3.51941,1.99103c-1.99078,1.23748 -3.95282,2.52117 -5.51971,3.52459c-1.40949,1.51715 -2.43757,2.94843 -3.76856,3.99414c-3.65179,2.86884 -7.25555,4.28797 -12.50183,3.41754c-3.54419,-0.58801 -7.77057,2.70874 -11.64337,4.37995c-6.388,2.75665 -12.73694,5.60394 -19.34772,8.5213c4.3924,4.49652 8.70129,8.95721 13.06708,13.36139c3.61999,3.65179 7.1878,7.37109 11.02417,10.78467c1.50726,1.34106 3.91308,1.6513 5.48626,2.94561c1.49512,1.23011 2.18049,3.46009 3.69501,4.64661c1.53028,1.19897 3.64136,1.65674 5.15058,2.29285c0,-2.45233 0,-4.21179 0,-6.14374c10.51855,3.19861 12.56268,4.84949 10.75354,8.39703c3.71087,1.47321 7.38275,2.93091 11.05462,4.38861c-0.26684,0.76764 -0.53375,1.53528 -0.8006,2.30298c-3.34411,-0.73199 -6.68829,-1.46392 -10.34027,-2.26324c4.28998,8.80243 15.1214,4.03009 21.21466,11.05652c-2.55243,0.74029 -4.52252,1.31164 -6.94586,1.88458z"
            fill="#FBB03E" />
        <path id="svg_5"
            d="m131.43566,89.45076c-1.12656,3.62335 -2.13788,6.86261 -3.0131,10.13831c-1.2308,4.60638 0.15186,6.53479 5.01563,6.4439c5.56125,-0.10394 11.11255,-0.69012 16.67438,-0.84387c1.31726,-0.0365 2.68847,0.74548 3.98169,1.27973c1.37747,0.56903 2.69183,1.29077 5.22619,2.52813c-2.08792,-2.35907 -3.20062,-3.61621 -4.52466,-5.11224c9.31742,-2.86981 18.02466,-5.55164 27.39493,-8.43775c-0.2016,2.05488 -0.31485,3.20923 -0.44382,4.52363c4.32734,-1.13105 8.60068,-2.24799 13.1247,-3.43042c-0.31149,4.10229 -0.31149,4.10229 -13.36124,9.86114c0.75226,1.17828 1.49378,2.33972 2.12952,3.33551c2.22726,0 4.30188,0 6.37653,0c0.23053,0.44965 0.46106,0.89929 0.69159,1.34894c-1.59327,1.55713 -2.91254,3.7926 -4.82309,4.56433c-15.42151,6.22937 -30.90604,12.88361 -48.04428,11.30402c-15.80735,-1.45685 -27.75809,-9.12531 -30.81833,-27.10993c-2.12534,-12.49042 0.74093,-23.53814 6.13128,-34.40387c4.88724,-9.85156 10.05365,-19.57696 14.56043,-29.59924c1.88037,-4.18164 2.62396,-8.94361 3.42453,-13.5221c0.79858,-4.56719 0.72488,-8.85901 7.2771,-9.67144c2.86789,-0.35572 5.46927,-3.92304 7.92962,-6.30298c7.30448,-7.06561 17.84119,-8.50427 26.26526,-2.92468c1.23786,0.81988 1.5434,3.82 1.40464,5.74835c-0.16971,2.35846 -1.26291,4.65045 -1.99741,7.10699c10.11368,4.1474 21.76663,2.70246 31.16037,8.39246c-0.11569,0.46301 -0.23136,0.92602 -0.34705,1.38904c2.00132,-0.36322 4.00263,-0.72638 6.4151,-1.16419c-0.06439,6.22138 -4.74139,7.94934 -8.52255,9.00104c-13.54465,3.76752 -27.21341,7.17633 -40.98004,10.01978c-6.43311,1.32879 -9.47684,5.05206 -11.62369,10.95837c6.87741,-1.78888 13.3765,-3.44269 19.85504,-5.17322c8.95255,-2.39148 15.36545,1.58991 17.23587,10.69537c0.32868,1.59986 1.36811,3.15308 1.33032,4.70972c-0.10086,4.15857 -3.48608,4.35852 -6.54962,4.9715c-12.72638,2.54608 -25.3844,5.48169 -38.17392,7.64496c-6.89367,1.16595 -8.54162,6.02911 -10.38192,11.73071z"
            fill="#FBB03F" />
        <path id="svg_6"
            d="m13.90538,124.29262c-1.65684,-1.02375 -3.04889,-1.78101 -4.42813,-2.56098c-2.74678,-1.55328 -5.39099,-2.98932 -5.39259,-6.9281c-0.00075,-1.79187 -1.07218,-3.71148 -2.03566,-5.35132c-3.24017,-5.51446 -2.62912,-10.22387 1.77371,-14.57245c2.38194,-2.35266 4.57643,-2.75756 6.63676,-0.00482c5.5179,7.37262 12.22463,7.00287 20.18007,4.35175c8.88096,-2.95947 17.20246,-6.59973 25.47725,-13.4292c-3.944,-3.41797 -7.76913,-6.67071 -11.51376,-10.01367c-1.21999,-1.08917 -2.05838,-2.66284 -3.37715,-3.57056c-1.87302,-1.28924 -4.09473,-2.05987 -6.04508,-3.25226c-1.89582,-1.15918 -3.85202,-2.35534 -5.41014,-3.90814c-7.4169,-7.39148 -10.66856,-26.03284 -5.5536,-34.49182c4.90739,-8.11572 13.02946,-12.5473 21.36323,-16.48718c12.57698,-5.94593 25.86159,-7.10041 39.631,-7.32337c8.25179,-0.13366 16.91763,7.93262 18.9982,15.02112c1.95068,6.64594 -1.08093,11.90698 -3.07715,17.57874c-0.15542,0.44152 -0.61453,1.1278 -0.90814,1.1156c-3.52167,-0.14661 -7.1031,-0.10803 -10.50966,-0.84955c-0.80758,-0.17572 -1.03828,-3.06128 -1.50407,-4.70899c-0.12752,-0.45105 -0.14525,-0.9331 -0.26844,-1.77935c-15.67736,-0.50855 -28.58747,6.02087 -41.05819,15.75103c5.42113,3.5586 10.57359,7.13337 15.91743,10.39447c5.3344,3.25538 11.31075,5.61976 16.1857,9.42518c5.77402,4.50726 8.12596,11.354 8.12068,18.61865c-0.00367,5.06482 -0.88322,10.12903 -1.22917,13.71698c-4.767,3.59558 -8.62916,6.87079 -12.84518,9.59918c-5.58652,3.61523 -11.15438,8.61542 -17.28514,9.61414c-5.11156,0.8327 -8.1673,3.43981 -12.22356,5.29443c-6.0215,2.75317 -13.09708,3.88708 -19.79086,4.17932c-3.10472,0.13556 -6.36695,-3.33624 -9.82836,-5.42883z"
            fill="#FBB03F" />
        <path id="svg_7"
            d="m756.46801,39.42305c-3.81208,7.28064 -6.65003,14.46411 -12.53363,20.35461c-2.21558,2.21826 -4.73517,4.08539 -6.14148,5.28601c-0.33503,3.20526 -0.10474,5.52985 -0.85743,7.47376c-5.17602,13.36639 -10.78662,26.5686 -15.75665,40.00879c-1.8985,5.13415 -2.48157,10.75476 -3.77057,16.64007c-1.08606,-0.30194 -2.54327,-0.45495 -3.75311,-1.08386c-8.45276,-4.39367 -16.72089,-9.50427 -18.36517,-19.67883c-0.88776,-5.49371 0.12097,-11.56891 1.45703,-17.09583c4.12152,-17.0498 12.51312,-32.32562 21.23828,-47.33972c7.74646,-13.33008 16.17975,-26.2597 24.02429,-39.53491c2.34424,-3.96704 5.55823,-4.49561 9.50256,-4.42957c3.32587,0.05579 4.67536,1.77124 5.78333,4.76191c1.14728,3.09692 4.47742,5.69909 4.78558,8.72796c0.65076,6.39691 0.38233,12.98511 -0.4234,19.37952c-0.28253,2.24261 -3.24383,4.14776 -5.18963,6.53009z"
            fill="#FBB03E" />
        <path id="svg_8"
            d="m370.98509,107.95821c0.12256,-0.44666 0.62897,-0.8205 1.13538,-1.19434c0.18366,0.27502 0.36731,0.55005 0.55097,0.82507c-0.43415,0.14734 -0.86829,0.29468 -1.68635,0.36927z"
            fill="#000000" />
        <path id="svg_9"
            d="m364.09477,53.95259c-0.37902,0.40503 -0.94659,0.62262 -1.51422,0.84021c0.16193,-0.34052 0.32392,-0.68109 0.71228,-1.20703c0.35547,-0.06372 0.48444,0.05786 0.80194,0.36682z"
            fill="#000000" />
    </g>
</svg>