<svg width="34" height="34" viewBox="0 0 34 34" fill="none" xmlns="http://www.w3.org/2000/svg">
    <path
        d="M6.83778 14.7144C9.55778 20.06 13.94 24.4233 19.2856 27.1622L23.4411 23.0067C23.9511 22.4967 24.7067 22.3267 25.3678 22.5533C27.4833 23.2522 29.7689 23.63 32.1111 23.63C33.15 23.63 34 24.48 34 25.5189V32.1111C34 33.15 33.15 34 32.1111 34C14.3744 34 0 19.6256 0 1.88889C0 0.85 0.85 0 1.88889 0H8.5C9.53889 0 10.3889 0.85 10.3889 1.88889C10.3889 4.25 10.7667 6.51667 11.4656 8.63222C11.6733 9.29333 11.5222 10.03 10.9933 10.5589L6.83778 14.7144Z"
        fill="#FB8500" />
</svg>