<svg width="260" height="525" viewBox="0 0 260 525" fill="none" xmlns="http://www.w3.org/2000/svg">
    <g clip-path="url(#clip0_112_3094)">
        <path d="M255 0H5V524.67H255V0Z" fill="#000000" />
        <path
            d="M178.307 102.305C162.938 89.2887 142.134 102.305 121.923 129.697C101.711 157.087 92.1 145.56 74.918 157.633C57.7366 169.705 53.1411 219.159 113.676 214.351C174.211 209.543 218.483 136.286 178.307 102.305Z"
            fill="#F0F0F0" />
        <path
            d="M196.969 233.181C196.969 233.238 167.827 233.286 131.89 233.286C95.9527 233.286 66.7974 233.238 66.7974 233.181C66.7974 233.124 95.936 233.075 131.89 233.075C167.844 233.075 196.969 233.128 196.969 233.181Z"
            fill="#263238" />
        <path
            d="M168.574 183.385C162.09 178.996 160.621 170.848 160.877 163.522C160.919 162.303 160.781 161.009 161.381 159.939C161.981 158.87 163.383 158.133 164.511 158.645C165.447 159.072 165.855 160.13 166.379 161.005C167.079 162.169 168.105 163.119 169.338 163.742C170.139 164.149 171.134 164.393 171.927 163.97C173.019 163.389 173.144 161.936 173.136 160.716C173.136 158.446 173.122 156.179 173.094 153.915C173.019 152.699 173.146 151.48 173.471 150.303C173.862 149.148 174.731 148.078 175.919 147.753C177.106 147.427 178.587 148.098 178.856 149.286C178.903 149.789 178.915 150.295 178.894 150.799C178.927 151.308 179.171 151.865 179.662 152.02C180.153 152.174 180.665 151.82 181.043 151.462C182.335 150.242 183.217 148.651 184.035 147.081C184.853 145.511 185.655 143.896 186.83 142.558C188.005 141.22 189.629 140.158 191.447 140.056C193.264 139.955 195.157 141.037 195.61 142.746C196.063 144.454 195.035 146.199 193.931 147.586C192.265 149.645 190.302 151.46 188.102 152.975C187.672 153.203 187.329 153.558 187.124 153.988C186.851 154.802 187.644 155.616 188.471 155.871C189.407 156.173 190.423 156.079 191.409 156.193C192.395 156.307 193.444 156.722 193.818 157.617C194.33 158.861 193.255 160.163 192.202 161.017C190.087 162.726 187.685 164.07 185.101 164.991C184.178 165.317 183.208 165.606 182.461 166.232C181.714 166.858 181.269 167.952 181.719 168.81C182.167 169.669 183.321 169.941 184.291 169.767C185.261 169.592 186.121 169.087 187.044 168.75C188.769 168.119 190.993 168.233 192.08 169.677C192.417 170.174 192.63 170.741 192.703 171.332C192.776 171.922 192.706 172.521 192.5 173.082C192.08 174.197 191.433 175.219 190.599 176.087C187.85 179.27 184.279 181.689 180.249 183.096C176.25 184.438 172.544 184.805 168.57 183.393"
            fill="#FAB71C" />
        <path
            d="M193.763 141.061C193.763 141.061 193.725 141.102 193.641 141.175L193.268 141.497C192.941 141.781 192.458 142.196 191.849 142.746C190.124 144.298 188.522 145.974 187.057 147.761C186.121 148.887 185.151 150.165 184.119 151.552C183.087 152.938 182.021 154.436 180.963 156.026C179.835 157.703 178.803 159.439 177.87 161.225C177.383 162.156 176.955 163.128 176.515 164.121L175.213 167.151C173.499 170.968 172.005 174.875 170.739 178.853C169.721 182.109 169.018 185.449 168.641 188.831C168.397 191.114 168.358 193.412 168.524 195.702C168.591 196.515 168.654 197.137 168.713 197.561C168.738 197.764 168.755 197.926 168.771 198.045V198.211C168.753 198.158 168.741 198.104 168.733 198.048C168.713 197.931 168.687 197.772 168.654 197.568C168.578 197.162 168.499 196.519 168.423 195.706C168.221 193.412 168.235 191.106 168.465 188.815C168.818 185.418 169.505 182.062 170.517 178.793C171.772 174.803 173.261 170.886 174.979 167.061L176.313 164.043C176.753 163.055 177.186 162.074 177.677 161.139C178.617 159.348 179.657 157.608 180.795 155.928C181.869 154.301 182.952 152.829 183.972 151.454C184.992 150.079 185.978 148.794 186.91 147.671C188.39 145.89 190.014 144.225 191.765 142.693C192.387 142.151 192.882 141.745 193.217 141.472L193.608 141.167C193.656 141.127 193.708 141.091 193.763 141.061Z"
            fill="#263238" />
        <path
            d="M177.732 161.131C177.672 160.964 177.632 160.791 177.61 160.614C177.543 160.277 177.467 159.801 177.379 159.183C177.199 157.963 177.014 156.291 176.817 154.44C176.619 152.589 176.397 150.913 176.212 149.706C176.115 149.103 176.031 148.619 175.973 148.281C175.927 148.109 175.903 147.931 175.901 147.753C175.974 147.916 176.026 148.086 176.057 148.261C176.149 148.595 176.254 149.075 176.371 149.681C176.611 150.901 176.846 152.561 177.044 154.415C177.24 156.27 177.408 157.897 177.538 159.163C177.602 159.732 177.656 160.216 177.698 160.602C177.731 160.777 177.742 160.954 177.732 161.131Z"
            fill="#263238" />
        <path
            d="M193.881 158.21C193.677 158.254 193.469 158.278 193.259 158.283C192.84 158.32 192.244 158.369 191.505 158.45C190.028 158.605 187.997 158.89 185.768 159.297C183.54 159.703 181.538 160.163 180.099 160.517C179.381 160.695 178.801 160.858 178.42 160.968C178.216 161.039 178.005 161.088 177.79 161.115C177.984 161.02 178.187 160.942 178.395 160.883C178.789 160.748 179.36 160.562 180.073 160.362C181.505 159.956 183.506 159.471 185.743 159.056C187.638 158.705 189.55 158.448 191.472 158.283C192.215 158.223 192.815 158.198 193.235 158.19C193.45 158.176 193.667 158.183 193.881 158.21Z"
            fill="#263238" />
        <path
            d="M170.723 178.508C170.678 178.449 170.641 178.384 170.613 178.317L170.337 177.751C170.097 177.259 169.774 176.531 169.388 175.64C168.607 173.85 167.613 171.345 166.555 168.562C165.498 165.78 164.524 163.274 163.785 161.464C163.425 160.586 163.127 159.866 162.904 159.329L162.669 158.747C162.637 158.68 162.614 158.609 162.602 158.536C162.647 158.595 162.683 158.659 162.711 158.727L162.988 159.292C163.223 159.784 163.551 160.513 163.937 161.404C164.717 163.194 165.712 165.699 166.769 168.481C167.827 171.263 168.801 173.769 169.539 175.579C169.9 176.458 170.198 177.177 170.416 177.714C170.513 177.946 170.593 178.121 170.655 178.297C170.688 178.363 170.711 178.435 170.723 178.508Z"
            fill="#263238" />
        <path
            d="M192.16 171.809C192.093 171.846 192.021 171.874 191.946 171.894L191.325 172.097L189.029 172.817C187.09 173.427 184.413 174.298 181.475 175.258C178.537 176.218 175.847 177.072 173.895 177.641C172.922 177.93 172.129 178.15 171.579 178.297L170.945 178.455C170.871 178.477 170.795 178.492 170.719 178.499C170.786 178.463 170.858 178.434 170.933 178.414L171.554 178.211L173.849 177.491C175.788 176.881 178.466 176.01 181.403 175.05C184.341 174.09 187.027 173.236 188.979 172.667C189.957 172.378 190.746 172.158 191.3 172.012L191.933 171.853C192.007 171.831 192.083 171.816 192.16 171.809Z"
            fill="#263238" />
        <path
            d="M183.414 73.1405L181.253 73.8887L180.325 71.1517C178.621 66.1033 173.191 63.423 168.201 65.1277C163.211 66.8315 160.554 72.3677 162.258 77.4154L163.185 80.1531L161.015 80.9059C160.188 81.2167 159.517 81.8247 159.139 82.6033C158.763 83.3826 158.71 84.2717 158.993 85.0871L165.007 102.899C165.131 103.303 165.339 103.678 165.616 104.002C165.893 104.327 166.235 104.594 166.621 104.788C167.007 104.982 167.43 105.099 167.863 105.131C168.297 105.164 168.733 105.112 169.145 104.978L191.543 97.2127C192.381 96.9025 193.063 96.2887 193.444 95.501C193.825 94.714 193.877 93.8139 193.587 92.9907L187.569 75.1785C187.441 74.7759 187.23 74.4024 186.95 74.0807C186.67 73.7589 186.325 73.4946 185.938 73.3046C185.55 73.114 185.127 73.0016 184.693 72.9738C184.259 72.9454 183.825 73.0022 183.414 73.1405ZM166.341 75.9881C165.882 74.6751 165.965 73.2413 166.571 71.9865C167.179 70.7317 168.263 69.7534 169.598 69.2559C170.257 69.0375 170.955 68.9496 171.65 68.9981C172.345 69.0465 173.023 69.2307 173.643 69.5383C174.263 69.8465 174.812 70.2723 175.259 70.7905C175.705 71.3087 176.039 71.9083 176.241 72.5551L177.165 75.2922L167.265 78.7251L166.341 75.9881ZM178.932 91.7947L180.468 96.3423C180.496 96.4334 180.487 96.5316 180.442 96.6163C180.398 96.7015 180.321 96.7662 180.229 96.7978L178.075 97.5422C177.99 97.5655 177.898 97.5551 177.82 97.5144C177.742 97.4731 177.683 97.4046 177.656 97.3225L176.107 92.795C175.253 92.7504 174.434 92.4531 173.759 91.9446C173.084 91.4355 172.585 90.7389 172.33 89.948C171.965 88.9019 172.032 87.7602 172.516 86.7606C173 85.7617 173.865 84.9824 174.928 84.587C175.453 84.4132 176.009 84.3434 176.562 84.3821C177.116 84.4209 177.655 84.5669 178.149 84.8125C178.643 85.0574 179.081 85.3966 179.437 85.8095C179.793 86.2217 180.059 86.6999 180.22 87.2142C180.49 88.018 180.513 88.8806 180.285 89.696C180.056 90.5121 179.587 91.2455 178.936 91.807L178.932 91.7947Z"
            fill="#FAB71C" />
        <path
            d="M181.156 73.8403C181.156 73.8972 177.148 75.3575 172.162 77.0943C167.177 78.8311 163.11 80.2262 163.089 80.1855C163.068 80.1448 167.097 78.6728 172.087 76.9315C177.077 75.1908 181.135 73.7873 181.156 73.8403Z"
            fill="#263238" />
        <path
            d="M185.915 74.5884C185.933 74.6239 185.949 74.6608 185.961 74.6982C185.995 74.7796 186.033 74.8856 186.083 75.0155C186.192 75.3127 186.343 75.7237 186.532 76.2361L188.143 80.7836C188.815 82.7117 189.617 84.9978 190.507 87.5358C190.926 88.8087 191.421 90.1346 191.883 91.5303C192.13 92.2488 192.237 93.0061 192.198 93.7634C192.162 94.1569 192.047 94.5401 191.858 94.8903C191.656 95.2392 191.387 95.5468 191.065 95.7968C190.416 96.2556 189.697 96.6116 188.933 96.8507L186.771 97.6028L182.679 99.0224L175.751 101.414L171.071 103.009L169.812 103.416L169.476 103.521C169.441 103.537 169.402 103.547 169.363 103.55C169.363 103.55 169.397 103.55 169.468 103.501L169.795 103.375L171.054 102.915L175.709 101.256L182.625 98.8149L186.709 97.3831L188.87 96.6271C189.612 96.3971 190.311 96.0527 190.939 95.6055C191.239 95.3736 191.489 95.088 191.677 94.7636C191.855 94.4399 191.962 94.0839 191.992 93.7182C192.031 92.9893 191.928 92.2592 191.69 91.5665C191.237 90.1837 190.758 88.8456 190.326 87.572C189.453 85.0301 188.647 82.7356 188.009 80.8082C187.371 78.8801 186.834 77.33 186.465 76.2399C186.289 75.7069 186.155 75.292 186.045 74.9909L185.945 74.6659C185.932 74.6414 185.922 74.6155 185.915 74.5884Z"
            fill="#263238" />
        <path
            d="M174.097 68.979C174.097 68.979 173.875 68.873 173.463 68.7109C172.877 68.4925 172.257 68.371 171.629 68.3529C170.699 68.3219 169.773 68.4912 168.918 68.8491C167.879 69.2943 166.99 70.0148 166.354 70.9271C165.713 71.8376 165.37 72.9134 165.367 74.0151C165.377 74.9177 165.518 75.8146 165.787 76.6791C166.005 77.4196 166.232 78.0089 166.383 78.4198C166.473 78.6285 166.545 78.8437 166.601 79.0628C166.482 78.8676 166.383 78.6621 166.303 78.4483C166.131 78.0418 165.884 77.4642 165.641 76.7198C165.341 75.8462 165.179 74.9345 165.158 74.0151C165.147 72.8714 165.498 71.7523 166.165 70.8095C166.823 69.8636 167.749 69.1205 168.83 68.6702C169.711 68.3102 170.666 68.1519 171.621 68.2062C172.262 68.2379 172.892 68.3826 173.48 68.6333C173.637 68.7038 173.789 68.7852 173.933 68.8776C173.993 68.9028 174.048 68.937 174.097 68.979Z"
            fill="#263238" />
        <path
            d="M174.29 84.896C174.357 84.8566 174.427 84.823 174.5 84.7945C174.71 84.7028 174.927 84.6278 175.151 84.571C175.504 84.4695 175.869 84.4094 176.237 84.392C176.739 84.3655 177.24 84.4392 177.711 84.6071C178.785 84.9735 179.771 86.0351 180.258 87.4547C180.491 88.2165 180.491 89.0274 180.258 89.7892C179.999 90.6163 179.535 91.3691 178.907 91.9816L178.932 91.8718C179.49 93.3566 180.099 94.9674 180.728 96.6474L180.766 96.7489L180.661 96.7857L179.7 97.0946L177.601 97.7743L177.497 97.8066L177.463 97.7052C176.888 96.0213 176.259 94.4512 175.784 92.9095L175.877 92.9786C175.056 92.9127 174.274 92.6142 173.627 92.1199C173.042 91.6831 172.562 91.1281 172.221 90.4929C171.913 89.9301 171.76 89.2995 171.776 88.663C171.795 88.0117 171.963 87.3727 172.267 86.7918C172.571 86.2109 173.004 85.7024 173.535 85.3031C173.753 85.1312 173.998 84.9935 174.261 84.896C174.023 85.0323 173.794 85.1803 173.573 85.3392C172.989 85.8174 172.543 86.4325 172.275 87.1252C172.046 87.6479 171.939 88.2133 171.961 88.7806C171.983 89.3479 172.135 89.9036 172.406 90.4076C172.741 91.0189 173.209 91.5513 173.778 91.97C174.395 92.4391 175.141 92.7221 175.923 92.7835H175.994L176.015 92.8442C176.477 94.3575 177.111 95.9399 177.694 97.6315L177.555 97.5669L179.653 96.8871L180.611 96.5744L180.543 96.7127C179.918 95.0327 179.313 93.418 178.76 91.9332V91.8718L178.81 91.8233C179.42 91.236 179.875 90.5142 180.136 89.7201C180.359 88.9913 180.359 88.2159 180.136 87.487C179.679 86.1204 178.735 85.0834 177.711 84.717C177.257 84.5477 176.773 84.4689 176.288 84.485C175.925 84.4934 175.565 84.5413 175.213 84.6278C174.588 84.7784 174.294 84.9167 174.29 84.896Z"
            fill="#263238" />
        <path
            d="M161.318 202.344L119.396 202.157C116.975 202.144 114.658 201.2 112.955 199.533C111.251 197.866 110.3 195.611 110.31 193.265L110.755 91.4081C110.759 90.2457 111.001 89.0956 111.465 88.023C111.929 86.951 112.606 85.9779 113.458 85.1599C114.31 84.3419 115.32 83.6944 116.43 83.2544C117.541 82.815 118.729 82.5915 119.929 82.5973L161.847 82.7847C164.267 82.7963 166.585 83.739 168.289 85.4054C169.993 87.0718 170.946 89.3262 170.937 91.6724L170.492 193.526C170.487 194.689 170.246 195.839 169.782 196.911C169.318 197.984 168.641 198.958 167.789 199.776C166.937 200.595 165.927 201.243 164.817 201.684C163.707 202.124 162.517 202.349 161.318 202.344Z"
            fill="#455A64" />
        <path
            d="M161.783 86.2868H153.659C153.393 86.292 153.132 86.3469 152.889 86.4497C152.646 86.5524 152.426 86.701 152.242 86.8858C152.058 87.0706 151.913 87.289 151.817 87.5287C151.72 87.7678 151.673 88.023 151.677 88.2802V89.7075C151.683 89.9647 151.635 90.2199 151.539 90.459C151.441 90.6981 151.297 90.9158 151.113 91.1006C150.929 91.2854 150.709 91.4334 150.466 91.5355C150.223 91.6376 149.962 91.6925 149.697 91.697L133.858 91.6279C133.322 91.6136 132.814 91.3946 132.445 91.0179C132.076 90.6412 131.876 90.1379 131.89 89.6184V88.1904C131.903 87.6722 131.704 87.1695 131.336 86.7928C130.968 86.4161 130.461 86.1964 129.925 86.1809H127.067L119.954 86.1485C118.262 86.1389 116.635 86.7792 115.429 87.93C114.223 89.0801 113.537 90.647 113.521 92.2869L113.101 191.707C113.097 192.521 113.258 193.327 113.576 194.08C113.893 194.833 114.361 195.518 114.952 196.096C115.543 196.674 116.245 197.134 117.019 197.448C117.793 197.763 118.623 197.927 119.463 197.931L161.297 198.118C162.137 198.122 162.969 197.965 163.747 197.657C164.524 197.349 165.231 196.895 165.828 196.322C166.425 195.75 166.899 195.068 167.224 194.317C167.549 193.567 167.718 192.761 167.722 191.947L168.142 92.5266C168.152 90.8822 167.487 89.3011 166.295 88.1309C165.103 86.9608 163.48 86.2978 161.783 86.2868Z"
            fill="white" />
        <path
            d="M156.155 184.853L125.049 184.723C124.726 184.723 124.465 184.382 124.47 183.967L124.503 176.08C124.503 175.673 124.768 175.323 125.091 175.323L156.197 175.462C156.377 175.491 156.537 175.588 156.645 175.729C156.753 175.871 156.8 176.048 156.777 176.222L156.747 184.101C156.747 184.52 156.479 184.858 156.155 184.853Z"
            fill="#FAB71C" />
        <path
            d="M136.127 179.97C136.103 179.781 136.009 179.634 135.845 179.53C135.681 179.425 135.479 179.373 135.241 179.373C135.067 179.373 134.913 179.4 134.783 179.455C134.653 179.51 134.552 179.585 134.479 179.681C134.407 179.777 134.371 179.885 134.371 180.007C134.371 180.109 134.396 180.197 134.446 180.27C134.497 180.343 134.563 180.403 134.642 180.451C134.722 180.498 134.805 180.538 134.893 180.569C134.98 180.598 135.06 180.623 135.133 180.642L135.533 180.746C135.636 180.772 135.751 180.808 135.876 180.854C136.003 180.9 136.125 180.963 136.24 181.043C136.357 181.121 136.453 181.222 136.529 181.345C136.605 181.468 136.643 181.619 136.643 181.798C136.643 182.005 136.587 182.191 136.475 182.358C136.365 182.525 136.203 182.657 135.99 182.755C135.778 182.853 135.521 182.903 135.218 182.903C134.935 182.903 134.691 182.859 134.485 182.77C134.279 182.682 134.117 182.559 133.999 182.401C133.883 182.243 133.817 182.059 133.801 181.851H134.294C134.307 181.995 134.357 182.114 134.444 182.209C134.533 182.302 134.644 182.371 134.779 182.418C134.915 182.463 135.061 182.485 135.218 182.485C135.4 182.485 135.564 182.456 135.709 182.399C135.854 182.34 135.969 182.26 136.053 182.156C136.138 182.052 136.18 181.93 136.18 181.791C136.18 181.664 136.144 181.561 136.071 181.481C135.997 181.402 135.901 181.337 135.782 181.287C135.663 181.237 135.533 181.194 135.395 181.157L134.91 181.022C134.602 180.936 134.358 180.814 134.178 180.655C133.999 180.496 133.909 180.287 133.909 180.03C133.909 179.816 133.969 179.629 134.088 179.47C134.209 179.309 134.37 179.185 134.573 179.097C134.777 179.007 135.005 178.962 135.256 178.962C135.511 178.962 135.736 179.006 135.934 179.095C136.131 179.182 136.288 179.302 136.403 179.453C136.521 179.605 136.582 179.777 136.589 179.97H136.127ZM137.905 179.015V182.835H137.427V179.015H137.905ZM141.988 179.015V182.835H141.526L139.378 179.835H139.339V182.835H138.862V179.015H139.324L141.48 182.023H141.519V179.015H141.988ZM145.639 180.209C145.596 180.083 145.54 179.97 145.471 179.871C145.403 179.77 145.321 179.684 145.227 179.614C145.133 179.543 145.026 179.488 144.907 179.452C144.787 179.414 144.657 179.395 144.514 179.395C144.281 179.395 144.068 179.453 143.877 179.57C143.686 179.687 143.534 179.86 143.421 180.087C143.308 180.315 143.251 180.595 143.251 180.925C143.251 181.256 143.309 181.535 143.423 181.763C143.537 181.99 143.691 182.163 143.887 182.28C144.082 182.397 144.301 182.455 144.545 182.455C144.771 182.455 144.97 182.408 145.142 182.315C145.315 182.221 145.45 182.088 145.546 181.916C145.643 181.743 145.693 181.54 145.693 181.306L145.839 181.336H144.653V180.925H146.155V181.336C146.155 181.65 146.085 181.924 145.947 182.156C145.809 182.389 145.619 182.57 145.377 182.698C145.135 182.824 144.858 182.888 144.545 182.888C144.196 182.888 143.889 182.808 143.625 182.649C143.362 182.49 143.157 182.264 143.009 181.97C142.863 181.676 142.789 181.328 142.789 180.925C142.789 180.623 142.831 180.351 142.915 180.11C142.999 179.867 143.119 179.661 143.273 179.49C143.427 179.32 143.609 179.189 143.819 179.099C144.03 179.008 144.261 178.962 144.514 178.962C144.722 178.962 144.916 178.993 145.095 179.054C145.277 179.114 145.437 179.199 145.579 179.309C145.721 179.419 145.84 179.55 145.935 179.703C146.03 179.855 146.095 180.023 146.131 180.209H145.639ZM136.557 185.476H137.035V188.006C137.035 188.268 136.971 188.501 136.845 188.706C136.719 188.91 136.541 189.071 136.311 189.189C136.081 189.306 135.812 189.364 135.503 189.364C135.193 189.364 134.924 189.306 134.694 189.189C134.465 189.071 134.286 188.91 134.159 188.706C134.033 188.501 133.971 188.268 133.971 188.006V185.476H134.448V187.969C134.448 188.155 134.49 188.321 134.575 188.467C134.659 188.611 134.78 188.725 134.937 188.808C135.095 188.89 135.283 188.932 135.503 188.932C135.722 188.932 135.911 188.89 136.069 188.808C136.227 188.725 136.347 188.611 136.431 188.467C136.515 188.321 136.557 188.155 136.557 187.969V185.476ZM137.989 189.297V185.476H139.321C139.63 185.476 139.883 185.53 140.079 185.638C140.277 185.746 140.423 185.89 140.518 186.073C140.613 186.256 140.661 186.46 140.661 186.685C140.661 186.91 140.613 187.115 140.518 187.299C140.424 187.483 140.279 187.63 140.083 187.739C139.887 187.848 139.635 187.902 139.328 187.902H138.373V187.491H139.313C139.525 187.491 139.695 187.455 139.823 187.385C139.951 187.314 140.044 187.218 140.102 187.097C140.161 186.975 140.191 186.838 140.191 186.685C140.191 186.532 140.161 186.395 140.102 186.275C140.044 186.154 139.951 186.06 139.821 185.991C139.691 185.921 139.519 185.886 139.305 185.886H138.466V189.297H137.989Z"
            fill="#E8E8E3" />
        <path d="M131.253 115.512L120.459 115.465L120.451 117.385L131.245 117.433L131.253 115.512Z" fill="#FAB71C" />
        <path opacity="0.1" d="M131.253 115.512L120.459 115.465L120.451 117.385L131.245 117.433L131.253 115.512Z"
            fill="black" />
        <path
            d="M162.896 127.301C162.981 127.293 163.064 127.273 163.143 127.244C163.259 127.199 163.361 127.125 163.435 127.028C163.509 126.931 163.553 126.815 163.563 126.695C163.563 126.048 163.563 125.104 163.563 123.892C163.563 123.286 163.563 122.607 163.563 121.858C163.563 121.675 163.563 121.484 163.563 121.293C163.59 121.108 163.549 120.918 163.445 120.76C163.388 120.684 163.313 120.622 163.226 120.579C163.139 120.536 163.043 120.513 162.946 120.512H162.291H156.227L121.125 120.386C121.035 120.385 120.946 120.404 120.866 120.443C120.785 120.482 120.716 120.539 120.663 120.609C120.562 120.768 120.523 120.958 120.554 121.143C120.554 121.549 120.554 121.956 120.554 122.362C120.554 123.176 120.554 123.989 120.554 124.803C120.554 125.21 120.554 125.616 120.554 126.024C120.537 126.213 120.537 126.403 120.554 126.593C120.576 126.674 120.617 126.749 120.674 126.813C120.731 126.876 120.802 126.926 120.881 126.959C120.964 126.991 121.053 127.006 121.142 127.004H123.278L132.599 127.053L148.379 127.146L159.018 127.227L161.909 127.26H162.661C162.833 127.26 162.917 127.26 162.917 127.26H162.661H161.909H159.018H148.379L132.599 127.211L123.278 127.175H121.142C121.024 127.179 120.907 127.16 120.797 127.117C120.687 127.072 120.589 127.002 120.51 126.915C120.432 126.826 120.375 126.722 120.345 126.609C120.32 126.502 120.311 126.393 120.319 126.284V125.983C120.319 125.576 120.319 125.169 120.319 124.762C120.319 123.949 120.319 123.135 120.319 122.322C120.319 121.915 120.319 121.508 120.319 121.102C120.311 120.993 120.311 120.885 120.319 120.776C120.335 120.657 120.383 120.543 120.457 120.447C120.53 120.348 120.626 120.269 120.737 120.214C120.848 120.16 120.971 120.132 121.095 120.134L156.197 120.321L162.262 120.361H162.917C163.032 120.361 163.145 120.388 163.248 120.44C163.35 120.492 163.438 120.567 163.504 120.659C163.623 120.835 163.67 121.048 163.639 121.256C163.639 121.447 163.639 121.639 163.639 121.822C163.639 122.562 163.639 123.241 163.639 123.856C163.639 125.076 163.609 126.011 163.601 126.662C163.591 126.787 163.543 126.907 163.465 127.007C163.387 127.107 163.281 127.184 163.16 127.227C163.081 127.275 162.989 127.3 162.896 127.301Z"
            fill="#E0E0E0" />
        <path d="M143.443 122.428H123.702V124.221H143.443V122.428Z" fill="#FAB71C" />
        <path opacity="0.2" d="M143.443 122.428H123.702V124.221H143.443V122.428Z" fill="white" />
        <path d="M131.18 133.028L120.386 132.98L120.377 134.9L131.171 134.948L131.18 133.028Z" fill="#FAB71C" />
        <path opacity="0.1" d="M131.18 133.028L120.386 132.98L120.377 134.9L131.171 134.948L131.18 133.028Z"
            fill="black" />
        <path
            d="M162.623 144.816C162.707 144.805 162.792 144.791 162.875 144.771C162.992 144.735 163.1 144.675 163.191 144.595C163.282 144.515 163.355 144.416 163.403 144.307C163.469 144.143 163.495 143.966 163.479 143.79C163.479 143.595 163.479 143.384 163.479 143.148C163.479 142.676 163.479 142.139 163.479 141.521V138.938C163.499 138.751 163.457 138.562 163.357 138.401C163.254 138.235 163.091 138.112 162.9 138.055C162.691 138.019 162.478 138.008 162.266 138.023H156.227L121.247 137.897C121.059 137.897 120.877 137.963 120.735 138.084C120.595 138.204 120.503 138.371 120.479 138.551C120.479 138.938 120.479 139.365 120.479 139.772C120.479 140.586 120.479 141.399 120.479 142.212C120.479 142.619 120.479 143.026 120.479 143.432C120.463 143.623 120.471 143.814 120.504 144.002C120.556 144.167 120.664 144.311 120.81 144.409C120.965 144.504 121.147 144.55 121.331 144.539H121.914H123.127L132.414 144.584L148.14 144.678L158.741 144.759L161.624 144.791H162.375H162.627H162.375H161.624H158.741H148.14L132.406 144.775L123.119 144.742H121.293C121.066 144.756 120.841 144.697 120.651 144.575C120.46 144.448 120.321 144.259 120.256 144.043C120.219 143.836 120.207 143.626 120.223 143.416C120.223 143.01 120.223 142.603 120.223 142.196C120.223 141.383 120.223 140.569 120.223 139.756C120.223 139.349 120.223 138.942 120.223 138.535C120.253 138.303 120.37 138.089 120.552 137.934C120.733 137.779 120.967 137.693 121.209 137.693L156.189 137.88L162.229 137.925C162.453 137.912 162.679 137.927 162.9 137.97C163.118 138.039 163.302 138.184 163.416 138.377C163.525 138.556 163.572 138.764 163.551 138.971C163.551 139.161 163.551 139.349 163.551 139.536C163.551 140.272 163.551 140.947 163.551 141.57C163.551 142.192 163.551 142.716 163.551 143.197C163.551 143.429 163.551 143.644 163.551 143.843C163.565 144.026 163.535 144.208 163.462 144.376C163.408 144.489 163.329 144.588 163.231 144.668C163.133 144.748 163.019 144.807 162.895 144.84C162.804 144.847 162.711 144.839 162.623 144.816Z"
            fill="#E0E0E0" />
        <path d="M131.099 151.303L120.305 151.255L120.295 153.175L131.089 153.222L131.099 151.303Z" fill="#FAB71C" />
        <path opacity="0.1" d="M131.099 151.303L120.305 151.255L120.295 153.175L131.089 153.222L131.099 151.303Z"
            fill="black" />
        <path
            d="M162.539 163.084C162.624 163.074 162.708 163.058 162.791 163.038C162.907 163.003 163.015 162.943 163.106 162.864C163.197 162.784 163.27 162.688 163.319 162.579C163.385 162.415 163.411 162.238 163.395 162.062C163.395 161.863 163.395 161.656 163.395 161.416C163.395 160.948 163.395 160.407 163.395 159.788V157.206C163.415 157.019 163.373 156.83 163.273 156.669C163.167 156.506 163.005 156.385 162.816 156.327C162.607 156.289 162.394 156.277 162.182 156.291H156.143L121.163 156.164C120.975 156.165 120.793 156.231 120.652 156.352C120.511 156.472 120.419 156.638 120.395 156.819C120.395 157.226 120.395 157.633 120.395 158.039C120.395 158.853 120.395 159.667 120.395 160.48C120.395 160.887 120.395 161.294 120.395 161.7C120.379 161.889 120.387 162.079 120.42 162.266C120.47 162.432 120.579 162.576 120.726 162.673C120.881 162.77 121.063 162.816 121.247 162.803H123.073L132.36 162.852L148.085 162.945L158.687 163.026L161.569 163.059H162.321C162.489 163.059 162.573 163.059 162.573 163.059C162.573 163.059 162.489 163.059 162.321 163.059H161.569H158.687H148.085L132.36 163.015L123.073 162.978H121.247C121.019 162.993 120.794 162.934 120.605 162.811C120.413 162.682 120.274 162.494 120.21 162.278C120.173 162.071 120.161 161.861 120.177 161.652C120.177 161.245 120.177 160.838 120.177 160.431C120.177 159.618 120.177 158.804 120.177 157.991C120.177 157.584 120.177 157.177 120.177 156.75C120.206 156.518 120.323 156.304 120.503 156.149C120.684 155.994 120.917 155.908 121.159 155.908L156.139 156.095L162.178 156.14C162.403 156.127 162.629 156.141 162.849 156.185C163.067 156.254 163.251 156.399 163.366 156.591C163.475 156.771 163.521 156.979 163.5 157.185C163.5 157.376 163.5 157.568 163.5 157.751C163.5 158.487 163.5 159.162 163.5 159.784C163.5 160.407 163.5 160.931 163.5 161.411C163.5 161.643 163.5 161.859 163.5 162.058C163.516 162.24 163.486 162.423 163.412 162.591C163.357 162.704 163.279 162.803 163.181 162.883C163.083 162.963 162.969 163.022 162.845 163.055C162.747 163.088 162.642 163.097 162.539 163.084Z"
            fill="#E0E0E0" />
        <path d="M143.022 140.45L123.281 140.363L123.272 142.157L143.014 142.244L143.022 140.45Z" fill="#FAB71C" />
        <path opacity="0.2" d="M143.022 140.45L123.281 140.363L123.272 142.157L143.014 142.244L143.022 140.45Z"
            fill="white" />
        <path
            d="M125.066 159.764C125.054 159.928 124.992 160.084 124.889 160.214C124.786 160.344 124.645 160.442 124.485 160.495C124.325 160.549 124.152 160.555 123.988 160.515C123.824 160.473 123.676 160.387 123.563 160.265C123.449 160.144 123.375 159.993 123.349 159.83C123.323 159.668 123.347 159.502 123.418 159.353C123.489 159.204 123.603 159.078 123.747 158.992C123.891 158.905 124.057 158.861 124.227 158.865C124.46 158.878 124.68 158.979 124.837 159.147C124.994 159.316 125.076 159.538 125.066 159.764Z"
            fill="#FAB71C" />
        <path
            d="M127.74 159.777C127.748 159.891 127.732 160.006 127.692 160.115C127.652 160.223 127.59 160.322 127.509 160.406C127.428 160.49 127.33 160.557 127.222 160.603C127.113 160.649 126.996 160.673 126.877 160.673C126.758 160.673 126.641 160.649 126.532 160.603C126.423 160.557 126.325 160.49 126.245 160.406C126.163 160.322 126.101 160.223 126.062 160.115C126.022 160.006 126.006 159.891 126.014 159.777C126.006 159.662 126.022 159.547 126.062 159.438C126.101 159.33 126.163 159.231 126.245 159.147C126.325 159.063 126.423 158.996 126.532 158.95C126.641 158.904 126.758 158.88 126.877 158.88C126.996 158.88 127.113 158.904 127.222 158.95C127.33 158.996 127.428 159.063 127.509 159.147C127.59 159.231 127.652 159.33 127.692 159.438C127.732 159.547 127.748 159.662 127.74 159.777Z"
            fill="#FAB71C" />
        <path
            d="M130.417 159.789C130.404 159.953 130.343 160.109 130.24 160.239C130.136 160.369 129.996 160.467 129.836 160.52C129.676 160.573 129.503 160.58 129.339 160.539C129.175 160.498 129.027 160.412 128.913 160.29C128.8 160.168 128.725 160.017 128.7 159.855C128.674 159.692 128.698 159.527 128.769 159.378C128.839 159.229 128.954 159.103 129.097 159.017C129.241 158.929 129.408 158.885 129.577 158.89C129.811 158.904 130.03 159.006 130.186 159.174C130.344 159.342 130.426 159.563 130.417 159.789Z"
            fill="#FAB71C" />
        <path
            d="M133.09 159.801C133.078 159.965 133.016 160.121 132.913 160.251C132.81 160.381 132.669 160.479 132.509 160.532C132.349 160.585 132.176 160.592 132.012 160.551C131.848 160.51 131.701 160.424 131.587 160.302C131.473 160.18 131.399 160.029 131.373 159.867C131.347 159.705 131.371 159.539 131.442 159.39C131.513 159.241 131.627 159.115 131.771 159.028C131.915 158.942 132.081 158.898 132.251 158.902C132.484 158.916 132.703 159.018 132.86 159.186C133.017 159.354 133.1 159.575 133.09 159.801Z"
            fill="#FAB71C" />
        <path
            d="M135.764 159.809C135.752 159.973 135.691 160.13 135.588 160.26C135.486 160.391 135.345 160.49 135.185 160.543C135.025 160.598 134.852 160.605 134.688 160.564C134.523 160.523 134.375 160.437 134.261 160.316C134.147 160.194 134.073 160.043 134.047 159.88C134.021 159.718 134.045 159.552 134.115 159.403C134.185 159.254 134.3 159.128 134.444 159.041C134.587 158.954 134.755 158.91 134.924 158.914C135.157 158.928 135.375 159.029 135.532 159.196C135.688 159.363 135.772 159.583 135.764 159.809Z"
            fill="#FAB71C" />
        <path
            d="M138.441 159.822C138.43 159.985 138.37 160.141 138.268 160.271C138.166 160.401 138.027 160.499 137.868 160.554C137.709 160.609 137.537 160.617 137.373 160.578C137.209 160.54 137.061 160.456 136.946 160.336C136.831 160.216 136.755 160.067 136.726 159.906C136.698 159.745 136.719 159.579 136.786 159.429C136.853 159.28 136.965 159.152 137.106 159.063C137.247 158.974 137.412 158.926 137.581 158.927C137.817 158.935 138.04 159.034 138.202 159.202C138.363 159.369 138.449 159.592 138.441 159.822Z"
            fill="#FAB71C" />
        <path
            d="M141.115 159.834C141.123 159.948 141.107 160.063 141.067 160.172C141.028 160.28 140.966 160.379 140.884 160.463C140.804 160.548 140.706 160.614 140.597 160.66C140.488 160.706 140.371 160.73 140.252 160.73C140.133 160.73 140.016 160.706 139.907 160.66C139.799 160.614 139.701 160.548 139.619 160.463C139.539 160.379 139.477 160.28 139.437 160.172C139.397 160.063 139.381 159.948 139.389 159.834C139.381 159.719 139.397 159.604 139.437 159.495C139.477 159.387 139.539 159.288 139.619 159.204C139.701 159.12 139.799 159.053 139.907 159.007C140.016 158.961 140.133 158.938 140.252 158.938C140.371 158.938 140.488 158.961 140.597 159.007C140.706 159.053 140.804 159.12 140.884 159.204C140.966 159.288 141.028 159.387 141.067 159.495C141.107 159.604 141.123 159.719 141.115 159.834Z"
            fill="#FAB71C" />
        <path
            d="M143.788 159.846C143.776 160.009 143.716 160.165 143.614 160.295C143.512 160.426 143.374 160.524 143.214 160.579C143.055 160.633 142.883 160.641 142.72 160.603C142.556 160.564 142.407 160.48 142.293 160.36C142.177 160.24 142.101 160.091 142.073 159.93C142.045 159.769 142.065 159.603 142.133 159.454C142.2 159.304 142.311 159.177 142.453 159.088C142.594 158.998 142.759 158.951 142.927 158.951C143.164 158.96 143.387 159.058 143.548 159.226C143.71 159.394 143.796 159.617 143.788 159.846Z"
            fill="#FAB71C" />
        <path
            d="M146.462 159.857C146.45 160.022 146.389 160.179 146.286 160.309C146.183 160.44 146.043 160.538 145.883 160.592C145.723 160.646 145.549 160.653 145.385 160.613C145.221 160.572 145.073 160.486 144.959 160.364C144.845 160.243 144.77 160.091 144.744 159.929C144.718 159.767 144.742 159.6 144.813 159.451C144.883 159.302 144.998 159.176 145.141 159.089C145.285 159.003 145.453 158.959 145.622 158.963C145.855 158.977 146.073 159.078 146.23 159.245C146.386 159.412 146.47 159.632 146.462 159.857Z"
            fill="#FAB71C" />
        <g opacity="0.2">
            <path
                d="M125.066 159.764C125.054 159.928 124.992 160.084 124.889 160.214C124.786 160.344 124.645 160.442 124.485 160.495C124.325 160.549 124.152 160.555 123.988 160.515C123.824 160.473 123.676 160.387 123.563 160.265C123.449 160.144 123.375 159.993 123.349 159.83C123.323 159.668 123.347 159.502 123.418 159.353C123.489 159.204 123.603 159.078 123.747 158.992C123.891 158.905 124.057 158.861 124.227 158.865C124.46 158.878 124.68 158.979 124.837 159.147C124.994 159.316 125.076 159.538 125.066 159.764Z"
                fill="white" />
            <path
                d="M127.74 159.777C127.748 159.891 127.732 160.006 127.692 160.115C127.652 160.223 127.59 160.322 127.509 160.406C127.428 160.49 127.33 160.557 127.221 160.603C127.113 160.649 126.995 160.673 126.877 160.673C126.758 160.673 126.641 160.649 126.532 160.603C126.423 160.557 126.325 160.49 126.245 160.406C126.163 160.322 126.101 160.223 126.062 160.115C126.022 160.006 126.006 159.891 126.014 159.777C126.006 159.662 126.022 159.547 126.062 159.438C126.101 159.33 126.163 159.231 126.245 159.147C126.325 159.063 126.423 158.996 126.532 158.95C126.641 158.904 126.758 158.88 126.877 158.88C126.995 158.88 127.113 158.904 127.221 158.95C127.33 158.996 127.428 159.063 127.509 159.147C127.59 159.231 127.652 159.33 127.692 159.438C127.732 159.547 127.748 159.662 127.74 159.777Z"
                fill="white" />
            <path
                d="M130.417 159.788C130.404 159.952 130.343 160.109 130.24 160.239C130.136 160.369 129.995 160.466 129.835 160.52C129.675 160.573 129.503 160.58 129.339 160.538C129.175 160.498 129.027 160.411 128.913 160.29C128.8 160.168 128.725 160.016 128.7 159.854C128.674 159.692 128.698 159.527 128.769 159.377C128.839 159.228 128.954 159.103 129.097 159.016C129.241 158.929 129.408 158.885 129.577 158.889C129.811 158.903 130.03 159.005 130.186 159.173C130.344 159.341 130.426 159.562 130.417 159.788Z"
                fill="white" />
            <path
                d="M133.09 159.8C133.078 159.965 133.016 160.121 132.913 160.251C132.81 160.381 132.669 160.478 132.509 160.532C132.349 160.585 132.176 160.592 132.012 160.551C131.848 160.51 131.701 160.423 131.587 160.302C131.473 160.18 131.399 160.029 131.373 159.866C131.347 159.704 131.371 159.539 131.442 159.39C131.513 159.24 131.627 159.115 131.771 159.028C131.915 158.941 132.081 158.897 132.251 158.902C132.484 158.915 132.703 159.017 132.86 159.185C133.017 159.353 133.1 159.574 133.09 159.8Z"
                fill="white" />
            <path
                d="M135.764 159.809C135.752 159.973 135.691 160.129 135.588 160.26C135.486 160.39 135.345 160.489 135.185 160.543C135.025 160.597 134.852 160.604 134.688 160.563C134.523 160.523 134.375 160.437 134.261 160.315C134.147 160.194 134.073 160.042 134.047 159.88C134.021 159.718 134.045 159.552 134.115 159.402C134.185 159.253 134.3 159.127 134.444 159.041C134.587 158.953 134.755 158.909 134.924 158.914C135.157 158.927 135.375 159.029 135.532 159.196C135.688 159.363 135.772 159.583 135.764 159.809Z"
                fill="white" />
            <path
                d="M138.441 159.821C138.43 159.984 138.37 160.14 138.268 160.27C138.166 160.401 138.027 160.499 137.868 160.554C137.709 160.608 137.537 160.617 137.373 160.578C137.209 160.539 137.061 160.455 136.946 160.336C136.831 160.216 136.755 160.066 136.726 159.905C136.698 159.744 136.719 159.579 136.786 159.429C136.853 159.279 136.965 159.152 137.106 159.063C137.247 158.973 137.412 158.926 137.581 158.926C137.817 158.935 138.04 159.034 138.202 159.202C138.363 159.369 138.449 159.592 138.441 159.821Z"
                fill="white" />
            <path
                d="M141.115 159.834C141.123 159.948 141.107 160.063 141.067 160.172C141.028 160.28 140.966 160.379 140.884 160.463C140.804 160.548 140.706 160.614 140.597 160.66C140.488 160.706 140.371 160.73 140.252 160.73C140.133 160.73 140.016 160.706 139.907 160.66C139.799 160.614 139.701 160.548 139.619 160.463C139.539 160.379 139.477 160.28 139.437 160.172C139.397 160.063 139.381 159.948 139.389 159.834C139.381 159.719 139.397 159.604 139.437 159.495C139.477 159.387 139.539 159.288 139.619 159.204C139.701 159.12 139.799 159.053 139.907 159.007C140.016 158.961 140.133 158.938 140.252 158.938C140.371 158.938 140.488 158.961 140.597 159.007C140.706 159.053 140.804 159.12 140.884 159.204C140.966 159.288 141.028 159.387 141.067 159.495C141.107 159.604 141.123 159.719 141.115 159.834Z"
                fill="white" />
            <path
                d="M143.788 159.846C143.776 160.008 143.716 160.165 143.614 160.295C143.512 160.425 143.373 160.523 143.215 160.578C143.055 160.633 142.883 160.641 142.72 160.602C142.556 160.563 142.407 160.479 142.293 160.359C142.178 160.24 142.101 160.09 142.073 159.93C142.045 159.769 142.065 159.603 142.133 159.453C142.201 159.303 142.311 159.176 142.453 159.086C142.594 158.997 142.759 158.95 142.927 158.951C143.164 158.959 143.387 159.058 143.549 159.225C143.71 159.393 143.796 159.616 143.788 159.846Z"
                fill="white" />
            <path
                d="M146.462 159.857C146.45 160.022 146.389 160.179 146.286 160.309C146.183 160.44 146.043 160.538 145.883 160.592C145.723 160.646 145.549 160.653 145.385 160.613C145.221 160.572 145.073 160.486 144.959 160.364C144.845 160.243 144.77 160.091 144.744 159.929C144.718 159.767 144.742 159.6 144.813 159.451C144.883 159.302 144.998 159.176 145.141 159.089C145.285 159.003 145.453 158.959 145.622 158.963C145.855 158.977 146.073 159.078 146.23 159.245C146.386 159.412 146.47 159.632 146.462 159.857Z"
                fill="white" />
        </g>
        <path
            d="M142.663 101.138C142.955 101.013 143.203 100.808 143.375 100.549C143.547 100.29 143.637 99.9865 143.633 99.6776C143.644 99.4767 143.613 99.2764 143.541 99.0877C143.469 98.899 143.358 98.7265 143.215 98.5811C143.073 98.4351 142.901 98.3188 142.71 98.24C142.52 98.1605 142.314 98.1191 142.107 98.1191C141.9 98.1191 141.694 98.1605 141.504 98.24C141.314 98.3188 141.142 98.4351 140.999 98.5811C140.856 98.7265 140.746 98.899 140.673 99.0877C140.602 99.2764 140.571 99.4767 140.581 99.6776C140.575 99.9897 140.664 100.296 140.838 100.559C141.011 100.822 141.26 101.029 141.555 101.154C139.205 101.496 139.309 103.969 139.309 103.969L144.867 103.993C144.867 103.993 144.997 101.475 142.663 101.138Z"
            fill="#FAB71C" />
        <path opacity="0.1"
            d="M142.663 101.138C142.955 101.013 143.203 100.808 143.375 100.549C143.547 100.29 143.637 99.9865 143.633 99.6776C143.644 99.4767 143.613 99.2764 143.541 99.0877C143.469 98.899 143.358 98.7265 143.215 98.5811C143.073 98.4351 142.901 98.3188 142.71 98.24C142.52 98.1605 142.314 98.1191 142.107 98.1191C141.9 98.1191 141.694 98.1605 141.504 98.24C141.314 98.3188 141.142 98.4351 140.999 98.5811C140.856 98.7265 140.746 98.899 140.673 99.0877C140.602 99.2764 140.571 99.4767 140.581 99.6776C140.575 99.9897 140.664 100.296 140.838 100.559C141.011 100.822 141.26 101.029 141.555 101.154C139.205 101.496 139.309 103.969 139.309 103.969L144.867 103.993C144.867 103.993 144.997 101.475 142.663 101.138Z"
            fill="black" />
        <path d="M151.692 105.589L131.888 105.501L131.877 107.795L151.681 107.883L151.692 105.589Z" fill="#FAB71C" />
        <path opacity="0.2" d="M151.692 105.589L131.888 105.501L131.877 107.795L151.681 107.883L151.692 105.589Z"
            fill="white" />
        <path
            d="M99.314 231.232V227.755L92.8807 227.71L92.826 232.969L93.2247 232.997C95 233.107 102.256 233.27 103.448 232.912C104.774 232.513 99.314 231.232 99.314 231.232Z"
            fill="#FAB71C" />
        <path
            d="M103.599 232.587C103.599 232.644 101.19 232.692 98.2234 232.692C95.256 232.692 92.8474 232.644 92.8474 232.587C92.8474 232.529 95.256 232.481 98.2234 232.481C101.19 232.481 103.599 232.529 103.599 232.587Z"
            fill="#263238" />
        <path
            d="M99.4273 231.944C99.3733 231.916 99.4273 231.733 99.558 231.537C99.688 231.342 99.8641 231.261 99.9061 231.301C99.9481 231.342 99.8601 231.497 99.734 231.664C99.608 231.83 99.482 231.973 99.4273 231.944Z"
            fill="#263238" />
        <path
            d="M99.8387 232.172C99.78 232.172 99.8093 231.944 99.9353 231.728C100.061 231.513 100.229 231.383 100.275 231.416C100.321 231.448 100.246 231.631 100.129 231.822C100.011 232.013 99.8933 232.192 99.8387 232.172Z"
            fill="#263238" />
        <path
            d="M94.7863 232.57C94.7609 232.57 94.6642 232.497 94.5262 232.343C94.3569 232.144 94.1682 231.962 93.9635 231.798C93.7621 231.642 93.5214 231.539 93.2667 231.501C93.0693 231.476 92.9433 231.501 92.9306 231.476C92.918 231.452 93.04 231.367 93.2707 231.35C93.5754 231.344 93.8728 231.442 94.1102 231.627C94.3329 231.803 94.5209 232.017 94.6643 232.258C94.7609 232.437 94.8116 232.554 94.7863 232.57Z"
            fill="#263238" />
        <path
            d="M99.4487 231.289C99.4781 231.338 99.3687 231.46 99.184 231.526C98.9993 231.59 98.836 231.566 98.8273 231.526C98.8186 231.485 98.9493 231.399 99.1087 231.342C99.268 231.285 99.4147 231.241 99.4487 231.289Z"
            fill="#263238" />
        <path
            d="M99.3481 230.952C99.3481 231.013 99.1801 231.062 98.962 231.066C98.7433 231.07 98.5713 231.021 98.5753 230.964C98.58 230.907 98.752 230.854 98.962 230.85C99.1714 230.846 99.3394 230.895 99.3481 230.952Z"
            fill="#263238" />
        <path
            d="M115.157 231.232V227.755L108.723 227.71L108.669 232.917L109.067 232.945C110.843 233.055 118.103 233.27 119.291 232.912C120.617 232.513 115.157 231.232 115.157 231.232Z"
            fill="#FAB71C" />
        <path
            d="M119.442 232.595C119.442 232.652 117.037 232.701 114.066 232.701C111.095 232.701 108.694 232.652 108.694 232.595C108.694 232.538 111.099 232.49 114.066 232.49C117.033 232.49 119.442 232.538 119.442 232.595Z"
            fill="#263238" />
        <path
            d="M115.271 231.944C115.22 231.916 115.271 231.733 115.401 231.537C115.531 231.342 115.707 231.261 115.749 231.301C115.791 231.342 115.703 231.497 115.577 231.664C115.451 231.83 115.325 231.973 115.271 231.944Z"
            fill="#263238" />
        <path
            d="M115.682 232.172C115.627 232.172 115.653 231.944 115.783 231.728C115.913 231.513 116.077 231.383 116.123 231.416C116.169 231.448 116.089 231.631 115.971 231.822C115.854 232.013 115.741 232.192 115.682 232.172Z"
            fill="#263238" />
        <path
            d="M110.629 232.57C110.604 232.57 110.512 232.497 110.369 232.343C110.2 232.144 110.011 231.962 109.806 231.798C109.605 231.642 109.365 231.539 109.109 231.501C108.917 231.476 108.787 231.501 108.774 231.476C108.761 231.452 108.883 231.367 109.114 231.35C109.419 231.344 109.715 231.442 109.953 231.627C110.177 231.801 110.365 232.015 110.508 232.258C110.604 232.437 110.654 232.554 110.629 232.57Z"
            fill="#263238" />
        <path
            d="M115.291 231.289C115.321 231.338 115.212 231.46 115.027 231.526C114.843 231.59 114.679 231.566 114.67 231.526C114.662 231.485 114.792 231.399 114.951 231.342C115.111 231.285 115.258 231.241 115.291 231.289Z"
            fill="#263238" />
        <path
            d="M115.199 230.952C115.199 231.013 115.031 231.062 114.813 231.066C114.595 231.07 114.427 231.021 114.431 230.964C114.435 230.907 114.603 230.854 114.813 230.85C115.023 230.846 115.199 230.895 115.199 230.952Z"
            fill="#263238" />
        <path
            d="M138.861 127.955C138.693 127.789 138.277 127.87 138.277 127.87C138.319 127.636 138.319 127.396 138.277 127.163C138.202 126.934 137.673 126.979 137.673 126.979C137.649 126.787 137.649 126.593 137.673 126.401C137.677 126.359 137.668 126.316 137.646 126.279C137.624 126.242 137.591 126.213 137.551 126.194C137.301 126.095 137.033 126.048 136.762 126.056C136.439 125.832 137.749 124.055 138.235 123.485C138.722 122.915 138.634 122.472 138.202 122.472C137.904 122.472 136.376 124.181 135.906 124.754C135.436 125.328 134.19 126.922 134.148 125.649C134.106 124.376 133.577 123.416 133.245 123.253C132.914 123.091 132.561 123.473 132.742 123.827C132.9 124.229 132.999 124.651 133.035 125.079C133.081 125.421 133.065 125.768 132.989 126.105C132.85 126.731 132.661 127.345 132.423 127.943H132.389C132.389 127.943 123.232 136.457 122.569 137.063C121.977 137.608 110.075 136.416 107.687 136.172C106.875 136.057 106.056 136.002 105.236 136.01C104.199 136.054 104.015 136.196 102.982 136.209C100.375 136.237 97.774 136.459 95.2013 136.872C94.0367 137.063 92.9487 137.562 92.056 138.312C91.1633 139.063 90.5007 140.036 90.14 141.126C87.7353 148.407 82.288 165.642 81.3267 175.323C80.6007 176.599 79.9447 177.912 79.3627 179.256C78.6867 181.038 78.8507 181.099 79.0773 181.14C79.69 181.249 80.3867 178.052 80.6467 178.825C80.9073 179.598 79.3247 182.637 79.9673 182.726C80.8067 182.84 81.4733 179.472 81.5533 179.203C81.6333 178.935 82.0487 179.02 81.9733 179.272C81.8513 179.63 80.672 183.426 81.4947 183.548C81.948 183.612 81.998 182.811 81.998 182.811C81.998 182.811 82.8373 179.179 83.2193 179.252C83.6013 179.325 83.1947 181.469 83.0013 182.185C82.808 182.901 83.0767 183.263 83.4713 183.088C83.74 182.966 84.382 180.79 84.558 180.082C84.7347 179.374 85.1753 177.414 85.7667 178.549C86.3587 179.683 87.2567 180.342 87.626 180.358C87.7093 180.349 87.788 180.316 87.8513 180.263C87.9147 180.21 87.9607 180.14 87.9827 180.062C88.0053 179.984 88.0027 179.901 87.9753 179.824C87.9487 179.747 87.8987 179.679 87.832 179.63C87.514 179.33 87.2413 178.987 87.022 178.614C86.826 178.322 86.684 178 86.602 177.662C86.4333 176.987 86.3347 176.297 86.3087 175.603L86.2413 175.197C87.1813 170.686 89.888 157.445 93.7953 148.989L95.3987 152.186L96.0953 154.554L91.8227 164.775L110.045 164.544L107.326 154.399L110.629 143.823C114.2 143.9 123.37 144.031 124.898 143.359C126.82 142.546 136.762 130.376 136.762 130.376C137.411 129.887 138.031 129.367 138.621 128.813C138.621 128.813 139.226 128.322 138.861 127.955Z"
            fill="#FFBE9D" />
        <path
            d="M91.0213 157.222C91.55 155.473 94.2653 146.826 94.2653 146.826C94.2653 146.826 95.6 153.875 95.2474 154.725C94.9234 155.452 94.54 156.154 94.102 156.824C91.0213 161.367 91.424 163.641 91.424 163.641L110.037 163.092C110.079 160.57 108.539 154.704 108.22 153.769C107.901 152.834 108.963 149.77 108.963 149.77C108.963 149.77 111.061 147.7 110.985 146.634C110.946 145.677 110.823 144.724 110.621 143.787L121.952 144.194L121.595 136.75L105.32 135.172C104.753 136.721 99.6293 135.961 99.6293 135.961C94.0973 136.14 93.7533 137.125 91.454 138.857C89.154 140.59 85.3474 155.461 85.3474 155.461L91.0213 157.222Z"
            fill="#FAB71C" />
        <path
            d="M102.025 155.461C101.703 155.517 101.375 155.533 101.047 155.51C100.439 155.51 99.604 155.469 98.6847 155.379C97.766 155.29 96.9347 155.164 96.3427 155.05C96.0167 155.009 95.6967 154.93 95.39 154.814C95.7187 154.815 96.046 154.844 96.368 154.904C96.964 154.977 97.7907 155.079 98.706 155.168C99.6207 155.258 100.451 155.319 101.052 155.359C101.379 155.363 101.705 155.397 102.025 155.461Z"
            fill="#263238" />
        <path
            d="M103.301 153.927C102.979 154.08 102.637 154.194 102.285 154.265C100.611 154.692 98.884 154.89 97.1527 154.854C96.7947 154.866 96.4367 154.833 96.0867 154.757C96.4407 154.714 96.7967 154.696 97.1527 154.704C97.812 154.684 98.718 154.639 99.7173 154.525C100.716 154.411 101.606 154.248 102.235 154.119C102.585 154.028 102.941 153.964 103.301 153.927Z"
            fill="#263238" />
        <path
            d="M109.563 147.086C109.555 147.395 109.511 147.704 109.433 148.005C109.324 148.57 109.156 149.343 108.942 150.189C108.728 151.035 108.522 151.816 108.337 152.345C108.263 152.648 108.153 152.941 108.01 153.22C108.033 152.91 108.093 152.605 108.187 152.309C108.346 151.674 108.526 150.941 108.728 150.14C108.929 149.339 109.122 148.607 109.282 147.972C109.339 147.667 109.433 147.369 109.563 147.086Z"
            fill="#263238" />
        <path
            d="M91.2195 156.185C90.2487 156.04 89.2899 155.823 88.3524 155.538C87.3949 155.321 86.4548 155.036 85.5406 154.684C86.5108 154.832 87.4689 155.048 88.4071 155.331C89.3652 155.547 90.3054 155.833 91.2195 156.185Z"
            fill="#263238" />
        <path
            d="M110.823 143.697C110.664 143.724 110.503 143.724 110.344 143.697C109.906 143.654 109.475 143.554 109.064 143.4C108.377 143.15 107.752 142.764 107.229 142.266C106.706 141.767 106.295 141.169 106.025 140.508C105.726 139.781 105.599 138.999 105.651 138.218C105.67 137.574 105.869 136.947 106.227 136.404C106.478 136.038 106.854 135.769 107.288 135.643C107.405 135.612 107.525 135.597 107.645 135.599C107.729 135.599 107.771 135.599 107.771 135.599C107.771 135.599 107.595 135.599 107.314 135.709C106.915 135.851 106.577 136.119 106.353 136.469C105.781 137.339 105.622 138.93 106.231 140.414C106.514 141.115 106.958 141.744 107.528 142.253C107.995 142.671 108.533 143.006 109.119 143.246C109.668 143.456 110.239 143.608 110.823 143.697Z"
            fill="#263238" />
        <path
            d="M120.605 144.047C120.499 142.8 120.466 141.548 120.504 140.297C120.471 139.046 120.51 137.796 120.621 136.55C120.727 137.796 120.76 139.047 120.722 140.297C120.757 141.548 120.718 142.8 120.605 144.047Z"
            fill="#263238" />
        <path
            d="M105.211 135.627C105.257 134.72 105.353 133.695 105.353 133.695C105.353 133.695 107.67 133.447 107.809 131.128C107.947 128.81 107.809 123.461 107.809 123.461L103.612 121.378L98.9533 124.93L99.6706 136.522L103.943 136.786C104.27 136.795 104.587 136.678 104.824 136.461C105.062 136.244 105.201 135.944 105.211 135.627Z"
            fill="#FFBE9D" />
        <path
            d="M105.626 129.294C105.626 129.294 105.626 129.339 105.589 129.391C105.557 129.43 105.517 129.461 105.471 129.481C105.425 129.5 105.375 129.509 105.324 129.506C105.055 129.506 104.795 129.205 104.703 128.854C104.659 128.685 104.659 128.507 104.703 128.338C104.711 128.264 104.739 128.193 104.783 128.132C104.827 128.071 104.886 128.022 104.955 127.989C105.011 127.966 105.075 127.966 105.131 127.989C105.173 128.009 105.207 128.042 105.227 128.082C105.257 128.151 105.227 128.196 105.227 128.192C105.227 128.188 105.227 128.151 105.185 128.11C105.164 128.081 105.131 128.061 105.095 128.053C105.059 128.046 105.021 128.052 104.989 128.069C104.937 128.1 104.894 128.142 104.864 128.193C104.834 128.243 104.817 128.3 104.816 128.358C104.781 128.51 104.781 128.667 104.816 128.818C104.9 129.136 105.127 129.391 105.328 129.416C105.368 129.421 105.408 129.419 105.446 129.408C105.485 129.397 105.52 129.38 105.551 129.355C105.601 129.322 105.618 129.29 105.626 129.294Z"
            fill="#EB996E" />
        <path
            d="M109.248 122.208C108.925 121.143 107.754 120.613 106.688 120.321C105.064 119.874 103.31 119.678 101.723 120.243C100.137 120.809 98.2313 121.802 98.2313 123.498C97.2953 123.424 96.7587 124.218 96.3893 125.202C96.1533 125.801 96.0113 126.433 95.9693 127.073C95.852 129.294 95.21 132.361 93.724 133.988C92.8847 134.895 91.722 135.521 91.244 136.652C90.824 137.632 91.0427 138.796 90.652 139.788C90.304 140.663 89.536 141.286 88.9733 142.046C88.4007 142.909 88.0633 143.899 87.9933 144.923C87.924 145.947 88.124 146.971 88.5747 147.9C89.0287 148.804 89.668 149.609 90.454 150.267C91.24 150.924 92.1553 151.42 93.1453 151.723C95.1053 152.301 97.196 152.32 99.1674 151.78C100.647 151.437 102.027 150.774 103.205 149.839C104.409 148.886 105.237 147.558 105.547 146.081C105.845 144.421 105.366 142.734 105.009 141.082C103.893 135.863 104.212 135.59 105.622 130.746C105.656 130.661 105.673 130.571 105.697 130.486C105.723 130.401 105.735 130.36 105.752 130.295C105.792 130.103 105.813 129.908 105.815 129.713C105.609 129.787 105.385 129.803 105.171 129.758C104.956 129.714 104.759 129.61 104.602 129.46C104.445 129.302 104.336 129.104 104.286 128.889C104.236 128.674 104.247 128.45 104.317 128.241C104.416 128.011 104.563 127.805 104.75 127.635C104.937 127.465 105.158 127.334 105.4 127.252C105.865 127.065 106.365 126.967 106.823 126.76C107.792 126.312 108.463 125.385 108.921 124.413C109.297 123.739 109.413 122.958 109.248 122.208Z"
            fill="#263238" />
        <path
            d="M105.794 129.403C105.883 129.531 105.956 129.667 106.013 129.81C106.138 130.066 106.306 130.429 106.491 130.847L106.525 130.925H106.436L106.017 130.961C105.727 130.961 105.483 131.014 105.198 131.01C105.173 131.004 105.151 130.993 105.131 130.977C105.112 130.961 105.098 130.94 105.089 130.917C105.077 130.88 105.077 130.84 105.089 130.803C105.099 130.748 105.111 130.694 105.127 130.64L105.203 130.351C105.241 130.159 105.299 129.971 105.379 129.79C105.371 129.986 105.341 130.181 105.291 130.372L105.232 130.66C105.211 130.758 105.173 130.909 105.232 130.897C105.441 130.897 105.739 130.851 106.017 130.835L106.436 130.799L106.382 130.888C106.202 130.482 106.05 130.099 105.962 129.835C105.885 129.7 105.828 129.555 105.794 129.403Z"
            fill="#FAB71C" />
        <path
            d="M91.424 163.641L110.037 163.092L118.137 193.737L116.647 228.889H106.805L108.01 194.485L100.813 173.151L101.921 230.252L91.974 230.395L90.9287 176.722C90.8827 175.23 90.3794 171.866 90.568 170.385L91.424 163.641Z"
            fill="#263238" />
        <path
            d="M103.29 173.586C102.985 173.605 102.679 173.587 102.379 173.533C101.816 173.468 101.048 173.354 100.204 173.192C99.361 173.029 98.6049 172.842 98.0594 172.691C97.7681 172.629 97.4853 172.531 97.22 172.399C97.22 172.337 98.5882 172.655 100.267 172.984C101.946 173.314 103.298 173.525 103.29 173.586Z"
            fill="#455A64" />
        <path
            d="M116.546 226.961C116.546 227.018 114.318 227.067 111.569 227.067C108.82 227.067 106.587 227.018 106.587 226.961C106.587 226.904 108.816 226.856 111.569 226.856C114.322 226.856 116.546 226.901 116.546 226.961Z"
            fill="#455A64" />
        <path
            d="M101.833 228.767C101.833 228.828 99.6667 228.873 96.998 228.873C94.3287 228.873 92.1674 228.828 92.1674 228.767C92.1674 228.706 94.3327 228.662 96.998 228.662C99.6627 228.662 101.833 228.71 101.833 228.767Z"
            fill="#455A64" />
        <path
            d="M100.548 228.621C100.489 228.621 100.229 216.145 99.9647 200.758C99.7 185.37 99.5453 172.887 99.5993 172.887C99.654 172.887 99.9227 185.358 100.183 200.754C100.443 216.15 100.611 228.621 100.548 228.621Z"
            fill="#455A64" />
        <path
            d="M115.225 226.961C115.22 226.905 115.22 226.85 115.225 226.794V226.306C115.225 225.867 115.258 225.236 115.283 224.435C115.342 222.808 115.426 220.445 115.531 217.549C115.757 211.724 116.076 203.695 116.425 194.831C116.425 194.745 116.425 194.664 116.425 194.591V194.619C114.221 186.077 112.228 178.325 110.78 172.716L109.101 166.081C108.908 165.304 108.761 164.698 108.657 164.275C108.606 164.076 108.573 163.921 108.543 163.803C108.527 163.75 108.517 163.696 108.514 163.641C108.535 163.692 108.552 163.745 108.564 163.799C108.597 163.913 108.639 164.068 108.698 164.263C108.811 164.67 108.975 165.288 109.185 166.061C109.605 167.631 110.197 169.893 110.935 172.679C112.396 178.284 114.41 186.017 116.643 194.571V194.599C116.643 194.672 116.643 194.758 116.643 194.839C116.269 203.702 115.929 211.728 115.682 217.553C115.552 220.453 115.443 222.8 115.367 224.435C115.325 225.249 115.291 225.867 115.271 226.306C115.271 226.514 115.245 226.677 115.241 226.794C115.242 226.85 115.236 226.906 115.225 226.961Z"
            fill="#455A64" />
        <path
            d="M112.015 193.875C111.307 194.101 110.579 194.257 109.84 194.343C108.934 194.494 108.161 194.6 107.813 194.616V194.535C107.926 194.567 107.985 194.588 107.985 194.604C107.985 194.62 107.913 194.604 107.796 194.604H107.544L107.796 194.531C108.123 194.437 108.896 194.283 109.802 194.124C110.53 193.971 111.271 193.888 112.015 193.875Z"
            fill="#455A64" />
        <path
            d="M111.843 195.043C111.188 195.072 110.532 195.043 109.882 194.957C109.226 194.945 108.573 194.875 107.931 194.75C109.242 194.646 110.562 194.745 111.843 195.043Z"
            fill="#455A64" />
        <path opacity="0.2"
            d="M91.3447 164.288C91.5647 164.562 91.8427 164.789 92.1593 164.951C92.476 165.115 92.8247 165.212 93.1827 165.236C93.9327 165.322 94.6907 165.308 95.4367 165.195C100.242 164.678 105.333 164.203 110.037 163.092C103.947 163.421 97.514 163.311 91.424 163.641L91.3613 164.146"
            fill="black" />
        <g opacity="0.2">
            <path d="M97.6187 172.606L101.053 185.517L100.813 173.151L97.6187 172.606Z" fill="black" />
        </g>
        <path
            d="M31 265.566C31 263.782 32.4924 262.335 34.3333 262.335H225.667C227.507 262.335 229 263.782 229 265.566V291.412C229 293.196 227.507 294.642 225.667 294.642H34.3333C32.4924 294.642 31 293.196 31 291.412V265.566Z"
            fill="white" />
        <path
            d="M45.0378 281.073V275.434H48.5265V276.04H45.7424V277.945H48.2651V278.551H45.7424V281.073H45.0378ZM52.1188 279.344V276.844H52.7892V281.073H52.1188V280.357H52.0734C51.9711 280.572 51.812 280.754 51.5961 280.905C51.3802 281.054 51.1074 281.128 50.7779 281.128C50.5052 281.128 50.2628 281.07 50.0506 280.955C49.8385 280.837 49.6718 280.661 49.5506 280.426C49.4294 280.189 49.3688 279.891 49.3688 279.531V276.844H50.0392V279.487C50.0392 279.796 50.1283 280.041 50.3063 280.225C50.4862 280.409 50.7154 280.501 50.9938 280.501C51.1605 280.501 51.33 280.459 51.5024 280.376C51.6766 280.294 51.8224 280.167 51.9398 279.997C52.0592 279.826 52.1188 279.608 52.1188 279.344ZM54.6877 275.434V281.073H54.0172V275.434H54.6877ZM56.5862 275.434V281.073H55.9157V275.434H56.5862ZM60.7346 278.528V281.073H60.0641V276.844H60.7118V277.504H60.7687C60.871 277.29 61.0262 277.117 61.2346 276.987C61.4429 276.855 61.7118 276.788 62.0414 276.788C62.3368 276.788 62.5954 276.847 62.817 276.965C63.0386 277.08 63.2109 277.257 63.334 277.493C63.4571 277.729 63.5187 278.026 63.5187 278.386V281.073H62.8482V278.43C62.8482 278.097 62.7592 277.838 62.5812 277.653C62.4032 277.466 62.1588 277.373 61.8482 277.373C61.6342 277.373 61.4429 277.417 61.2744 277.508C61.1077 277.597 60.976 277.729 60.8794 277.901C60.7829 278.074 60.7346 278.283 60.7346 278.528ZM66.0279 281.172C65.7514 281.172 65.5004 281.121 65.275 281.021C65.0497 280.918 64.8707 280.77 64.7381 280.577C64.6056 280.383 64.5392 280.148 64.5392 279.872C64.5392 279.63 64.5885 279.434 64.687 279.283C64.7855 279.131 64.9171 279.012 65.0819 278.925C65.2466 278.839 65.4285 278.775 65.6274 278.733C65.8281 278.689 66.0298 278.654 66.2324 278.628C66.4976 278.595 66.7126 278.57 66.8774 278.554C67.044 278.535 67.1652 278.505 67.241 278.463C67.3186 278.421 67.3574 278.347 67.3574 278.242V278.22C67.3574 277.949 67.2808 277.738 67.1274 277.587C66.9758 277.436 66.7457 277.362 66.437 277.362C66.1169 277.362 65.866 277.429 65.6842 277.565C65.5024 277.701 65.3745 277.846 65.3006 278L64.6642 277.78C64.7779 277.523 64.9294 277.323 65.1188 277.179C65.3101 277.035 65.5184 276.934 65.7438 276.877C65.9711 276.818 66.1946 276.788 66.4142 276.788C66.5544 276.788 66.7154 276.805 66.8972 276.838C67.0809 276.869 67.258 276.934 67.4285 277.034C67.6008 277.133 67.7438 277.283 67.8574 277.482C67.9711 277.683 68.0279 277.951 68.0279 278.287V281.073H67.3574V280.501H67.3234C67.2779 280.592 67.2022 280.69 67.0961 280.795C66.99 280.9 66.8489 280.988 66.6728 281.062C66.4966 281.136 66.2817 281.172 66.0279 281.172ZM66.1302 280.588C66.3953 280.588 66.6188 280.538 66.8006 280.437C66.9844 280.336 67.1226 280.206 67.2154 280.046C67.3101 279.886 67.3574 279.718 67.3574 279.542V278.947C67.329 278.98 67.2666 279.01 67.17 279.038C67.0752 279.064 66.9654 279.087 66.8404 279.107C66.7173 279.126 66.597 279.142 66.4796 279.157C66.3641 279.169 66.2703 279.18 66.1984 279.189C66.0241 279.211 65.8612 279.248 65.7097 279.297C65.5601 279.345 65.4389 279.417 65.3461 279.514C65.2552 279.61 65.2097 279.74 65.2097 279.905C65.2097 280.132 65.2959 280.302 65.4682 280.418C65.6425 280.532 65.8631 280.588 66.1302 280.588ZM69.2516 281.073V276.844H69.8994V277.504H69.9562C70.0471 277.279 70.1938 277.104 70.3965 276.978C70.5992 276.852 70.8425 276.788 71.1266 276.788C71.4145 276.788 71.6541 276.852 71.8453 276.978C72.0386 277.104 72.1893 277.279 72.2973 277.504H72.3426C72.454 277.286 72.622 277.113 72.8453 276.984C73.0686 276.854 73.3366 276.788 73.6493 276.788C74.0393 276.788 74.3586 276.907 74.6066 277.144C74.8546 277.379 74.9786 277.745 74.9786 278.242V281.073H74.3086V278.242C74.3086 277.93 74.2206 277.707 74.044 277.573C73.868 277.439 73.6606 277.373 73.422 277.373C73.1153 277.373 72.8773 277.462 72.7093 277.642C72.5406 277.82 72.456 278.046 72.456 278.32V281.073H71.7746V278.176C71.7746 277.936 71.694 277.742 71.5329 277.595C71.3719 277.447 71.1645 277.373 70.9107 277.373C70.7365 277.373 70.5736 277.417 70.4221 277.508C70.2724 277.597 70.1512 277.722 70.0584 277.882C69.9675 278.039 69.9221 278.222 69.9221 278.43V281.073H69.2516ZM78.034 281.161C77.614 281.161 77.2513 281.071 76.946 280.891C76.6433 280.71 76.4093 280.456 76.2446 280.132C76.082 279.805 76 279.425 76 278.991C76 278.558 76.082 278.176 76.2446 277.846C76.4093 277.513 76.6386 277.255 76.932 277.069C77.2273 276.882 77.572 276.788 77.966 276.788C78.1933 276.788 78.418 276.825 78.6393 276.899C78.8613 276.972 79.0626 277.091 79.2446 277.257C79.4266 277.42 79.5713 277.637 79.6793 277.906C79.7873 278.176 79.8413 278.508 79.8413 278.903V279.178H76.4773V278.617H79.1593C79.1593 278.379 79.11 278.165 79.0113 277.978C78.9153 277.791 78.7766 277.643 78.5966 277.535C78.4186 277.427 78.2086 277.373 77.966 277.373C77.6993 277.373 77.468 277.436 77.2726 277.565C77.08 277.692 76.9313 277.857 76.8266 278.061C76.7226 278.264 76.6706 278.483 76.6706 278.716V279.091C76.6706 279.41 76.7273 279.681 76.8413 279.903C76.9566 280.123 77.1166 280.291 77.3213 280.407C77.526 280.521 77.7633 280.577 78.034 280.577C78.2106 280.577 78.3693 280.553 78.5113 280.506C78.6553 280.456 78.7793 280.383 78.884 280.285C78.988 280.186 79.0686 280.063 79.1253 279.916L79.7726 280.093C79.7046 280.305 79.59 280.493 79.4293 280.654C79.268 280.814 79.0693 280.939 78.8326 281.029C78.596 281.117 78.33 281.161 78.034 281.161Z"
            fill="#423636" />
        <path
            d="M31 314.673C31 312.889 32.4924 311.442 34.3333 311.442H225.667C227.507 311.442 229 312.889 229 314.673V340.518C229 342.302 227.507 343.749 225.667 343.749H34.3333C32.4924 343.749 31 342.302 31 340.518V314.673Z"
            fill="white" />
        <path
            d="M45.0378 330.18V324.541H48.5492V325.147H45.7424V327.052H48.3674V327.658H45.7424V329.574H48.5946V330.18H45.0378ZM49.7282 330.18V325.951H50.3759V326.611H50.4327C50.5236 326.386 50.6704 326.211 50.8731 326.085C51.0757 325.959 51.3191 325.895 51.6032 325.895C51.891 325.895 52.1306 325.959 52.322 326.085C52.5151 326.211 52.6657 326.386 52.7736 326.611H52.8191C52.9308 326.393 53.0984 326.22 53.322 326.091C53.5454 325.961 53.8134 325.895 54.1259 325.895C54.516 325.895 54.8352 326.014 55.0833 326.251C55.3314 326.486 55.4554 326.852 55.4554 327.349V330.18H54.785V327.349C54.785 327.037 54.697 326.814 54.5208 326.681C54.3446 326.546 54.1373 326.48 53.8986 326.48C53.5918 326.48 53.3542 326.569 53.1856 326.749C53.017 326.927 52.9327 327.153 52.9327 327.427V330.18H52.2509V327.283C52.2509 327.043 52.1704 326.849 52.0094 326.703C51.8484 326.554 51.641 326.48 51.3873 326.48C51.213 326.48 51.0502 326.524 50.8986 326.615C50.749 326.704 50.6278 326.829 50.535 326.989C50.4441 327.146 50.3986 327.329 50.3986 327.537V330.18H49.7282ZM57.9654 330.279C57.6889 330.279 57.438 330.229 57.2126 330.128C56.9872 330.025 56.8082 329.877 56.6756 329.684C56.543 329.49 56.4768 329.255 56.4768 328.98C56.4768 328.737 56.526 328.541 56.6245 328.39C56.723 328.238 56.8546 328.119 57.0194 328.032C57.1842 327.946 57.366 327.882 57.5648 327.84C57.7656 327.796 57.9673 327.761 58.17 327.735C58.4351 327.702 58.65 327.677 58.8148 327.661C58.9815 327.642 59.1027 327.612 59.1785 327.57C59.2561 327.528 59.295 327.454 59.295 327.349V327.327C59.295 327.056 59.2182 326.845 59.0648 326.694C58.9133 326.544 58.6832 326.469 58.3745 326.469C58.0544 326.469 57.8035 326.536 57.6216 326.672C57.4398 326.808 57.312 326.953 57.2381 327.107L56.6018 326.887C56.7154 326.63 56.8669 326.43 57.0563 326.286C57.2476 326.142 57.4559 326.041 57.6813 325.984C57.9086 325.925 58.1321 325.895 58.3518 325.895C58.4919 325.895 58.6529 325.912 58.8347 325.945C59.0184 325.976 59.1955 326.041 59.366 326.141C59.5383 326.24 59.6813 326.39 59.795 326.589C59.9086 326.79 59.9654 327.058 59.9654 327.394V330.18H59.295V329.608H59.2608C59.2154 329.699 59.1396 329.798 59.0336 329.902C58.9275 330.007 58.7864 330.095 58.6103 330.169C58.4342 330.243 58.2192 330.279 57.9654 330.279ZM58.0677 329.695C58.3328 329.695 58.5563 329.645 58.7381 329.544C58.9218 329.443 59.0601 329.313 59.1529 329.153C59.2476 328.993 59.295 328.825 59.295 328.649V328.054C59.2666 328.087 59.204 328.118 59.1074 328.145C59.0128 328.171 58.9029 328.194 58.7779 328.214C58.6548 328.233 58.5345 328.249 58.4171 328.264C58.3016 328.277 58.2078 328.287 58.1358 328.297C57.9616 328.319 57.7988 328.355 57.6472 328.404C57.4976 328.452 57.3764 328.524 57.2836 328.622C57.1927 328.717 57.1472 328.847 57.1472 329.012C57.1472 329.239 57.2334 329.409 57.4058 329.525C57.58 329.639 57.8006 329.695 58.0677 329.695ZM61.1891 330.18V325.951H61.8596V330.18H61.1891ZM61.53 325.246C61.3994 325.246 61.2866 325.203 61.192 325.116C61.0992 325.03 61.0528 324.926 61.0528 324.805C61.0528 324.684 61.0992 324.581 61.192 324.494C61.2866 324.408 61.3994 324.365 61.53 324.365C61.6607 324.365 61.7724 324.408 61.8652 324.494C61.96 324.581 62.0073 324.684 62.0073 324.805C62.0073 324.926 61.96 325.03 61.8652 325.116C61.7724 325.203 61.6607 325.246 61.53 325.246ZM63.758 324.541V330.18H63.0876V324.541H63.758Z"
            fill="#423636" />
        <path
            d="M31 363.78C31 361.996 32.4924 360.549 34.3333 360.549H225.667C227.507 360.549 229 361.996 229 363.78V389.625C229 391.409 227.507 392.856 225.667 392.856H34.3333C32.4924 392.856 31 391.409 31 389.625V363.78Z"
            fill="white" />
        <path
            d="M31 412.887C31 411.103 32.4924 409.656 34.3333 409.656H225.667C227.507 409.656 229 411.103 229 412.887V438.733C229 440.517 227.507 441.964 225.667 441.964H34.3333C32.4924 441.964 31 440.517 31 438.733V412.887Z"
            fill="white" />
        <path
            d="M45.0378 379.287V373.648H47.0038C47.4602 373.648 47.8333 373.728 48.1231 373.888C48.4148 374.046 48.6306 374.26 48.7708 374.529C48.911 374.799 48.981 375.1 48.981 375.432C48.981 375.765 48.911 376.067 48.7708 376.338C48.6326 376.61 48.4185 376.827 48.1288 376.988C47.839 377.148 47.4678 377.227 47.0151 377.227H45.606V376.622H46.9924C47.3049 376.622 47.5558 376.57 47.7452 376.465C47.9346 376.36 48.072 376.219 48.1572 376.041C48.2443 375.861 48.2878 375.659 48.2878 375.432C48.2878 375.207 48.2443 375.005 48.1572 374.827C48.072 374.649 47.9337 374.509 47.7424 374.408C47.5511 374.306 47.2973 374.254 46.981 374.254H45.7424V379.287H45.0378ZM50.6955 376.743V379.287H50.025V373.648H50.6955V375.719H50.7524C50.8546 375.5 51.008 375.327 51.2126 375.199C51.419 375.068 51.6936 375.003 52.0364 375.003C52.3338 375.003 52.5942 375.061 52.8177 375.177C53.0412 375.29 53.2144 375.465 53.3376 375.703C53.4626 375.937 53.525 376.236 53.525 376.6V379.287H52.8546V376.644C52.8546 376.308 52.7646 376.048 52.5847 375.865C52.4067 375.679 52.1595 375.587 51.8432 375.587C51.6236 375.587 51.4266 375.631 51.2524 375.722C51.08 375.812 50.9436 375.943 50.8432 376.115C50.7448 376.288 50.6955 376.497 50.6955 376.743ZM56.5244 379.375C56.1304 379.375 55.7848 379.285 55.4874 379.103C55.192 378.921 54.9609 378.667 54.7942 378.34C54.6294 378.013 54.5471 377.631 54.5471 377.194C54.5471 376.754 54.6294 376.369 54.7942 376.041C54.9609 375.712 55.192 375.457 55.4874 375.275C55.7848 375.094 56.1304 375.003 56.5244 375.003C56.9183 375.003 57.263 375.094 57.5584 375.275C57.8558 375.457 58.0868 375.712 58.2516 376.041C58.4183 376.369 58.5016 376.754 58.5016 377.194C58.5016 377.631 58.4183 378.013 58.2516 378.34C58.0868 378.667 57.8558 378.921 57.5584 379.103C57.263 379.285 56.9183 379.375 56.5244 379.375ZM56.5244 378.792C56.8236 378.792 57.0698 378.717 57.263 378.569C57.4562 378.42 57.5992 378.224 57.692 377.982C57.7848 377.74 57.8312 377.477 57.8312 377.194C57.8312 376.912 57.7848 376.648 57.692 376.404C57.5992 376.161 57.4562 375.963 57.263 375.812C57.0698 375.662 56.8236 375.587 56.5244 375.587C56.2251 375.587 55.9789 375.662 55.7857 375.812C55.5925 375.963 55.4496 376.161 55.3568 376.404C55.264 376.648 55.2175 376.912 55.2175 377.194C55.2175 377.477 55.264 377.74 55.3568 377.982C55.4496 378.224 55.5925 378.42 55.7857 378.569C55.9789 378.717 56.2251 378.792 56.5244 378.792ZM60.1955 376.743V379.287H59.525V375.058H60.1728V375.719H60.2296C60.3319 375.504 60.4872 375.332 60.6955 375.201C60.9038 375.069 61.1728 375.003 61.5024 375.003C61.7978 375.003 62.0563 375.062 62.2779 375.179C62.4995 375.295 62.6718 375.471 62.795 375.708C62.918 375.943 62.9796 376.24 62.9796 376.6V379.287H62.3092V376.644C62.3092 376.312 62.2202 376.053 62.0421 375.867C61.8641 375.681 61.6198 375.587 61.3092 375.587C61.0952 375.587 60.9038 375.631 60.7353 375.722C60.5686 375.812 60.437 375.943 60.3404 376.115C60.2438 376.288 60.1955 376.497 60.1955 376.743ZM66.0343 379.375C65.6138 379.375 65.2512 379.285 64.9462 379.106C64.6432 378.924 64.4093 378.67 64.2445 378.346C64.0816 378.019 64.0002 377.639 64.0002 377.205C64.0002 376.773 64.0816 376.391 64.2445 376.06C64.4093 375.728 64.6384 375.469 64.932 375.284C65.2275 375.096 65.5722 375.003 65.9661 375.003C66.1934 375.003 66.4178 375.04 66.6394 375.113C66.861 375.186 67.0627 375.306 67.2445 375.471C67.4264 375.635 67.5712 375.851 67.6792 376.121C67.7872 376.391 67.8411 376.723 67.8411 377.118V377.393H64.4775V376.831H67.1593C67.1593 376.593 67.11 376.38 67.0116 376.192C66.915 376.005 66.7767 375.858 66.5968 375.749C66.4188 375.641 66.2086 375.587 65.9661 375.587C65.6991 375.587 65.468 375.651 65.2729 375.779C65.0798 375.906 64.9311 376.071 64.8269 376.275C64.7228 376.479 64.6706 376.697 64.6706 376.93V377.305C64.6706 377.624 64.7275 377.895 64.8411 378.117C64.9566 378.338 65.1167 378.506 65.3212 378.621C65.5258 378.735 65.7634 378.792 66.0343 378.792C66.2104 378.792 66.3695 378.768 66.5116 378.72C66.6555 378.67 66.7796 378.597 66.8837 378.5C66.9879 378.401 67.0684 378.277 67.1252 378.131L67.7729 378.307C67.7048 378.52 67.5902 378.707 67.4292 378.869C67.2682 379.028 67.0693 379.154 66.8326 379.243C66.5958 379.331 66.3298 379.375 66.0343 379.375ZM71.7813 376.743V379.287H71.111V375.058H71.7586V375.719H71.8153C71.918 375.504 72.0733 375.332 72.2813 375.201C72.49 375.069 72.7586 375.003 73.088 375.003C73.384 375.003 73.642 375.062 73.864 375.179C74.0853 375.295 74.258 375.471 74.3806 375.708C74.504 375.943 74.5653 376.24 74.5653 376.6V379.287H73.8953V376.644C73.8953 376.312 73.806 376.053 73.628 375.867C73.45 375.681 73.206 375.587 72.8953 375.587C72.6813 375.587 72.49 375.631 72.3213 375.722C72.1546 375.812 72.0226 375.943 71.9266 376.115C71.83 376.288 71.7813 376.497 71.7813 376.743ZM78.5406 377.558V375.058H79.2113V379.287H78.5406V378.571H78.4953C78.3926 378.786 78.234 378.969 78.018 379.119C77.802 379.268 77.5293 379.342 77.2 379.342C76.9273 379.342 76.6846 379.285 76.4726 379.169C76.2606 379.052 76.094 378.875 75.9726 378.641C75.8513 378.403 75.7906 378.105 75.7906 377.746V375.058H76.4613V377.701C76.4613 378.01 76.55 378.255 76.728 378.44C76.908 378.623 77.1373 378.715 77.416 378.715C77.5826 378.715 77.752 378.674 77.924 378.591C78.0986 378.508 78.244 378.381 78.362 378.211C78.4813 378.04 78.5406 377.823 78.5406 377.558ZM80.4393 379.287V375.058H81.0866V375.719H81.144C81.2346 375.493 81.3813 375.318 81.584 375.193C81.7866 375.066 82.03 375.003 82.314 375.003C82.602 375.003 82.8413 375.066 83.0326 375.193C83.226 375.318 83.3766 375.493 83.4846 375.719H83.53C83.642 375.5 83.8093 375.327 84.0326 375.199C84.2566 375.068 84.5246 375.003 84.8366 375.003C85.2273 375.003 85.546 375.122 85.794 375.358C86.0426 375.593 86.1666 375.959 86.1666 376.457V379.287H85.496V376.457C85.496 376.145 85.408 375.922 85.232 375.788C85.0553 375.653 84.848 375.587 84.6093 375.587C84.3026 375.587 84.0653 375.677 83.8966 375.856C83.728 376.035 83.644 376.26 83.644 376.534V379.287H82.962V376.391C82.962 376.15 82.8813 375.956 82.7206 375.81C82.5593 375.661 82.352 375.587 82.098 375.587C81.924 375.587 81.7613 375.631 81.6093 375.722C81.46 375.812 81.3386 375.936 81.246 376.096C81.1553 376.254 81.1093 376.437 81.1093 376.644V379.287H80.4393ZM87.4833 379.287V373.648H88.1533V375.73H88.2106C88.26 375.657 88.328 375.563 88.4153 375.449C88.504 375.334 88.6306 375.231 88.796 375.14C88.9626 375.049 89.188 375.003 89.472 375.003C89.8393 375.003 90.1633 375.092 90.4433 375.27C90.724 375.448 90.9426 375.701 91.1 376.028C91.2566 376.354 91.3353 376.74 91.3353 377.184C91.3353 377.632 91.2566 378.02 91.1 378.348C90.9426 378.675 90.7246 378.929 90.446 379.108C90.168 379.287 89.8466 379.375 89.4833 379.375C89.2026 379.375 88.9786 379.331 88.81 379.241C88.6413 379.149 88.5113 379.045 88.4206 378.929C88.33 378.812 88.26 378.715 88.2106 378.637H88.1306V379.287H87.4833ZM88.142 377.173C88.142 377.492 88.1906 377.774 88.2873 378.018C88.384 378.261 88.5246 378.451 88.7106 378.588C88.896 378.724 89.1233 378.792 89.392 378.792C89.6726 378.792 89.9066 378.72 90.094 378.577C90.2833 378.432 90.4253 378.237 90.52 377.993C90.6166 377.747 90.6653 377.474 90.6653 377.173C90.6653 376.875 90.6173 376.607 90.5226 376.369C90.43 376.128 90.2893 375.938 90.1 375.799C89.912 375.657 89.6766 375.587 89.392 375.587C89.1193 375.587 88.8906 375.653 88.7046 375.788C88.5193 375.92 88.3793 376.105 88.284 376.344C88.1893 376.581 88.142 376.857 88.142 377.173ZM94.1906 379.375C93.77 379.375 93.4073 379.285 93.1026 379.106C92.7993 378.924 92.5653 378.67 92.4006 378.346C92.238 378.019 92.1566 377.639 92.1566 377.205C92.1566 376.773 92.238 376.391 92.4006 376.06C92.5653 375.728 92.7946 375.469 93.088 375.284C93.384 375.096 93.7286 375.003 94.1226 375.003C94.35 375.003 94.574 375.04 94.796 375.113C95.0173 375.186 95.2186 375.306 95.4006 375.471C95.5826 375.635 95.7273 375.851 95.8353 376.121C95.9433 376.391 95.9973 376.723 95.9973 377.118V377.393H92.634V376.831H95.3153C95.3153 376.593 95.2666 376.38 95.168 376.192C95.0713 376.005 94.9333 375.858 94.7533 375.749C94.5753 375.641 94.3646 375.587 94.1226 375.587C93.8553 375.587 93.624 375.651 93.4293 375.779C93.236 375.906 93.0873 376.071 92.9833 376.275C92.8793 376.479 92.8266 376.697 92.8266 376.93V377.305C92.8266 377.624 92.884 377.895 92.9973 378.117C93.1126 378.338 93.2726 378.506 93.4773 378.621C93.682 378.735 93.92 378.792 94.1906 378.792C94.3666 378.792 94.526 378.768 94.668 378.72C94.812 378.67 94.936 378.597 95.04 378.5C95.144 378.401 95.2246 378.277 95.2813 378.131L95.9293 378.307C95.8613 378.52 95.7466 378.707 95.5853 378.869C95.4246 379.028 95.2253 379.154 94.9886 379.243C94.752 379.331 94.486 379.375 94.1906 379.375ZM97.0173 379.287V375.058H97.6653V375.697H97.7106C97.79 375.487 97.934 375.318 98.142 375.188C98.3506 375.057 98.5853 374.992 98.8466 374.992C98.896 374.992 98.9573 374.993 99.0313 374.995C99.1053 374.996 99.1613 375 99.1993 375.003V375.664C99.1766 375.659 99.124 375.65 99.0426 375.639C98.9633 375.626 98.8793 375.62 98.79 375.62C98.578 375.62 98.3886 375.663 98.222 375.749C98.0573 375.834 97.9266 375.951 97.83 376.102C97.7353 376.25 97.688 376.42 97.688 376.611V379.287H97.0173Z"
            fill="#423636" />
        <path
            d="M45.0378 428.394V422.755H47.0038C47.4602 422.755 47.8333 422.835 48.1231 422.994C48.4148 423.153 48.6306 423.367 48.7708 423.636C48.911 423.906 48.981 424.207 48.981 424.539C48.981 424.871 48.911 425.174 48.7708 425.445C48.6326 425.717 48.4185 425.934 48.1288 426.095C47.839 426.255 47.4678 426.334 47.0151 426.334H45.606V425.729H46.9924C47.3049 425.729 47.5558 425.677 47.7452 425.572C47.9346 425.467 48.072 425.326 48.1572 425.148C48.2443 424.968 48.2878 424.766 48.2878 424.539C48.2878 424.314 48.2443 424.112 48.1572 423.934C48.072 423.756 47.9337 423.616 47.7424 423.515C47.5511 423.412 47.2973 423.361 46.981 423.361H45.7424V428.394H45.0378ZM51.3092 428.493C51.0326 428.493 50.7817 428.443 50.5563 428.342C50.3309 428.239 50.152 428.091 50.0194 427.899C49.8868 427.704 49.8205 427.469 49.8205 427.194C49.8205 426.951 49.8698 426.755 49.9682 426.604C50.0667 426.452 50.1984 426.333 50.3631 426.247C50.5279 426.161 50.7097 426.096 50.9086 426.054C51.1094 426.01 51.311 425.975 51.5137 425.949C51.7788 425.916 51.9938 425.891 52.1586 425.875C52.3252 425.856 52.4464 425.827 52.5222 425.784C52.5999 425.742 52.6387 425.668 52.6387 425.564V425.542C52.6387 425.27 52.562 425.059 52.4086 424.908C52.2571 424.758 52.027 424.683 51.7182 424.683C51.3982 424.683 51.1472 424.751 50.9654 424.886C50.7836 425.022 50.6558 425.167 50.5819 425.321L49.9455 425.101C50.0592 424.844 50.2107 424.644 50.4 424.501C50.5914 424.356 50.7997 424.255 51.025 424.198C51.2524 424.139 51.4758 424.11 51.6955 424.11C51.8357 424.11 51.9966 424.126 52.1785 424.159C52.3622 424.19 52.5392 424.256 52.7097 424.355C52.8821 424.454 53.025 424.604 53.1387 424.804C53.2524 425.004 53.3092 425.272 53.3092 425.608V428.394H52.6387V427.822H52.6046C52.5592 427.914 52.4834 428.012 52.3774 428.116C52.2713 428.221 52.1302 428.31 51.954 428.383C51.7779 428.457 51.563 428.493 51.3092 428.493ZM51.4114 427.91C51.6766 427.91 51.9 427.859 52.0819 427.758C52.2656 427.657 52.4038 427.527 52.4966 427.368C52.5914 427.207 52.6387 427.039 52.6387 426.864V426.268C52.6103 426.301 52.5478 426.332 52.4512 426.36C52.3565 426.385 52.2466 426.408 52.1216 426.428C51.9986 426.447 51.8783 426.463 51.7608 426.478C51.6453 426.491 51.5516 426.502 51.4796 426.511C51.3054 426.533 51.1425 426.569 50.991 426.618C50.8414 426.666 50.7202 426.738 50.6274 426.836C50.5364 426.931 50.491 427.061 50.491 427.227C50.491 427.453 50.5772 427.623 50.7495 427.739C50.9238 427.853 51.1444 427.91 51.4114 427.91ZM57.6238 425.112L57.0215 425.277C56.9836 425.18 56.9278 425.085 56.8539 424.994C56.7819 424.9 56.6834 424.823 56.5584 424.762C56.4334 424.702 56.2734 424.672 56.0783 424.672C55.8113 424.672 55.5888 424.731 55.4107 424.851C55.2346 424.968 55.1465 425.118 55.1465 425.299C55.1465 425.461 55.2071 425.589 55.3283 425.682C55.4496 425.775 55.639 425.854 55.8965 425.916L56.5442 426.07C56.9344 426.162 57.2251 426.303 57.4164 426.491C57.6077 426.679 57.7033 426.92 57.7033 427.216C57.7033 427.458 57.6314 427.674 57.4874 427.866C57.3454 428.056 57.1465 428.207 56.8908 428.317C56.6352 428.427 56.3378 428.482 55.9988 428.482C55.5537 428.482 55.1854 428.388 54.8937 428.202C54.602 428.014 54.4174 427.741 54.3397 427.381L54.976 427.227C55.0366 427.454 55.1512 427.625 55.3198 427.739C55.4902 427.853 55.7128 427.91 55.9874 427.91C56.2999 427.91 56.548 427.846 56.7318 427.717C56.9174 427.587 57.0102 427.431 57.0102 427.249C57.0102 427.102 56.9571 426.979 56.851 426.88C56.745 426.779 56.5821 426.704 56.3624 426.654L55.6352 426.489C55.2355 426.397 54.942 426.255 54.7544 426.062C54.5688 425.867 54.476 425.624 54.476 425.332C54.476 425.094 54.5452 424.882 54.6834 424.699C54.8236 424.515 55.014 424.371 55.2544 424.267C55.4969 424.162 55.7715 424.11 56.0783 424.11C56.5102 424.11 56.8492 424.201 57.0954 424.385C57.3435 424.569 57.5196 424.811 57.6238 425.112ZM61.8035 425.112L61.2012 425.277C61.1633 425.18 61.1074 425.085 61.0336 424.994C60.9616 424.9 60.8631 424.823 60.7381 424.762C60.6131 424.702 60.4531 424.672 60.258 424.672C59.991 424.672 59.7684 424.731 59.5904 424.851C59.4142 424.968 59.3262 425.118 59.3262 425.299C59.3262 425.461 59.3868 425.589 59.508 425.682C59.6292 425.775 59.8186 425.854 60.0762 425.916L60.7239 426.07C61.1141 426.162 61.4048 426.303 61.5961 426.491C61.7874 426.679 61.883 426.92 61.883 427.216C61.883 427.458 61.811 427.674 61.6671 427.866C61.525 428.056 61.3262 428.207 61.0705 428.317C60.8148 428.427 60.5175 428.482 60.1785 428.482C59.7334 428.482 59.365 428.388 59.0734 428.202C58.7817 428.014 58.597 427.741 58.5194 427.381L59.1558 427.227C59.2164 427.454 59.3309 427.625 59.4995 427.739C59.67 427.853 59.8925 427.91 60.1671 427.91C60.4796 427.91 60.7277 427.846 60.9114 427.717C61.097 427.587 61.1898 427.431 61.1898 427.249C61.1898 427.102 61.1368 426.979 61.0308 426.88C60.9247 426.779 60.7618 426.704 60.5421 426.654L59.8148 426.489C59.4152 426.397 59.1216 426.255 58.9342 426.062C58.7486 425.867 58.6558 425.624 58.6558 425.332C58.6558 425.094 58.7249 424.882 58.8631 424.699C59.0033 424.515 59.1936 424.371 59.4342 424.267C59.6766 424.162 59.9512 424.11 60.258 424.11C60.6898 424.11 61.0288 424.201 61.275 424.385C61.5232 424.569 61.6993 424.811 61.8035 425.112ZM63.8809 428.394L62.5514 424.165H63.2559L64.1991 427.403H64.2445L65.1764 424.165H65.8922L66.8127 427.392H66.8582L67.8014 424.165H68.5059L67.1764 428.394H66.5172L65.5627 425.145H65.4945L64.54 428.394H63.8809ZM71.0166 428.482C70.6226 428.482 70.277 428.392 69.9796 428.209C69.6842 428.028 69.4531 427.774 69.2864 427.447C69.1216 427.12 69.0392 426.738 69.0392 426.301C69.0392 425.861 69.1216 425.476 69.2864 425.148C69.4531 424.819 69.6842 424.564 69.9796 424.382C70.277 424.201 70.6226 424.11 71.0166 424.11C71.4105 424.11 71.7553 424.201 72.0506 424.382C72.348 424.564 72.5793 424.819 72.744 425.148C72.9106 425.476 72.994 425.861 72.994 426.301C72.994 426.738 72.9106 427.12 72.744 427.447C72.5793 427.774 72.348 428.028 72.0506 428.209C71.7553 428.392 71.4105 428.482 71.0166 428.482ZM71.0166 427.899C71.3158 427.899 71.562 427.824 71.7553 427.676C71.9486 427.527 72.0913 427.331 72.184 427.089C72.2766 426.847 72.3233 426.584 72.3233 426.301C72.3233 426.019 72.2766 425.755 72.184 425.511C72.0913 425.268 71.9486 425.07 71.7553 424.919C71.562 424.769 71.3158 424.694 71.0166 424.694C70.7173 424.694 70.4711 424.769 70.2779 424.919C70.0847 425.07 69.9417 425.268 69.8489 425.511C69.7561 425.755 69.7097 426.019 69.7097 426.301C69.7097 426.584 69.7561 426.847 69.8489 427.089C69.9417 427.331 70.0847 427.527 70.2779 427.676C70.4711 427.824 70.7173 427.899 71.0166 427.899ZM74.0173 428.394V424.165H74.6653V424.804H74.7106C74.79 424.594 74.934 424.425 75.142 424.295C75.3506 424.164 75.5853 424.099 75.8466 424.099C75.896 424.099 75.9573 424.1 76.0313 424.102C76.1053 424.103 76.1613 424.106 76.1993 424.11V424.771C76.1766 424.766 76.124 424.757 76.0426 424.746C75.9633 424.733 75.8793 424.727 75.79 424.727C75.578 424.727 75.3886 424.77 75.222 424.856C75.0573 424.941 74.9266 425.058 74.83 425.209C74.7353 425.357 74.688 425.527 74.688 425.718V428.394H74.0173ZM78.5086 428.482C78.1453 428.482 77.824 428.394 77.546 428.215C77.2673 428.036 77.0493 427.782 76.892 427.455C76.7353 427.127 76.6566 426.739 76.6566 426.29C76.6566 425.847 76.7353 425.461 76.892 425.134C77.0493 424.808 77.268 424.555 77.5486 424.377C77.8286 424.199 78.1526 424.11 78.52 424.11C78.804 424.11 79.0286 424.156 79.1933 424.247C79.36 424.338 79.4866 424.441 79.574 424.556C79.6633 424.67 79.732 424.764 79.7813 424.837H79.838V422.755H80.5086V428.394H79.8613V427.744H79.7813C79.732 427.822 79.662 427.919 79.5713 428.036C79.4806 428.152 79.3506 428.256 79.182 428.348C79.0133 428.438 78.7893 428.482 78.5086 428.482ZM78.6 427.899C78.8686 427.899 79.096 427.831 79.2813 427.695C79.4673 427.558 79.608 427.368 79.7046 427.125C79.8013 426.881 79.85 426.599 79.85 426.279C79.85 425.964 79.802 425.688 79.7073 425.451C79.6126 425.212 79.4726 425.027 79.2873 424.895C79.1013 424.76 78.8726 424.694 78.6 424.694C78.3153 424.694 78.0786 424.764 77.8893 424.906C77.702 425.045 77.5606 425.235 77.466 425.476C77.3733 425.714 77.3266 425.982 77.3266 426.279C77.3266 426.581 77.374 426.854 77.4686 427.1C77.5653 427.344 77.7073 427.539 77.8953 427.684C78.0846 427.827 78.3193 427.899 78.6 427.899Z"
            fill="#423636" />
        <path
            d="M226.333 465.871H33.6666C31.8257 465.871 30.3333 467.317 30.3333 469.101V495.593C30.3333 497.378 31.8257 498.824 33.6666 498.824H226.333C228.174 498.824 229.667 497.378 229.667 495.593V469.101C229.667 467.317 228.174 465.871 226.333 465.871Z"
            fill="#FAB71C" />
        <path
            d="M123.863 477.795V487.194H122.727L117.443 479.815H117.349V487.194H116.174V477.795H117.311L122.613 485.192H122.708V477.795H123.863ZM129.111 487.34C128.41 487.34 127.806 487.19 127.297 486.891C126.793 486.588 126.403 486.166 126.128 485.624C125.857 485.079 125.721 484.446 125.721 483.724C125.721 483.002 125.857 482.366 126.128 481.815C126.403 481.261 126.785 480.83 127.274 480.521C127.767 480.209 128.341 480.053 128.997 480.053C129.376 480.053 129.75 480.114 130.119 480.237C130.489 480.359 130.825 480.558 131.128 480.833C131.431 481.106 131.673 481.466 131.853 481.916C132.033 482.366 132.123 482.919 132.123 483.577V484.037H126.517V483.1H130.986C130.986 482.702 130.904 482.348 130.74 482.035C130.579 481.723 130.349 481.477 130.049 481.297C129.752 481.116 129.401 481.026 128.997 481.026C128.552 481.026 128.167 481.133 127.842 481.347C127.52 481.558 127.272 481.834 127.099 482.173C126.925 482.513 126.838 482.877 126.838 483.265V483.889C126.838 484.422 126.933 484.873 127.123 485.244C127.315 485.611 127.582 485.89 127.923 486.083C128.263 486.273 128.659 486.368 129.111 486.368C129.405 486.368 129.67 486.328 129.907 486.248C130.147 486.166 130.353 486.043 130.527 485.881C130.701 485.716 130.835 485.511 130.929 485.266L132.009 485.56C131.895 485.915 131.704 486.227 131.436 486.496C131.167 486.762 130.836 486.97 130.441 487.12C130.047 487.267 129.603 487.34 129.111 487.34ZM134.46 480.145L136.203 483.027L137.945 480.145H139.233L136.885 483.669L139.233 487.194H137.945L136.203 484.458L134.46 487.194H133.173L135.483 483.669L133.173 480.145H134.46ZM143.99 480.145V481.062H140.221V480.145H143.99ZM141.32 478.456H142.437V485.174C142.437 485.48 142.483 485.71 142.575 485.863C142.669 486.012 142.789 486.114 142.935 486.166C143.083 486.215 143.239 486.239 143.403 486.239C143.526 486.239 143.627 486.233 143.706 486.22C143.785 486.206 143.848 486.193 143.895 486.184L144.123 487.157C144.047 487.185 143.941 487.212 143.805 487.239C143.67 487.27 143.498 487.285 143.289 487.285C142.974 487.285 142.665 487.219 142.361 487.088C142.061 486.956 141.812 486.756 141.613 486.487C141.418 486.218 141.32 485.878 141.32 485.468V478.456Z"
            fill="black" />
    </g>
    <path
        d="M214.157 0.00390625L44.8864 0.00390625C33.4161 0.0167644 22.4192 4.57045 14.3084 12.6659C6.19761 20.7614 1.63532 31.7375 1.62244 43.1862L1.62244 481.487C1.63532 492.936 6.19761 503.912 14.3084 512.007C22.4192 520.103 33.4161 524.656 44.8864 524.669H214.157C225.627 524.656 236.624 520.103 244.735 512.007C252.846 503.912 257.408 492.936 257.421 481.487V43.1862C257.408 31.7375 252.846 20.7614 244.735 12.6659C236.624 4.57045 225.627 0.0167644 214.157 0.00390625V0.00390625ZM244.982 481.978C244.985 490.143 241.74 497.976 235.96 503.754C230.18 509.533 222.338 512.784 214.157 512.794H44.9405C36.7597 512.784 28.9175 509.533 23.1374 503.754C17.3572 497.976 14.112 490.143 14.1149 481.978L14.1149 43.7746C14.112 35.6092 17.3572 27.7768 23.1374 21.9984C28.9175 16.2201 36.7597 12.9686 44.9405 12.9586L214.157 12.9586C222.338 12.9686 230.18 16.2201 235.96 21.9984C241.74 27.7768 244.985 35.6092 244.982 43.7746V481.978Z"
        fill="#B8B8B8" />
    <path d="M259.043 113.357H255.798V172.193H259.043V113.357Z" fill="#B8B8B8" />
    <path d="M3.2448 73.4141H0L0 90.1472H3.2448L3.2448 73.4141Z" fill="#B8B8B8" />
    <path d="M3.2448 110.119H0L0 143.046H3.2448L3.2448 110.119Z" fill="#B8B8B8" />
    <path d="M3.2448 154.921H0L0 188.387H3.2448L3.2448 154.921Z" fill="#B8B8B8" />
    <path
        d="M84.3648 12.9585L174.678 12.9585V17.6813C174.679 19.3296 174.294 20.9619 173.544 22.4849C172.794 24.0079 171.694 25.3917 170.307 26.5572C168.921 27.7227 167.275 28.6471 165.463 29.2776C163.651 29.908 161.709 30.2321 159.748 30.2314L99.2949 30.2314C97.334 30.2321 95.3921 29.908 93.5804 29.2776C91.7686 28.6471 90.1224 27.7227 88.7358 26.5572C87.3493 25.3917 86.2495 24.0079 85.4995 22.4849C84.7495 20.9619 84.3639 19.3296 84.3648 17.6813V12.9585Z"
        fill="#B8B8B8" />
    <path
        d="M103.357 21.5954C104.096 21.5965 104.819 21.3786 105.434 20.9692C105.891 20.6619 106.275 20.257 106.556 19.7839C106.838 19.3109 107.011 18.7813 107.062 18.2334C107.114 17.6856 107.043 17.1331 106.855 16.6159C106.667 16.0986 106.367 15.6294 105.975 15.2422C105.454 14.7202 104.79 14.365 104.066 14.222C103.525 14.1142 102.967 14.1274 102.432 14.2609C101.897 14.3943 101.399 14.6446 100.972 14.9937C100.546 15.3428 100.203 15.7819 99.9671 16.2794C99.7314 16.777 99.6093 17.3206 99.6096 17.8709C99.6096 18.8578 100.002 19.8043 100.701 20.5026C101.399 21.2009 102.347 21.5939 103.336 21.5954H103.357Z"
        fill="#2B2B29" />
    <path
        d="M106.538 17.9141C106.538 18.5396 106.352 19.1511 106.005 19.6714C105.657 20.1917 105.162 20.5973 104.583 20.8371C104.004 21.0768 103.367 21.1399 102.753 21.0184C102.138 20.8968 101.573 20.5961 101.13 20.1542C100.684 19.7128 100.381 19.1487 100.258 18.5343C100.136 17.9198 100.2 17.2828 100.443 16.705C100.681 16.1262 101.087 15.6314 101.608 15.2834C102.129 14.9354 102.742 14.7501 103.369 14.751C104.21 14.7547 105.016 15.0881 105.613 15.6794C105.907 15.9725 106.141 16.3208 106.299 16.7044C106.458 17.0879 106.539 17.4991 106.538 17.9141V17.9141Z"
        fill="#1C1D22" />
    <path
        d="M104.915 17.9143C104.914 18.1473 104.862 18.3774 104.762 18.588C104.663 18.7986 104.517 18.9846 104.337 19.1326C104.157 19.2806 103.946 19.387 103.719 19.4442C103.493 19.5014 103.257 19.508 103.028 19.4634C102.723 19.3996 102.443 19.2497 102.222 19.0316C102 18.8109 101.849 18.5289 101.789 18.2219C101.73 17.9172 101.762 17.6018 101.881 17.3151C101.998 17.0266 102.2 16.7801 102.46 16.608C102.763 16.4027 103.128 16.3098 103.493 16.3453C103.857 16.3808 104.198 16.5425 104.455 16.8023C104.601 16.9484 104.717 17.1218 104.796 17.3126C104.875 17.5034 104.915 17.7079 104.915 17.9143V17.9143Z"
        fill="#25295F" />
    <path
        d="M118.603 11.3394C118.141 11.3646 117.707 11.5652 117.39 11.9001C117.072 12.2349 116.895 12.6784 116.895 13.1395C116.895 13.6006 117.072 14.0442 117.39 14.379C117.707 14.7138 118.141 14.9145 118.603 14.9397H140.208C140.669 14.9145 141.103 14.7138 141.42 14.379C141.738 14.0442 141.915 13.6006 141.915 13.1395C141.915 12.6784 141.738 12.2349 141.42 11.9001C141.103 11.5652 140.669 11.3646 140.208 11.3394H118.603Z"
        fill="#2B2B29" />
    <defs>
        <clipPath id="clip0_112_3094">
            <rect x="5" width="250" height="524.67" rx="50" fill="white" />
        </clipPath>
    </defs>
</svg>