<svg width="260" height="525" viewBox="0 0 260 525" fill="none" xmlns="http://www.w3.org/2000/svg">
<g clip-path="url(#clip0_112_4522)">
<path d="M255 0H4.99994V524.67H255V0Z" fill="#090526"/>
<path d="M194.613 101.646C184.717 79.7755 160.962 71.541 142.219 86.2253C134.901 91.954 130.334 101.072 121.373 104.73C112.963 108.162 102.311 107.151 93.218 109.01C73.8546 112.942 47.7851 127.862 49.774 150.851C50.6451 160.921 57.6538 172.105 61.1183 181.527C65.096 192.368 67.4826 205.931 78.0113 212.412C96.062 223.538 117.836 214.443 134.097 205.472C142.848 200.649 147.665 197.684 157.088 199.338C165.811 200.881 173.667 206.278 182.191 199.874C188.591 195.067 189.12 185.325 194.494 179.603C200.548 173.157 206.686 172.691 209.832 163.003C213.647 151.248 208.026 143.903 204.227 133.402C200.429 122.901 199.275 111.936 194.613 101.646Z" fill="#FAB71C"/>
<g opacity="0.7">
<path d="M194.613 101.646C184.717 79.7755 160.962 71.541 142.219 86.2253C134.901 91.954 130.334 101.072 121.373 104.73C112.963 108.162 102.311 107.151 93.218 109.01C73.8546 112.942 47.7851 127.862 49.774 150.851C50.6451 160.921 57.6538 172.105 61.1183 181.527C65.096 192.368 67.4826 205.931 78.0113 212.412C96.062 223.538 117.836 214.443 134.097 205.472C142.848 200.649 147.665 197.684 157.088 199.338C165.811 200.881 173.667 206.278 182.191 199.874C188.591 195.067 189.12 185.325 194.494 179.603C200.548 173.157 206.686 172.691 209.832 163.003C213.647 151.248 208.026 143.903 204.227 133.402C200.429 122.901 199.275 111.936 194.613 101.646Z" fill="white"/>
</g>
<path d="M119.308 230.674C153.266 230.674 180.795 229.012 180.795 226.961C180.795 224.911 153.266 223.249 119.308 223.249C85.3493 223.249 57.8207 224.911 57.8207 226.961C57.8207 229.012 85.3493 230.674 119.308 230.674Z" fill="#FAB71C"/>
<path opacity="0.8" d="M119.308 230.674C153.266 230.674 180.795 229.012 180.795 226.961C180.795 224.911 153.266 223.249 119.308 223.249C85.3493 223.249 57.8207 224.911 57.8207 226.961C57.8207 229.012 85.3493 230.674 119.308 230.674Z" fill="white"/>
<path d="M165.513 85.7861H103.687C99.4193 85.7861 95.9586 89.1396 95.9586 93.2769V219.783C95.9586 223.92 99.4193 227.274 103.687 227.274H165.513C169.781 227.274 173.241 223.92 173.241 219.783V93.2769C173.241 89.1396 169.781 85.7861 165.513 85.7861Z" fill="#263238"/>
<path d="M169.805 101.323H99.3913V211.737H169.805V101.323Z" fill="white" stroke="#263238" stroke-width="1.33739" stroke-miterlimit="10"/>
<path d="M145.392 146.033C151.353 140.256 151.353 130.89 145.392 125.113C139.432 119.336 129.768 119.336 123.808 125.113C117.847 130.89 117.847 140.256 123.808 146.033C129.768 151.809 139.432 151.809 145.392 146.033Z" fill="#FAB71C"/>
<path d="M154.638 204.794H114.567C114.477 204.794 114.387 204.778 114.303 204.744C114.22 204.711 114.144 204.663 114.08 204.601C114.016 204.539 113.965 204.466 113.931 204.385C113.896 204.305 113.879 204.218 113.879 204.13C113.878 204.043 113.895 203.956 113.93 203.875C113.964 203.794 114.015 203.72 114.079 203.658C114.143 203.596 114.219 203.547 114.303 203.513C114.387 203.48 114.476 203.463 114.567 203.463H154.638C154.728 203.463 154.817 203.481 154.901 203.514C154.984 203.548 155.059 203.597 155.123 203.659C155.187 203.721 155.237 203.795 155.271 203.876C155.305 203.956 155.323 204.043 155.322 204.13C155.322 204.307 155.25 204.475 155.121 204.599C154.993 204.724 154.819 204.794 154.638 204.794Z" fill="#FAB71C"/>
<path d="M155.943 158.681H113.258C112.377 158.681 111.663 159.373 111.663 160.227V165.104C111.663 165.958 112.377 166.65 113.258 166.65H155.943C156.823 166.65 157.537 165.958 157.537 165.104V160.227C157.537 159.373 156.823 158.681 155.943 158.681Z" fill="#FAB71C"/>
<path d="M155.943 173.585H113.258C112.377 173.585 111.663 174.277 111.663 175.131V180.008C111.663 180.862 112.377 181.554 113.258 181.554H155.943C156.823 181.554 157.537 180.862 157.537 180.008V175.131C157.537 174.277 156.823 173.585 155.943 173.585Z" fill="#FAB71C"/>
<path d="M142.199 142.952L137.709 140.446V138.375C138.359 137.613 138.83 136.723 139.089 135.766C139.243 135.819 139.407 135.846 139.571 135.846C140.127 135.846 140.481 134.173 140.541 132.978C141.189 131.648 140.306 130.87 140.306 130.87C140.306 130.87 140.672 130.515 140.915 129.092C141.157 127.669 140.059 128.263 139.205 126.96C138.349 125.657 137.737 124.238 134.929 124.238C134.155 124.214 133.391 124.415 132.737 124.817C132.083 125.219 131.569 125.801 131.261 126.49C130.562 126.492 129.865 126.571 129.185 126.725C128.325 126.96 128.083 129.686 128.815 130.754C129.143 131.338 129.317 131.99 129.324 132.654C129.129 132.423 128.926 132.362 128.815 132.886C128.572 134.069 129.551 135.727 129.551 135.727L130.056 135.589C130.31 136.611 130.801 137.564 131.492 138.375V140.446L127.001 142.952C126.477 143.245 126.041 143.667 125.738 144.175C125.435 144.684 125.275 145.26 125.275 145.847V147.281C127.945 149.281 131.225 150.366 134.6 150.366C137.975 150.366 141.255 149.281 143.926 147.281V145.847C143.926 145.26 143.767 144.683 143.464 144.175C143.161 143.667 142.725 143.245 142.199 142.952Z" fill="#263238"/>
<path d="M117.474 179.573C117.371 179.571 117.273 179.531 117.2 179.461C117.161 179.427 117.129 179.385 117.108 179.339C117.087 179.292 117.076 179.242 117.077 179.191C117.078 179.121 117.098 179.053 117.136 178.994L117.852 177.884L116.456 177.926C116.403 177.93 116.351 177.922 116.301 177.904C116.252 177.886 116.207 177.858 116.169 177.822C116.105 177.752 116.069 177.66 116.069 177.566C116.069 177.471 116.105 177.38 116.169 177.309C116.206 177.272 116.251 177.243 116.301 177.225C116.35 177.206 116.403 177.198 116.456 177.201L117.832 177.252L117.124 176.145C117.086 176.085 117.065 176.016 117.065 175.945C117.064 175.894 117.075 175.843 117.096 175.797C117.117 175.75 117.149 175.709 117.188 175.675C117.261 175.605 117.359 175.565 117.462 175.563C117.53 175.563 117.596 175.583 117.653 175.618C117.711 175.653 117.756 175.704 117.785 175.764L118.465 176.955L119.137 175.771C119.169 175.708 119.218 175.655 119.279 175.616C119.34 175.578 119.411 175.558 119.483 175.556C119.533 175.556 119.583 175.566 119.629 175.586C119.675 175.606 119.716 175.635 119.749 175.671C119.823 175.744 119.863 175.843 119.861 175.945C119.861 176.011 119.843 176.076 119.809 176.134L119.089 177.252L120.485 177.201C120.538 177.198 120.591 177.206 120.641 177.225C120.691 177.243 120.735 177.272 120.772 177.309C120.839 177.378 120.877 177.47 120.875 177.564C120.875 177.66 120.838 177.751 120.772 177.822C120.734 177.858 120.689 177.886 120.64 177.904C120.591 177.922 120.538 177.93 120.485 177.926L119.081 177.884L119.781 178.983C119.821 179.044 119.841 179.115 119.841 179.187C119.841 179.289 119.799 179.387 119.725 179.46C119.65 179.532 119.549 179.573 119.443 179.573C119.375 179.571 119.309 179.551 119.252 179.515C119.195 179.478 119.151 179.425 119.125 179.364L118.461 178.208L117.801 179.364C117.771 179.425 117.725 179.476 117.667 179.513C117.61 179.549 117.543 179.57 117.474 179.573Z" fill="#263238"/>
<path d="M123.926 179.573C123.823 179.571 123.725 179.531 123.652 179.461C123.613 179.427 123.581 179.385 123.56 179.339C123.539 179.292 123.528 179.242 123.529 179.191C123.529 179.121 123.55 179.053 123.588 178.994L124.304 177.884L122.912 177.926C122.859 177.929 122.806 177.921 122.756 177.903C122.706 177.885 122.66 177.857 122.621 177.822C122.569 177.769 122.533 177.703 122.521 177.63C122.507 177.557 122.517 177.483 122.549 177.416C122.58 177.349 122.631 177.293 122.696 177.254C122.761 177.216 122.836 177.198 122.912 177.201L124.284 177.252L123.576 176.145C123.537 176.085 123.517 176.016 123.517 175.945C123.516 175.894 123.527 175.843 123.548 175.797C123.569 175.75 123.601 175.709 123.64 175.675C123.713 175.605 123.811 175.565 123.914 175.563C123.982 175.563 124.048 175.583 124.105 175.618C124.163 175.653 124.208 175.704 124.237 175.764L124.917 176.955L125.589 175.772C125.621 175.708 125.67 175.655 125.731 175.616C125.792 175.578 125.863 175.558 125.935 175.556C125.985 175.555 126.035 175.565 126.081 175.585C126.127 175.605 126.168 175.635 126.201 175.671C126.238 175.707 126.267 175.75 126.287 175.797C126.307 175.844 126.317 175.894 126.317 175.945C126.315 176.011 126.296 176.076 126.261 176.134L125.541 177.252L126.941 177.209C126.994 177.206 127.046 177.214 127.095 177.232C127.144 177.251 127.188 177.28 127.224 177.317C127.291 177.386 127.329 177.477 127.327 177.572C127.327 177.667 127.29 177.759 127.224 177.83C127.187 177.866 127.143 177.893 127.094 177.912C127.045 177.93 126.993 177.937 126.941 177.934L125.533 177.892L126.233 178.991C126.273 179.052 126.293 179.122 126.293 179.195C126.293 179.297 126.251 179.395 126.177 179.467C126.102 179.54 126.001 179.581 125.895 179.581C125.827 179.579 125.761 179.559 125.704 179.522C125.647 179.486 125.603 179.433 125.577 179.372L124.913 178.215L124.253 179.372C124.222 179.431 124.175 179.481 124.118 179.517C124.061 179.551 123.994 179.571 123.926 179.573Z" fill="#263238"/>
<path d="M130.382 179.573C130.277 179.572 130.177 179.532 130.103 179.461C130.065 179.427 130.033 179.385 130.012 179.339C129.991 179.292 129.98 179.242 129.98 179.191C129.981 179.121 130.002 179.053 130.04 178.994L130.756 177.884L129.363 177.926C129.289 177.929 129.215 177.91 129.151 177.872C129.087 177.834 129.036 177.778 129.005 177.713C128.973 177.646 128.963 177.572 128.976 177.501C128.988 177.429 129.022 177.362 129.073 177.309C129.111 177.273 129.156 177.243 129.207 177.225C129.257 177.207 129.31 177.198 129.363 177.201L130.736 177.252L130.028 176.145C129.989 176.085 129.969 176.016 129.968 175.945C129.969 175.894 129.981 175.845 130.002 175.798C130.023 175.751 130.054 175.71 130.091 175.675C130.165 175.604 130.265 175.563 130.37 175.563C130.437 175.564 130.503 175.583 130.559 175.619C130.615 175.655 130.66 175.704 130.688 175.764L131.369 176.955L132.041 175.772C132.073 175.708 132.121 175.655 132.183 175.616C132.243 175.578 132.314 175.558 132.387 175.556C132.437 175.555 132.487 175.565 132.533 175.585C132.579 175.605 132.62 175.635 132.653 175.671C132.69 175.707 132.719 175.75 132.739 175.797C132.759 175.844 132.769 175.894 132.769 175.945C132.767 176.011 132.748 176.076 132.713 176.134L131.993 177.252L133.393 177.201C133.445 177.197 133.497 177.202 133.545 177.218C133.595 177.234 133.639 177.261 133.677 177.295C133.715 177.329 133.745 177.371 133.764 177.417C133.783 177.464 133.793 177.514 133.791 177.564C133.791 177.659 133.756 177.751 133.691 177.822C133.654 177.858 133.609 177.886 133.559 177.904C133.51 177.922 133.457 177.93 133.405 177.926L132.001 177.884L132.697 178.983C132.736 179.044 132.757 179.115 132.757 179.187C132.755 179.237 132.744 179.288 132.723 179.334C132.701 179.38 132.671 179.422 132.633 179.457C132.599 179.493 132.557 179.522 132.511 179.542C132.464 179.562 132.413 179.572 132.363 179.573C132.295 179.571 132.229 179.551 132.173 179.514C132.118 179.477 132.074 179.425 132.049 179.364L131.381 178.208L130.72 179.364C130.69 179.427 130.643 179.48 130.583 179.517C130.523 179.553 130.453 179.573 130.382 179.573Z" fill="#263238"/>
<path d="M136.834 179.573C136.729 179.572 136.629 179.532 136.555 179.461C136.48 179.389 136.437 179.292 136.436 179.191C136.435 179.122 136.454 179.053 136.491 178.994L137.207 177.884L135.815 177.926C135.762 177.929 135.709 177.921 135.659 177.903C135.609 177.885 135.564 177.857 135.525 177.822C135.46 177.752 135.424 177.66 135.424 177.566C135.424 177.472 135.46 177.38 135.525 177.309C135.563 177.274 135.609 177.245 135.659 177.227C135.709 177.209 135.762 177.199 135.815 177.201L137.191 177.252L136.487 176.145C136.449 176.085 136.429 176.016 136.428 175.945C136.429 175.894 136.441 175.845 136.462 175.798C136.483 175.751 136.513 175.71 136.551 175.675C136.625 175.604 136.725 175.563 136.83 175.563C136.897 175.563 136.964 175.583 137.021 175.618C137.078 175.653 137.123 175.704 137.152 175.764L137.828 176.955L138.5 175.772C138.532 175.708 138.581 175.655 138.642 175.616C138.703 175.578 138.774 175.558 138.847 175.556C138.897 175.555 138.947 175.565 138.993 175.585C139.039 175.605 139.079 175.635 139.113 175.671C139.15 175.707 139.179 175.75 139.199 175.797C139.219 175.844 139.229 175.894 139.228 175.945C139.227 176.011 139.207 176.076 139.173 176.134L138.453 177.252L139.853 177.201C139.904 177.197 139.956 177.202 140.005 177.218C140.054 177.234 140.099 177.261 140.137 177.295C140.175 177.329 140.204 177.371 140.224 177.417C140.243 177.464 140.253 177.514 140.251 177.564C140.251 177.659 140.216 177.751 140.151 177.822C140.113 177.858 140.069 177.886 140.019 177.904C139.97 177.922 139.917 177.93 139.865 177.926L138.461 177.884L139.157 178.983C139.196 179.044 139.217 179.115 139.216 179.187C139.217 179.238 139.206 179.288 139.185 179.335C139.163 179.382 139.132 179.423 139.093 179.457C139.059 179.493 139.017 179.522 138.97 179.542C138.923 179.562 138.873 179.572 138.823 179.573C138.755 179.571 138.689 179.551 138.633 179.514C138.577 179.477 138.534 179.425 138.508 179.364L137.84 178.208L137.18 179.364C137.149 179.428 137.101 179.482 137.039 179.518C136.977 179.556 136.906 179.575 136.834 179.573Z" fill="#263238"/>
<path d="M143.285 179.573C143.181 179.572 143.081 179.532 143.007 179.461C142.945 179.4 142.906 179.321 142.895 179.237C142.885 179.153 142.903 179.068 142.947 178.994L143.659 177.884L142.267 177.926C142.214 177.929 142.161 177.921 142.111 177.903C142.061 177.885 142.015 177.857 141.977 177.822C141.912 177.752 141.876 177.66 141.876 177.566C141.876 177.472 141.912 177.38 141.977 177.309C142.015 177.274 142.061 177.245 142.111 177.227C142.161 177.209 142.214 177.199 142.267 177.201L143.643 177.252L142.935 176.145C142.897 176.085 142.876 176.016 142.876 175.945C142.877 175.843 142.92 175.746 142.995 175.675C143.069 175.604 143.169 175.563 143.273 175.563C143.341 175.563 143.407 175.583 143.465 175.618C143.521 175.653 143.567 175.704 143.596 175.764L144.272 176.955L144.944 175.772C144.976 175.708 145.025 175.655 145.086 175.616C145.147 175.578 145.218 175.558 145.29 175.556C145.341 175.555 145.391 175.565 145.438 175.585C145.485 175.605 145.527 175.635 145.561 175.671C145.634 175.744 145.674 175.843 145.672 175.945C145.671 176.011 145.651 176.076 145.617 176.134L144.897 177.252L146.297 177.201C146.348 177.197 146.4 177.202 146.449 177.218C146.498 177.234 146.543 177.261 146.581 177.295C146.618 177.329 146.648 177.371 146.667 177.417C146.687 177.464 146.697 177.514 146.695 177.564C146.695 177.659 146.66 177.751 146.595 177.822C146.557 177.858 146.513 177.886 146.463 177.904C146.414 177.922 146.361 177.93 146.309 177.926L144.905 177.884L145.601 178.983C145.64 179.044 145.661 179.115 145.66 179.187C145.661 179.238 145.65 179.288 145.629 179.335C145.607 179.382 145.576 179.423 145.537 179.457C145.502 179.493 145.461 179.522 145.414 179.542C145.367 179.562 145.317 179.572 145.267 179.573C145.199 179.571 145.133 179.551 145.077 179.514C145.021 179.477 144.978 179.425 144.952 179.364L144.284 178.208L143.623 179.364C143.594 179.427 143.546 179.48 143.486 179.517C143.426 179.553 143.357 179.573 143.285 179.573Z" fill="#263238"/>
<path d="M149.737 179.573C149.635 179.571 149.536 179.531 149.463 179.461C149.424 179.427 149.393 179.385 149.371 179.339C149.35 179.292 149.339 179.242 149.339 179.191C149.341 179.121 149.361 179.053 149.399 178.994L150.111 177.884L148.719 177.926C148.668 177.93 148.617 177.924 148.568 177.907C148.519 177.89 148.475 177.864 148.438 177.83C148.401 177.796 148.371 177.755 148.351 177.709C148.331 177.663 148.321 177.614 148.321 177.564C148.321 177.517 148.331 177.47 148.349 177.426C148.367 177.383 148.395 177.343 148.429 177.309C148.465 177.273 148.51 177.243 148.559 177.225C148.609 177.206 148.662 177.198 148.715 177.201L150.091 177.252L149.383 176.145C149.345 176.085 149.324 176.016 149.324 175.945C149.325 175.843 149.368 175.746 149.443 175.675C149.517 175.604 149.617 175.563 149.721 175.563C149.789 175.563 149.855 175.583 149.913 175.618C149.969 175.653 150.015 175.704 150.043 175.764L150.72 176.955L151.396 175.772C151.427 175.709 151.476 175.656 151.537 175.618C151.597 175.58 151.666 175.558 151.738 175.556C151.789 175.555 151.839 175.565 151.886 175.585C151.933 175.605 151.975 175.635 152.009 175.671C152.081 175.744 152.122 175.843 152.12 175.945C152.12 176.011 152.102 176.076 152.068 176.134L151.349 177.252L152.745 177.201C152.797 177.198 152.851 177.206 152.9 177.225C152.949 177.243 152.994 177.273 153.031 177.309C153.099 177.378 153.136 177.47 153.134 177.564C153.134 177.66 153.097 177.751 153.031 177.822C152.993 177.858 152.949 177.886 152.899 177.904C152.85 177.922 152.797 177.93 152.745 177.926L151.341 177.884L152.037 178.983C152.076 179.044 152.097 179.115 152.096 179.187C152.095 179.288 152.052 179.386 151.977 179.457C151.905 179.529 151.806 179.57 151.703 179.573C151.635 179.571 151.569 179.551 151.513 179.514C151.457 179.477 151.414 179.425 151.388 179.364L150.72 178.208L150.059 179.364C150.031 179.425 149.986 179.476 149.929 179.513C149.872 179.55 149.806 179.57 149.737 179.573Z" fill="#263238"/>
<g style="mix-blend-mode:multiply">
<path d="M169.805 101.469H99.3913V105.745H169.805V101.469Z" fill="#FAB71C"/>
</g>
<path d="M142.255 93.5931H126.941C126.665 93.5931 126.399 93.4865 126.204 93.2972C126.009 93.1078 125.899 92.8513 125.899 92.5832C125.899 92.315 126.009 92.0585 126.204 91.8692C126.399 91.6792 126.665 91.5732 126.941 91.5732H142.255C142.531 91.5732 142.797 91.6792 142.992 91.8692C143.187 92.0585 143.297 92.315 143.297 92.5832C143.297 92.8513 143.187 93.1078 142.992 93.2972C142.797 93.4865 142.531 93.5931 142.255 93.5931Z" fill="#FAB71C" stroke="#263238" stroke-width="1.33739" stroke-linecap="round" stroke-linejoin="round"/>
<path d="M138.775 217.974C138.775 217.174 138.531 216.391 138.073 215.724C137.614 215.058 136.962 214.538 136.199 214.231C135.435 213.925 134.595 213.844 133.785 214.001C132.974 214.156 132.229 214.542 131.645 215.108C131.061 215.675 130.663 216.397 130.502 217.182C130.341 217.967 130.424 218.782 130.741 219.521C131.057 220.261 131.593 220.894 132.281 221.338C132.968 221.783 133.776 222.019 134.602 222.019C135.709 222.018 136.769 221.592 137.551 220.833C138.334 220.075 138.774 219.047 138.775 217.974Z" fill="#FAB71C"/>
<path d="M136.718 215.924H132.486V220.026H136.718V215.924Z" fill="#FAB71C" stroke="#263238" stroke-width="1.33739" stroke-linecap="round" stroke-linejoin="round"/>
<path d="M185.015 171.426C185.015 171.426 179.471 157.771 184.407 156.148C189.546 154.456 189.319 163.473 189.12 167.868C188.703 177.26 187.633 179.006 186.833 176.712L185.015 171.426ZM183.349 182.079C184.872 184.006 185.301 182.01 182.553 172.992C181.264 168.751 178.464 160.173 174.168 163.392C170.043 166.476 179.86 177.656 179.86 177.656L183.349 182.079ZM180.405 189.905C181.857 191.154 181.885 189.577 178.436 183.065C176.817 180.016 173.393 173.844 170.588 176.897C167.895 179.842 177.072 187.002 177.072 187.002L180.405 189.905ZM177.223 199.211C178.675 200.464 178.703 198.884 175.254 192.376C173.635 189.326 170.21 183.151 167.406 186.208C164.729 189.16 173.878 196.32 173.878 196.32L177.223 199.211ZM186.411 180.267C184.089 181.146 185.934 182.102 195.636 182.075C200.186 182.075 209.478 181.875 207.497 176.974C205.6 172.267 191.781 178.262 191.781 178.262L186.411 180.267ZM183.766 186.527C181.308 186.94 182.923 188.235 192.437 190.078C196.897 190.946 206.041 192.546 205.107 187.38C204.211 182.399 189.439 185.614 189.439 185.614L183.766 186.527ZM180.807 194.173C178.715 194.465 180.051 195.595 188.05 197.368C191.801 198.201 199.498 199.762 198.83 195.356C198.193 191.115 185.624 193.514 185.624 193.514L180.807 194.173ZM178.559 201.254C176.511 201.76 177.963 202.746 186.117 203.687C189.935 204.126 197.76 204.89 196.618 200.576C195.517 196.435 183.281 200.102 183.281 200.102L178.559 201.254ZM190.548 172.583C189.355 175.174 191.833 174.78 200.258 167.656C204.203 164.314 212.119 157.32 205.851 153.839C199.832 150.493 193.361 166.638 193.361 166.638L190.548 172.583ZM178.87 210.48C177.609 211.193 178.846 211.471 184.629 210.353C187.342 209.833 192.859 208.676 190.994 206.394C189.188 204.196 181.789 208.823 181.789 208.823L178.87 210.48Z" fill="#FAB71C"/>
<path opacity="0.3" d="M185.015 171.426C185.015 171.426 179.471 157.771 184.407 156.148C189.546 154.456 189.319 163.473 189.12 167.868C188.703 177.26 187.633 179.006 186.833 176.712L185.015 171.426ZM183.349 182.079C184.872 184.006 185.301 182.01 182.553 172.992C181.264 168.751 178.464 160.173 174.168 163.392C170.043 166.476 179.86 177.656 179.86 177.656L183.349 182.079ZM180.405 189.905C181.857 191.154 181.885 189.577 178.436 183.065C176.817 180.016 173.393 173.844 170.588 176.897C167.895 179.842 177.072 187.002 177.072 187.002L180.405 189.905ZM177.223 199.211C178.675 200.464 178.703 198.884 175.254 192.376C173.635 189.326 170.21 183.151 167.406 186.208C164.729 189.16 173.878 196.32 173.878 196.32L177.223 199.211ZM186.411 180.267C184.089 181.146 185.934 182.102 195.636 182.075C200.186 182.075 209.478 181.875 207.497 176.974C205.6 172.267 191.781 178.262 191.781 178.262L186.411 180.267ZM183.766 186.527C181.308 186.94 182.923 188.235 192.437 190.078C196.897 190.946 206.041 192.546 205.107 187.38C204.211 182.399 189.439 185.614 189.439 185.614L183.766 186.527ZM180.807 194.173C178.715 194.465 180.051 195.595 188.05 197.368C191.801 198.201 199.498 199.762 198.83 195.356C198.193 191.115 185.624 193.514 185.624 193.514L180.807 194.173ZM178.559 201.254C176.511 201.76 177.963 202.746 186.117 203.687C189.935 204.126 197.76 204.89 196.618 200.576C195.517 196.435 183.281 200.102 183.281 200.102L178.559 201.254ZM190.548 172.583C189.355 175.174 191.833 174.78 200.258 167.656C204.203 164.314 212.119 157.32 205.851 153.839C199.832 150.493 193.361 166.638 193.361 166.638L190.548 172.583ZM178.87 210.48C177.609 211.193 178.846 211.471 184.629 210.353C187.342 209.833 192.859 208.676 190.994 206.394C189.188 204.196 181.789 208.823 181.789 208.823L178.87 210.48Z" fill="white"/>
<path d="M187.461 177.784L186.495 162.197L187.461 177.784ZM184.403 182.927L178.293 169.522L184.403 182.927ZM200.17 179.029L185.529 181.065L200.17 179.029ZM181.237 190.152L173.309 180.293L181.237 190.152ZM182.629 187.129L193.551 187.661L182.629 187.129ZM180.043 194.689L188.397 195.491L180.043 194.689ZM178.027 199.493L173.878 193.444L178.027 199.493ZM177.549 201.628L187.37 201.717L177.549 201.628ZM175.561 219.486C175.626 219.481 175.687 219.451 175.731 219.403C175.774 219.355 175.795 219.291 175.791 219.228C175.167 210.137 178.794 195.248 184.613 183.027C188.333 175.216 202.911 159.865 203.066 159.71C203.113 159.665 203.139 159.603 203.139 159.539C203.139 159.475 203.113 159.413 203.066 159.367C203.043 159.345 203.016 159.327 202.986 159.315C202.956 159.303 202.923 159.297 202.891 159.297C202.859 159.297 202.826 159.303 202.796 159.315C202.766 159.327 202.739 159.345 202.716 159.367C202.569 159.522 187.931 174.931 184.18 182.811C178.253 195.329 174.673 209.948 175.31 219.259C175.315 219.32 175.343 219.377 175.389 219.419C175.436 219.461 175.497 219.485 175.561 219.486ZM187.457 178.023C187.523 178.019 187.585 177.99 187.629 177.942C187.673 177.895 187.695 177.832 187.692 177.768L186.741 162.174C186.74 162.143 186.732 162.111 186.718 162.082C186.704 162.054 186.684 162.028 186.659 162.007C186.635 161.985 186.607 161.969 186.575 161.959C186.545 161.949 186.512 161.944 186.479 161.947C186.413 161.951 186.352 161.98 186.308 162.027C186.264 162.075 186.241 162.137 186.245 162.201L187.211 177.788C187.214 177.849 187.241 177.907 187.287 177.949C187.333 177.992 187.394 178.015 187.457 178.015V178.023ZM184.49 183.147C184.55 183.12 184.597 183.072 184.62 183.014C184.644 182.954 184.643 182.889 184.617 182.83L178.504 169.426C178.477 169.368 178.428 169.322 178.367 169.299C178.306 169.275 178.238 169.277 178.178 169.302C178.117 169.328 178.071 169.375 178.047 169.435C178.023 169.494 178.024 169.56 178.051 169.618L184.16 183.023C184.179 183.066 184.211 183.103 184.251 183.129C184.291 183.155 184.339 183.169 184.387 183.169C184.428 183.172 184.469 183.164 184.506 183.147H184.49ZM185.548 181.296L200.182 179.268C200.217 179.267 200.253 179.26 200.284 179.245C200.316 179.23 200.345 179.209 200.367 179.183C200.391 179.157 200.407 179.126 200.417 179.093C200.427 179.061 200.43 179.026 200.425 178.992C200.421 178.958 200.409 178.926 200.389 178.897C200.371 178.868 200.346 178.843 200.317 178.823C200.287 178.805 200.254 178.792 200.219 178.786C200.185 178.78 200.149 178.781 200.115 178.79L185.481 180.818C185.415 180.822 185.354 180.851 185.311 180.899C185.268 180.947 185.246 181.009 185.25 181.073C185.254 181.136 185.284 181.195 185.333 181.237C185.383 181.279 185.447 181.3 185.513 181.296H185.548ZM181.376 190.344C181.428 190.305 181.461 190.247 181.469 190.183C181.478 190.12 181.46 190.056 181.419 190.005L173.488 180.128C173.447 180.077 173.387 180.043 173.321 180.035C173.255 180.027 173.189 180.044 173.136 180.083C173.083 180.123 173.049 180.181 173.04 180.245C173.031 180.309 173.049 180.373 173.09 180.425L181.037 190.317C181.061 190.346 181.09 190.369 181.124 190.386C181.158 190.402 181.195 190.41 181.233 190.41C181.292 190.407 181.348 190.384 181.391 190.344H181.376ZM193.77 187.672C193.773 187.609 193.749 187.547 193.704 187.5C193.659 187.453 193.597 187.425 193.531 187.422L182.629 186.886C182.567 186.891 182.51 186.916 182.467 186.958C182.424 187.001 182.399 187.057 182.395 187.117C182.393 187.176 182.413 187.235 182.451 187.281C182.489 187.327 182.544 187.358 182.605 187.368L193.527 187.904C193.593 187.906 193.657 187.883 193.706 187.84C193.754 187.796 193.783 187.736 193.786 187.672H193.77ZM188.627 195.514C188.631 195.482 188.628 195.45 188.619 195.42C188.61 195.389 188.595 195.36 188.573 195.336C188.553 195.311 188.527 195.29 188.498 195.276C188.469 195.26 188.437 195.251 188.404 195.248L180.051 194.45C180.019 194.447 179.986 194.45 179.955 194.459C179.923 194.469 179.895 194.483 179.869 194.503C179.845 194.523 179.823 194.548 179.808 194.576C179.793 194.604 179.784 194.635 179.781 194.666C179.775 194.73 179.795 194.792 179.837 194.841C179.879 194.89 179.938 194.921 180.003 194.928L188.357 195.73H188.381C188.445 195.734 188.508 195.714 188.557 195.674C188.606 195.634 188.637 195.576 188.643 195.514H188.627ZM178.146 199.693C178.201 199.658 178.239 199.603 178.253 199.54C178.267 199.477 178.253 199.412 178.217 199.358L174.089 193.309C174.051 193.257 173.994 193.221 173.929 193.209C173.865 193.196 173.798 193.209 173.743 193.243C173.687 193.279 173.649 193.334 173.635 193.397C173.622 193.46 173.635 193.525 173.671 193.579L177.8 199.628C177.823 199.661 177.855 199.688 177.891 199.707C177.928 199.726 177.969 199.735 178.011 199.736C178.065 199.738 178.118 199.724 178.162 199.693H178.146ZM187.621 201.717C187.62 201.654 187.593 201.593 187.547 201.548C187.502 201.502 187.439 201.477 187.374 201.475L177.553 201.385C177.488 201.385 177.425 201.411 177.379 201.456C177.333 201.501 177.307 201.561 177.307 201.625C177.305 201.657 177.311 201.689 177.323 201.718C177.335 201.748 177.353 201.774 177.376 201.797C177.399 201.82 177.427 201.838 177.457 201.85C177.487 201.862 177.52 201.868 177.553 201.868L187.374 201.956C187.407 201.958 187.441 201.953 187.473 201.942C187.504 201.93 187.533 201.913 187.557 201.891C187.582 201.868 187.602 201.842 187.615 201.812C187.629 201.782 187.636 201.75 187.637 201.717H187.621ZM174.443 215.951C174.463 215.908 176.137 211.436 181.173 210.368C181.238 210.355 181.294 210.317 181.33 210.262C181.366 210.208 181.378 210.142 181.364 210.079C181.348 210.017 181.308 209.964 181.252 209.931C181.197 209.897 181.13 209.885 181.065 209.898C175.755 211.024 173.993 215.747 173.973 215.793C173.953 215.853 173.957 215.92 173.987 215.977C174.015 216.035 174.066 216.079 174.129 216.101H174.208C174.261 216.105 174.314 216.093 174.359 216.067C174.404 216.039 174.439 215.999 174.459 215.951H174.443ZM175.561 219.486C175.626 219.481 175.687 219.451 175.731 219.403C175.774 219.355 175.795 219.291 175.791 219.228C175.167 210.137 178.794 195.248 184.613 183.027C188.333 175.216 202.911 159.865 203.066 159.71C203.113 159.665 203.139 159.603 203.139 159.539C203.139 159.475 203.113 159.413 203.066 159.367C203.043 159.345 203.016 159.327 202.986 159.315C202.956 159.303 202.923 159.297 202.891 159.297C202.859 159.297 202.826 159.303 202.796 159.315C202.766 159.327 202.739 159.345 202.716 159.367C202.569 159.522 187.931 174.931 184.18 182.811C178.253 195.329 174.673 209.948 175.31 219.259C175.315 219.32 175.343 219.377 175.389 219.419C175.436 219.461 175.497 219.485 175.561 219.486ZM187.457 178.023C187.523 178.019 187.585 177.99 187.629 177.942C187.673 177.895 187.695 177.832 187.692 177.768L186.741 162.174C186.74 162.143 186.732 162.111 186.718 162.082C186.704 162.054 186.684 162.028 186.659 162.007C186.635 161.985 186.607 161.969 186.575 161.959C186.545 161.949 186.512 161.944 186.479 161.947C186.413 161.951 186.352 161.98 186.308 162.027C186.264 162.075 186.241 162.137 186.245 162.201L187.211 177.788C187.214 177.849 187.241 177.907 187.287 177.949C187.333 177.992 187.394 178.015 187.457 178.015V178.023ZM184.49 183.147C184.55 183.12 184.597 183.072 184.62 183.014C184.644 182.954 184.643 182.889 184.617 182.83L178.504 169.426C178.477 169.368 178.428 169.322 178.367 169.299C178.306 169.275 178.238 169.277 178.178 169.302C178.117 169.328 178.071 169.375 178.047 169.435C178.023 169.494 178.024 169.56 178.051 169.618L184.16 183.023C184.179 183.066 184.211 183.103 184.251 183.129C184.291 183.155 184.339 183.169 184.387 183.169C184.428 183.172 184.469 183.164 184.506 183.147H184.49ZM185.548 181.296L200.182 179.268C200.217 179.267 200.253 179.26 200.284 179.245C200.316 179.23 200.345 179.209 200.367 179.183C200.391 179.157 200.407 179.126 200.417 179.093C200.427 179.061 200.43 179.026 200.425 178.992C200.421 178.958 200.409 178.926 200.389 178.897C200.371 178.868 200.346 178.843 200.317 178.823C200.287 178.805 200.254 178.792 200.219 178.786C200.185 178.78 200.149 178.781 200.115 178.79L185.481 180.818C185.415 180.822 185.354 180.851 185.311 180.899C185.268 180.947 185.246 181.009 185.25 181.073C185.254 181.136 185.284 181.195 185.333 181.237C185.383 181.279 185.447 181.3 185.513 181.296H185.548ZM181.376 190.344C181.428 190.305 181.461 190.247 181.469 190.183C181.478 190.12 181.46 190.056 181.419 190.005L173.488 180.128C173.468 180.103 173.443 180.081 173.414 180.065C173.385 180.05 173.354 180.039 173.321 180.035C173.289 180.031 173.255 180.033 173.224 180.041C173.192 180.05 173.162 180.064 173.136 180.083C173.11 180.103 173.088 180.127 173.071 180.155C173.055 180.183 173.045 180.213 173.04 180.245C173.036 180.277 173.038 180.309 173.047 180.34C173.055 180.37 173.07 180.399 173.09 180.425L181.037 190.317C181.061 190.346 181.09 190.369 181.124 190.386C181.158 190.402 181.195 190.41 181.233 190.41C181.292 190.407 181.348 190.384 181.391 190.344H181.376ZM193.77 187.672C193.773 187.609 193.749 187.547 193.704 187.5C193.659 187.453 193.597 187.425 193.531 187.422L182.629 186.886C182.567 186.891 182.51 186.916 182.467 186.958C182.424 187.001 182.399 187.057 182.395 187.117C182.393 187.176 182.413 187.235 182.451 187.281C182.489 187.327 182.544 187.358 182.605 187.368L193.527 187.904C193.593 187.906 193.657 187.883 193.706 187.84C193.754 187.796 193.783 187.736 193.786 187.672H193.77ZM188.627 195.514C188.631 195.482 188.628 195.45 188.619 195.42C188.61 195.389 188.595 195.36 188.573 195.336C188.553 195.311 188.527 195.29 188.498 195.276C188.469 195.26 188.437 195.251 188.404 195.248L180.051 194.45C180.019 194.447 179.986 194.45 179.955 194.459C179.923 194.469 179.895 194.483 179.869 194.503C179.845 194.523 179.823 194.548 179.808 194.576C179.793 194.604 179.784 194.635 179.781 194.666C179.775 194.73 179.795 194.792 179.837 194.841C179.879 194.89 179.938 194.921 180.003 194.928L188.357 195.73H188.381C188.445 195.734 188.508 195.714 188.557 195.674C188.606 195.634 188.637 195.576 188.643 195.514H188.627ZM178.146 199.693C178.201 199.658 178.239 199.603 178.253 199.54C178.267 199.477 178.253 199.412 178.217 199.358L174.089 193.309C174.051 193.257 173.994 193.221 173.929 193.209C173.865 193.196 173.798 193.209 173.743 193.243C173.687 193.279 173.649 193.334 173.635 193.397C173.622 193.46 173.635 193.525 173.671 193.579L177.8 199.628C177.823 199.661 177.855 199.688 177.891 199.707C177.928 199.726 177.969 199.735 178.011 199.736C178.065 199.738 178.118 199.724 178.162 199.693H178.146ZM187.621 201.717C187.62 201.654 187.593 201.593 187.547 201.548C187.502 201.502 187.439 201.477 187.374 201.475L177.553 201.385C177.488 201.385 177.425 201.411 177.379 201.456C177.333 201.501 177.307 201.561 177.307 201.625C177.305 201.657 177.311 201.689 177.323 201.718C177.335 201.748 177.353 201.774 177.376 201.797C177.399 201.82 177.427 201.838 177.457 201.85C177.487 201.862 177.52 201.868 177.553 201.868L187.374 201.956C187.407 201.958 187.441 201.953 187.473 201.942C187.504 201.93 187.533 201.913 187.557 201.891C187.582 201.868 187.602 201.842 187.615 201.812C187.629 201.782 187.636 201.75 187.637 201.717H187.621ZM174.443 215.951C174.463 215.908 176.137 211.436 181.173 210.368C181.238 210.355 181.294 210.317 181.33 210.262C181.366 210.208 181.378 210.142 181.364 210.079C181.348 210.017 181.308 209.964 181.252 209.931C181.197 209.897 181.13 209.885 181.065 209.898C175.755 211.024 173.993 215.747 173.973 215.793C173.953 215.853 173.957 215.92 173.987 215.977C174.015 216.035 174.066 216.079 174.129 216.101H174.208C174.261 216.105 174.314 216.093 174.359 216.067C174.404 216.039 174.439 215.999 174.459 215.951H174.443Z" fill="#FAB71C"/>
<path opacity="0.2" d="M187.461 177.784L186.495 162.197L187.461 177.784ZM184.403 182.927L178.293 169.522L184.403 182.927ZM200.17 179.029L185.529 181.065L200.17 179.029ZM181.237 190.152L173.309 180.293L181.237 190.152ZM182.629 187.129L193.551 187.661L182.629 187.129ZM180.043 194.689L188.397 195.491L180.043 194.689ZM178.027 199.493L173.878 193.444L178.027 199.493ZM177.549 201.628L187.37 201.717L177.549 201.628ZM175.561 219.486C175.626 219.481 175.687 219.451 175.731 219.403C175.774 219.355 175.795 219.291 175.791 219.228C175.167 210.137 178.794 195.248 184.613 183.027C188.333 175.216 202.911 159.865 203.066 159.71C203.113 159.665 203.139 159.603 203.139 159.539C203.139 159.475 203.113 159.413 203.066 159.367C203.043 159.345 203.016 159.327 202.986 159.315C202.956 159.303 202.923 159.297 202.891 159.297C202.859 159.297 202.826 159.303 202.796 159.315C202.766 159.327 202.739 159.345 202.716 159.367C202.569 159.522 187.931 174.931 184.18 182.811C178.253 195.329 174.673 209.948 175.31 219.259C175.315 219.32 175.343 219.377 175.389 219.419C175.436 219.461 175.497 219.485 175.561 219.486ZM187.457 178.023C187.523 178.019 187.585 177.99 187.629 177.942C187.673 177.895 187.695 177.832 187.692 177.768L186.741 162.174C186.74 162.143 186.732 162.111 186.718 162.082C186.704 162.054 186.684 162.028 186.659 162.007C186.635 161.985 186.607 161.969 186.575 161.959C186.545 161.949 186.512 161.944 186.479 161.947C186.413 161.951 186.352 161.98 186.308 162.027C186.264 162.075 186.241 162.137 186.245 162.201L187.211 177.788C187.214 177.849 187.241 177.907 187.287 177.949C187.333 177.992 187.394 178.015 187.457 178.015V178.023ZM184.49 183.147C184.55 183.12 184.597 183.072 184.62 183.014C184.644 182.954 184.643 182.889 184.617 182.83L178.504 169.426C178.477 169.368 178.428 169.322 178.367 169.299C178.306 169.275 178.238 169.277 178.178 169.302C178.117 169.328 178.071 169.375 178.047 169.435C178.023 169.494 178.024 169.56 178.051 169.618L184.16 183.023C184.179 183.066 184.211 183.103 184.251 183.129C184.291 183.155 184.339 183.169 184.387 183.169C184.428 183.172 184.469 183.164 184.506 183.147H184.49ZM185.548 181.296L200.182 179.268C200.217 179.267 200.253 179.26 200.284 179.245C200.316 179.23 200.345 179.209 200.367 179.183C200.391 179.157 200.407 179.126 200.417 179.093C200.427 179.061 200.43 179.026 200.425 178.992C200.421 178.958 200.409 178.926 200.389 178.897C200.371 178.868 200.346 178.843 200.317 178.823C200.287 178.805 200.254 178.792 200.219 178.786C200.185 178.78 200.149 178.781 200.115 178.79L185.481 180.818C185.415 180.822 185.354 180.851 185.311 180.899C185.268 180.947 185.246 181.009 185.25 181.073C185.254 181.136 185.284 181.195 185.333 181.237C185.383 181.279 185.447 181.3 185.513 181.296H185.548ZM181.376 190.344C181.428 190.305 181.461 190.247 181.469 190.183C181.478 190.12 181.46 190.056 181.419 190.005L173.488 180.128C173.447 180.077 173.387 180.043 173.321 180.035C173.255 180.027 173.189 180.044 173.136 180.083C173.083 180.123 173.049 180.181 173.04 180.245C173.031 180.309 173.049 180.373 173.09 180.425L181.037 190.317C181.061 190.346 181.09 190.369 181.124 190.386C181.158 190.402 181.195 190.41 181.233 190.41C181.292 190.407 181.348 190.384 181.391 190.344H181.376ZM193.77 187.672C193.773 187.609 193.749 187.547 193.704 187.5C193.659 187.453 193.597 187.425 193.531 187.422L182.629 186.886C182.567 186.891 182.51 186.916 182.467 186.958C182.424 187.001 182.399 187.057 182.395 187.117C182.393 187.176 182.413 187.235 182.451 187.281C182.489 187.327 182.544 187.358 182.605 187.368L193.527 187.904C193.593 187.906 193.657 187.883 193.706 187.84C193.754 187.796 193.783 187.736 193.786 187.672H193.77ZM188.627 195.514C188.631 195.482 188.628 195.45 188.619 195.42C188.61 195.389 188.595 195.36 188.573 195.336C188.553 195.311 188.527 195.29 188.498 195.276C188.469 195.26 188.437 195.251 188.404 195.248L180.051 194.45C180.019 194.447 179.986 194.45 179.955 194.459C179.923 194.469 179.895 194.483 179.869 194.503C179.845 194.523 179.823 194.548 179.808 194.576C179.793 194.604 179.784 194.635 179.781 194.666C179.775 194.73 179.795 194.792 179.837 194.841C179.879 194.89 179.938 194.921 180.003 194.928L188.357 195.73H188.381C188.445 195.734 188.508 195.714 188.557 195.674C188.606 195.634 188.637 195.576 188.643 195.514H188.627ZM178.146 199.693C178.201 199.658 178.239 199.603 178.253 199.54C178.267 199.477 178.253 199.412 178.217 199.358L174.089 193.309C174.051 193.257 173.994 193.221 173.929 193.209C173.865 193.196 173.798 193.209 173.743 193.243C173.687 193.279 173.649 193.334 173.635 193.397C173.622 193.46 173.635 193.525 173.671 193.579L177.8 199.628C177.823 199.661 177.855 199.688 177.891 199.707C177.928 199.726 177.969 199.735 178.011 199.736C178.065 199.738 178.118 199.724 178.162 199.693H178.146ZM187.621 201.717C187.62 201.654 187.593 201.593 187.547 201.548C187.502 201.502 187.439 201.477 187.374 201.475L177.553 201.385C177.488 201.385 177.425 201.411 177.379 201.456C177.333 201.501 177.307 201.561 177.307 201.625C177.305 201.657 177.311 201.689 177.323 201.718C177.335 201.748 177.353 201.774 177.376 201.797C177.399 201.82 177.427 201.838 177.457 201.85C177.487 201.862 177.52 201.868 177.553 201.868L187.374 201.956C187.407 201.958 187.441 201.953 187.473 201.942C187.504 201.93 187.533 201.913 187.557 201.891C187.582 201.868 187.602 201.842 187.615 201.812C187.629 201.782 187.636 201.75 187.637 201.717H187.621ZM174.443 215.951C174.463 215.908 176.137 211.436 181.173 210.368C181.238 210.355 181.294 210.317 181.33 210.262C181.366 210.208 181.378 210.142 181.364 210.079C181.348 210.017 181.308 209.964 181.252 209.931C181.197 209.897 181.13 209.885 181.065 209.898C175.755 211.024 173.993 215.747 173.973 215.793C173.953 215.853 173.957 215.92 173.987 215.977C174.015 216.035 174.066 216.079 174.129 216.101H174.208C174.261 216.105 174.314 216.093 174.359 216.067C174.404 216.039 174.439 215.999 174.459 215.951H174.443ZM175.561 219.486C175.626 219.481 175.687 219.451 175.731 219.403C175.774 219.355 175.795 219.291 175.791 219.228C175.167 210.137 178.794 195.248 184.613 183.027C188.333 175.216 202.911 159.865 203.066 159.71C203.113 159.665 203.139 159.603 203.139 159.539C203.139 159.475 203.113 159.413 203.066 159.367C203.043 159.345 203.016 159.327 202.986 159.315C202.956 159.303 202.923 159.297 202.891 159.297C202.859 159.297 202.826 159.303 202.796 159.315C202.766 159.327 202.739 159.345 202.716 159.367C202.569 159.522 187.931 174.931 184.18 182.811C178.253 195.329 174.673 209.948 175.31 219.259C175.315 219.32 175.343 219.377 175.389 219.419C175.436 219.461 175.497 219.485 175.561 219.486ZM187.457 178.023C187.523 178.019 187.585 177.99 187.629 177.942C187.673 177.895 187.695 177.832 187.692 177.768L186.741 162.174C186.74 162.143 186.732 162.111 186.718 162.082C186.704 162.054 186.684 162.028 186.659 162.007C186.635 161.985 186.607 161.969 186.575 161.959C186.545 161.949 186.512 161.944 186.479 161.947C186.413 161.951 186.352 161.98 186.308 162.027C186.264 162.075 186.241 162.137 186.245 162.201L187.211 177.788C187.214 177.849 187.241 177.907 187.287 177.949C187.333 177.992 187.394 178.015 187.457 178.015V178.023ZM184.49 183.147C184.55 183.12 184.597 183.072 184.62 183.014C184.644 182.954 184.643 182.889 184.617 182.83L178.504 169.426C178.477 169.368 178.428 169.322 178.367 169.299C178.306 169.275 178.238 169.277 178.178 169.302C178.117 169.328 178.071 169.375 178.047 169.435C178.023 169.494 178.024 169.56 178.051 169.618L184.16 183.023C184.179 183.066 184.211 183.103 184.251 183.129C184.291 183.155 184.339 183.169 184.387 183.169C184.428 183.172 184.469 183.164 184.506 183.147H184.49ZM185.548 181.296L200.182 179.268C200.217 179.267 200.253 179.26 200.284 179.245C200.316 179.23 200.345 179.209 200.367 179.183C200.391 179.157 200.407 179.126 200.417 179.093C200.427 179.061 200.43 179.026 200.425 178.992C200.421 178.958 200.409 178.926 200.389 178.897C200.371 178.868 200.346 178.843 200.317 178.823C200.287 178.805 200.254 178.792 200.219 178.786C200.185 178.78 200.149 178.781 200.115 178.79L185.481 180.818C185.415 180.822 185.354 180.851 185.311 180.899C185.268 180.947 185.246 181.009 185.25 181.073C185.254 181.136 185.284 181.195 185.333 181.237C185.383 181.279 185.447 181.3 185.513 181.296H185.548ZM181.376 190.344C181.428 190.305 181.461 190.247 181.469 190.183C181.478 190.12 181.46 190.056 181.419 190.005L173.488 180.128C173.468 180.103 173.443 180.081 173.414 180.065C173.385 180.05 173.354 180.039 173.321 180.035C173.289 180.031 173.255 180.033 173.224 180.041C173.192 180.05 173.162 180.064 173.136 180.083C173.11 180.103 173.088 180.127 173.071 180.155C173.055 180.183 173.045 180.213 173.04 180.245C173.036 180.277 173.038 180.309 173.047 180.34C173.055 180.37 173.07 180.399 173.09 180.425L181.037 190.317C181.061 190.346 181.09 190.369 181.124 190.386C181.158 190.402 181.195 190.41 181.233 190.41C181.292 190.407 181.348 190.384 181.391 190.344H181.376ZM193.77 187.672C193.773 187.609 193.749 187.547 193.704 187.5C193.659 187.453 193.597 187.425 193.531 187.422L182.629 186.886C182.567 186.891 182.51 186.916 182.467 186.958C182.424 187.001 182.399 187.057 182.395 187.117C182.393 187.176 182.413 187.235 182.451 187.281C182.489 187.327 182.544 187.358 182.605 187.368L193.527 187.904C193.593 187.906 193.657 187.883 193.706 187.84C193.754 187.796 193.783 187.736 193.786 187.672H193.77ZM188.627 195.514C188.631 195.482 188.628 195.45 188.619 195.42C188.61 195.389 188.595 195.36 188.573 195.336C188.553 195.311 188.527 195.29 188.498 195.276C188.469 195.26 188.437 195.251 188.404 195.248L180.051 194.45C180.019 194.447 179.986 194.45 179.955 194.459C179.923 194.469 179.895 194.483 179.869 194.503C179.845 194.523 179.823 194.548 179.808 194.576C179.793 194.604 179.784 194.635 179.781 194.666C179.775 194.73 179.795 194.792 179.837 194.841C179.879 194.89 179.938 194.921 180.003 194.928L188.357 195.73H188.381C188.445 195.734 188.508 195.714 188.557 195.674C188.606 195.634 188.637 195.576 188.643 195.514H188.627ZM178.146 199.693C178.201 199.658 178.239 199.603 178.253 199.54C178.267 199.477 178.253 199.412 178.217 199.358L174.089 193.309C174.051 193.257 173.994 193.221 173.929 193.209C173.865 193.196 173.798 193.209 173.743 193.243C173.687 193.279 173.649 193.334 173.635 193.397C173.622 193.46 173.635 193.525 173.671 193.579L177.8 199.628C177.823 199.661 177.855 199.688 177.891 199.707C177.928 199.726 177.969 199.735 178.011 199.736C178.065 199.738 178.118 199.724 178.162 199.693H178.146ZM187.621 201.717C187.62 201.654 187.593 201.593 187.547 201.548C187.502 201.502 187.439 201.477 187.374 201.475L177.553 201.385C177.488 201.385 177.425 201.411 177.379 201.456C177.333 201.501 177.307 201.561 177.307 201.625C177.305 201.657 177.311 201.689 177.323 201.718C177.335 201.748 177.353 201.774 177.376 201.797C177.399 201.82 177.427 201.838 177.457 201.85C177.487 201.862 177.52 201.868 177.553 201.868L187.374 201.956C187.407 201.958 187.441 201.953 187.473 201.942C187.504 201.93 187.533 201.913 187.557 201.891C187.582 201.868 187.602 201.842 187.615 201.812C187.629 201.782 187.636 201.75 187.637 201.717H187.621ZM174.443 215.951C174.463 215.908 176.137 211.436 181.173 210.368C181.238 210.355 181.294 210.317 181.33 210.262C181.366 210.208 181.378 210.142 181.364 210.079C181.348 210.017 181.308 209.964 181.252 209.931C181.197 209.897 181.13 209.885 181.065 209.898C175.755 211.024 173.993 215.747 173.973 215.793C173.953 215.853 173.957 215.92 173.987 215.977C174.015 216.035 174.066 216.079 174.129 216.101H174.208C174.261 216.105 174.314 216.093 174.359 216.067C174.404 216.039 174.439 215.999 174.459 215.951H174.443Z" fill="black"/>
<path d="M182.056 212.689H170.795V214.949H171.777L173.81 227.274H179.041L181.073 214.949H182.056V212.689Z" fill="#FAB71C"/>
<path opacity="0.3" d="M182.056 212.689H170.795V214.949H171.777L173.81 227.274H179.041L181.073 214.949H182.056V212.689Z" fill="white"/>
<path d="M80.6726 144.374L67.5742 140.229L66.4087 137.246L63.7476 137.165L58.9188 136.278L59.4995 137.246L65.5774 141.521L67.077 142.246L80.776 149.182L80.6726 144.374Z" fill="white" stroke="#263238" stroke-width="1.00396" stroke-miterlimit="10"/>
<path d="M66.4085 137.246L65.1595 136.521L62.6655 137.408L63.0791 137.89L66.4085 137.246Z" fill="white" stroke="#263238" stroke-width="1.00396" stroke-linejoin="round"/>
<path d="M80.6726 144.374L67.5742 140.229L66.4087 137.246L63.7476 137.165L58.9188 136.278L59.4995 137.246L65.5774 141.521L67.077 142.246L80.776 149.182L80.6726 144.374Z" fill="white"/>
<path opacity="0.5" d="M80.6726 144.374L67.5742 140.229L66.4087 137.246L63.7476 137.165L58.9188 136.278L59.4995 137.246L65.5774 141.521L67.077 142.246L80.776 149.182L80.6726 144.374Z" fill="#FAB71C" stroke="#263238" stroke-width="1.00396" stroke-miterlimit="10"/>
<path d="M80.6726 144.374L67.5742 140.229L66.4087 137.246L63.7476 137.165L58.9188 136.278L59.4995 137.246L65.5774 141.521L67.077 142.246L80.776 149.182L80.6726 144.374Z" stroke="#263238" stroke-width="1.00396" stroke-miterlimit="10"/>
<path d="M66.4085 137.246L65.1595 136.521L62.6655 137.408L63.0791 137.89L66.4085 137.246Z" fill="white"/>
<path opacity="0.5" d="M66.4085 137.246L65.1595 136.521L62.6655 137.408L63.0791 137.89L66.4085 137.246Z" fill="#FAB71C" stroke="#263238" stroke-width="1.00396" stroke-linejoin="round"/>
<path d="M66.4085 137.246L65.1595 136.521L62.6655 137.408L63.0791 137.89L66.4085 137.246Z" stroke="#263238" stroke-width="1.00396" stroke-linejoin="round"/>
<path d="M83.4533 117.477C83.4533 117.477 83.25 119.211 83.7553 120.325C84.2606 121.439 87.0646 125.214 87.0646 125.214L81.83 129.281C81.83 129.281 79.658 125.04 79.2446 124.354C78.8306 123.668 78.334 120.715 79.682 118.598C81.0306 116.481 82.972 115.911 83.4533 117.477Z" fill="white"/>
<g style="mix-blend-mode:multiply" opacity="0.5">
<path d="M80.7639 123.051L83.0353 127.616L81.8259 129.285L79.5433 125.334L80.7639 123.051Z" fill="#FAB71C"/>
</g>
<path d="M83.4533 117.477C83.4533 117.477 83.25 119.211 83.7553 120.325C84.2606 121.439 87.0646 125.214 87.0646 125.214L81.83 129.281C81.83 129.281 79.658 125.04 79.2446 124.354C78.8306 123.668 78.334 120.715 79.682 118.598C81.0306 116.481 82.972 115.911 83.4533 117.477Z" stroke="#263238" stroke-width="1.00396" stroke-miterlimit="10"/>
<path d="M85.0759 114.299C84.7539 112.372 82.4746 108.451 78.8586 108.601C76.5119 108.702 75.4139 109.16 74.3959 109.719C73.5659 110.193 72.7919 110.754 72.0886 111.393C70.3227 113.447 69.7021 114.01 70.0442 115.583C70.0161 116.21 70.1176 116.837 70.3425 117.426C70.8835 118.825 71.2534 119.739 71.7226 120.406C71.5796 121.058 71.2057 122.777 71.1858 123.17C71.1659 123.564 72.3793 123.29 72.9919 123.14C74.1293 125.607 76.2133 127.318 76.8619 127.515C77.9919 127.858 79.7779 126.058 80.7246 124.662C81.6713 123.267 80.9553 121.697 80.9593 121.073C80.9633 120.448 83.0873 119.076 83.8746 118.641C84.6619 118.204 85.3939 116.223 85.0759 114.299Z" fill="white"/>
<g style="mix-blend-mode:multiply" opacity="0.5">
<path d="M70.0601 115.583C70.032 116.21 70.1334 116.837 70.3583 117.426C70.8993 118.825 71.2693 119.739 71.7386 120.406C71.5954 121.058 71.2215 122.777 71.2016 123.17C71.1817 123.563 72.3953 123.289 73.0073 123.14C74.1453 125.607 76.2293 127.318 76.8779 127.515C78.0073 127.858 79.7933 126.058 80.7399 124.662C80.9766 124.314 81.1299 123.919 81.1899 123.505C81.1379 123.324 81.1019 123.213 81.1019 123.213C81.1019 123.213 80.5693 125.198 79.5113 124.94C78.4533 124.681 76.8339 122.627 75.9313 121.917C75.0279 121.208 75.3979 120.275 75.2193 119.219C75.0399 118.162 72.3672 117.233 72.1879 116.628C72.0092 116.022 72.6339 113.517 72.6339 113.517C72.6339 113.517 73.6479 112.206 73.4292 112.746C73.2746 113.213 73.2186 113.707 73.2639 114.196C73.3099 114.685 73.4566 115.161 73.6959 115.595C73.8633 115.936 74.1293 116.225 74.4619 116.424C74.7939 116.623 75.1786 116.724 75.5692 116.716L76.5399 112.056L74.4913 110.413L72.1046 111.377C70.3225 113.447 69.714 114.01 70.0601 115.583Z" fill="#FAB71C"/>
</g>
<path d="M85.0759 114.299C84.7539 112.372 82.4746 108.451 78.8586 108.601C76.5119 108.702 75.4139 109.16 74.3959 109.719C73.5659 110.193 72.7919 110.754 72.0886 111.393C70.3227 113.447 69.7021 114.01 70.0442 115.583C70.0161 116.21 70.1176 116.837 70.3425 117.426C70.8835 118.825 71.2534 119.739 71.7226 120.406C71.5796 121.058 71.2057 122.777 71.1858 123.17C71.1659 123.564 72.3793 123.29 72.9919 123.14C74.1293 125.607 76.2133 127.318 76.8619 127.515C77.9919 127.858 79.7779 126.058 80.7246 124.662C81.6713 123.267 80.9553 121.697 80.9593 121.073C80.9633 120.448 83.0873 119.076 83.8746 118.641C84.6619 118.204 85.3939 116.223 85.0759 114.299Z" stroke="#263238" stroke-miterlimit="10"/>
<path d="M72.2159 119.242L72.6139 120.345C72.6139 120.345 73.4686 120.619 74.5113 119.516" stroke="#263238" stroke-miterlimit="10" stroke-linecap="round"/>
<path d="M75.1553 124.393C75.1553 124.393 76.1019 124.3 76.4839 123.013" stroke="#263238" stroke-miterlimit="10" stroke-linecap="round"/>
<path d="M71.5517 118.32C71.5517 118.32 71.834 117.492 73.5406 117.492" stroke="#263238" stroke-miterlimit="10" stroke-linecap="round"/>
<path d="M80.2986 107.067C79.0586 106.894 77.8086 106.801 76.5559 106.79C76.5559 106.79 72.8086 104.696 69.2089 106.928C65.6091 109.16 67.3394 113.07 67.3394 114.045C67.3394 115.02 66.1859 115.024 66.9059 116.281C67.6258 117.538 70.0601 116.844 70.0601 116.844C70.0859 116.37 70.2151 115.907 70.4393 115.484C70.6636 115.062 70.9777 114.691 71.3609 114.396C72.6573 113.42 73.6919 113.209 74.1213 113.49C74.1213 113.49 73.8353 115.583 74.2646 116.42C74.2646 116.42 75.7046 117.118 76.1379 117.118C76.5719 117.118 75.8559 117.708 77.2913 118.232C77.5533 118.323 77.8333 118.354 78.1093 118.323C78.3853 118.291 78.6499 118.198 78.8826 118.051C79.0933 117.202 79.5546 115.926 80.4139 116.223C81.6753 116.659 82.8246 119.666 81.1179 120.692C83.1706 121.054 85.6566 117.534 85.8039 114.326C85.9513 111.119 82.4306 107.429 80.2986 107.067Z" fill="#263238"/>
<path d="M74.1853 112.113C74.1853 112.113 75.2433 111.562 76.54 112.742C77.8366 113.922 80.3586 115.499 83.7 114.631" stroke="white" stroke-width="0.5" stroke-linecap="round" stroke-linejoin="round"/>
<path d="M74.038 111.169C74.038 111.169 74.766 110.066 75.9826 110.066C77.2 110.066 80.044 111.721 82.3153 111.721" stroke="white" stroke-width="0.5" stroke-linecap="round" stroke-linejoin="round"/>
<path d="M73.2106 113.293C73.2106 113.293 71.8306 111.643 70.5335 112.981C69.2369 114.318 70.0602 115.583 70.0602 115.583" stroke="white" stroke-width="0.5" stroke-linecap="round" stroke-linejoin="round"/>
<path d="M67.6933 114.396C68.4843 113.705 68.976 112.749 69.0696 111.721C69.2327 109.989 71.6713 108.494 73.2106 109.912" stroke="white" stroke-width="0.5" stroke-linecap="round" stroke-linejoin="round"/>
<path d="M70.2073 108.1C70.2073 108.1 72.6459 105.818 74.6739 108.729" stroke="white" stroke-width="0.5" stroke-linecap="round" stroke-linejoin="round"/>
<path d="M90.0519 220.315C90.0519 220.315 91.5513 222.574 91.3846 224.028L91.2213 225.481C91.2213 225.481 85.7199 226.942 84.5546 226.942C83.3893 226.942 77.2199 226.375 77.2199 226.375L76.9533 225.35C76.9346 225.274 76.9433 225.195 76.9779 225.124C77.0133 225.054 77.0719 224.998 77.1446 224.965L82.6453 222.478L84.3799 220.639L90.0519 220.315Z" fill="white" stroke="#263238" stroke-width="1.00396" stroke-miterlimit="10"/>
<path d="M85.39 225.804C86.882 225.916 89.714 225.033 91.3566 224.471L91.2413 225.481C91.2413 225.481 85.72 226.942 84.5546 226.942C83.3893 226.942 77.22 226.375 77.22 226.375L77.0286 225.643C78.0153 225.647 83.4173 225.658 85.39 225.804Z" fill="#FAB71C" stroke="#263238" stroke-width="1.00396" stroke-miterlimit="10"/>
<path d="M82.6532 222.478L74.6466 225.855C74.6466 225.855 73.9619 227.516 74.6466 227.848C75.3306 228.18 90.2466 227.848 90.2466 227.848C90.2466 227.848 91.2772 225.222 89.6499 223.461C88.0232 221.699 82.6532 222.478 82.6532 222.478Z" fill="white" stroke="#263238" stroke-width="1.00396" stroke-miterlimit="10"/>
<path d="M90.2466 227.848C90.2466 227.848 75.3306 228.18 74.6466 227.848C74.3166 227.686 74.3046 227.22 74.3799 226.776H90.5093C90.4566 227.141 90.3686 227.499 90.2466 227.848Z" fill="#FAB71C" stroke="#263238" stroke-width="1.00396" stroke-miterlimit="10"/>
<path d="M78.8666 163.797C78.8666 163.797 76.7746 172.784 75.9826 178.404C75.1913 184.025 74.7259 195.286 74.8933 196.578C75.0599 197.87 83.3893 219.509 83.3893 219.509L84.2206 221.436L90.0519 220.307C90.0519 220.307 87.3866 212.073 86.3886 207.55C85.3899 203.028 83.2066 195.599 83.2066 194.307C83.2066 193.016 88.3773 168.35 88.7473 166.731C89.1173 165.111 90.7959 162.625 90.7959 162.625L79.6306 162.405L78.8666 163.797Z" fill="#FAB71C" stroke="#263238" stroke-width="1.00396" stroke-miterlimit="10"/>
<path d="M78.8666 163.797C78.8666 163.797 77.642 172.004 78.1466 177.71C78.652 183.416 79.738 195.564 79.738 197.372C79.738 199.18 82.7493 209.979 82.92 213.371C83.1866 218.272 82.8126 220.697 82.8126 220.697L82.634 222.473C82.634 222.473 86.146 222.959 86.914 223.171C87.8006 223.393 88.7153 223.489 89.6306 223.457C89.6306 223.457 90.9073 218.009 90.9073 213.367C90.9073 208.726 89.8453 199.172 89.316 195.302C88.7873 191.431 90.454 176.5 91.4006 173.713C92.3473 170.925 94.4153 165.023 93.0233 162.008C91.6313 158.993 78.8666 163.797 78.8666 163.797Z" fill="#FAB71C" stroke="#263238" stroke-width="1.00396" stroke-miterlimit="10"/>
<path d="M94.5706 160.497L94.4433 164.167C94.4433 164.167 92.176 164.603 89.1213 165.115C86.5993 165.54 80.2666 165.003 78.1346 164.803C77.9406 164.786 77.7606 164.696 77.6353 164.552C77.5093 164.407 77.4473 164.22 77.4626 164.032L77.6693 160.716L94.5706 160.497Z" fill="#263238"/>
<path d="M85.7086 123.911C85.7086 123.911 82.1286 127.662 80.78 129.994C79.4313 132.327 78.8986 135.901 78.3933 138.714C77.888 141.529 79.2566 148.137 78.8706 151.171L77.6493 160.728C77.6493 160.728 77.3873 161.376 78.266 162.085C79.1453 162.794 83.4373 163.053 87.3153 163.242C88.7313 163.311 92.96 162.429 93.652 162.386C94.4873 162.336 94.5153 161.306 94.5506 160.497C94.718 156.692 95.426 146.548 95.8913 142.131C96.85 133.121 91.6033 124.423 85.7086 123.911Z" fill="white" stroke="#263238" stroke-width="1.00396" stroke-miterlimit="10"/>
<g style="mix-blend-mode:multiply">
<path d="M95.4533 147.254C95.6126 145.253 95.772 143.437 95.9113 142.131C95.9506 141.745 95.9746 141.359 95.9946 140.974L86.484 142.516L78.314 139.817C78.3146 141.456 78.41 143.093 78.6 144.721L86.6153 146.895L95.4533 147.254Z" fill="#FAB71C"/>
</g>
<g style="mix-blend-mode:multiply">
<path d="M85.3546 124.289C84.8133 124.871 83.7393 126.054 82.7173 127.311L88.7553 133.26L90.744 132.488L85.3546 124.289Z" fill="#FAB71C"/>
</g>
<path d="M85.7086 123.911C85.7086 123.911 82.1286 127.662 80.78 129.994C80.38 130.703 80.0566 131.45 79.8133 132.223L87.0133 124.161C86.588 124.036 86.1506 123.953 85.7086 123.911Z" fill="#263238"/>
<g style="mix-blend-mode:multiply">
<path d="M78.6719 137.196L86.4839 139.686L95.9706 138.63C95.8219 136.339 95.2973 134.087 94.4159 131.956L86.7666 134.929L79.9286 131.925C79.3699 133.648 78.9493 135.41 78.6719 137.196Z" fill="#FAB71C"/>
</g>
<g style="mix-blend-mode:multiply">
<path d="M92.1206 156.691C88.1579 157.336 84.0926 157.014 80.2906 155.754L78.3853 155.123L77.7926 159.749L79.9646 160.339C84.0933 161.457 88.4086 161.78 92.6653 161.287L94.4193 161.083C94.5106 160.895 94.5619 160.692 94.5706 160.485C94.6186 159.456 94.7019 157.96 94.8093 156.244L92.1206 156.691Z" fill="#FAB71C"/>
</g>
<g style="mix-blend-mode:multiply">
<path d="M93.1819 150.392C89.2199 151.039 85.1532 150.716 81.3526 149.451L78.9259 148.646C78.9866 149.485 78.9746 150.329 78.8906 151.167L78.6079 153.391L81.0266 154.047C85.1532 155.167 89.4672 155.49 93.7232 154.999L94.9166 154.86C95.0159 153.318 95.1312 151.676 95.2546 150.053L93.1819 150.392Z" fill="#FAB71C"/>
</g>
<path d="M55.8643 134.089L63.5553 140.082L63.8867 139.683L56.1957 133.689L55.8643 134.089Z" fill="#263238"/>
<path d="M89.4113 128.07C89.4113 128.07 92.2319 129.933 92.2953 134.331C92.3233 136.259 92.1166 138.059 91.6593 141.217C91.2013 144.374 88.3613 154.656 86.1499 155.905C83.9379 157.154 80.5053 154.795 80.5053 154.795L63.9027 144.112L59.8891 140.97L57.9003 137.33L58.5248 136.174L63.4213 139.813L60.7841 137.45L61.3013 136.814L62.2559 137.458L65.0403 138.468L65.6489 142.323L66.5081 142.894L82.3906 148.518C82.3906 148.518 82.1919 140.233 82.3393 138.649C82.4866 137.065 82.6893 133.082 84.4393 130.194" fill="white"/>
<g style="mix-blend-mode:multiply" opacity="0.5">
<path d="M82.2793 142.258C82.2793 145.118 82.3786 148.518 82.3786 148.518L66.5119 142.917L65.6527 142.346L65.0441 138.491L62.2598 137.481L61.3091 136.826L60.792 137.462L63.4213 139.814L58.5247 136.174L57.9321 137.312L59.9209 140.951L63.9344 144.112L64.9447 144.764L86.8819 151.614L82.2793 142.258Z" fill="#FAB71C"/>
</g>
<path d="M89.4113 128.07C89.4113 128.07 92.2319 129.933 92.2953 134.331C92.3233 136.259 92.1166 138.059 91.6593 141.217C91.2013 144.374 88.3613 154.656 86.1499 155.905C83.9379 157.154 80.5053 154.795 80.5053 154.795L63.9027 144.112L59.8891 140.97L57.9003 137.33L58.5248 136.174L63.4213 139.813L60.7841 137.45L61.3013 136.814L62.2559 137.458L65.0403 138.468L65.6489 142.323L66.5081 142.894L82.3906 148.518C82.3906 148.518 82.1919 140.233 82.3393 138.649C82.4866 137.065 82.6893 133.082 84.4393 130.194" stroke="#263238" stroke-width="1.00396" stroke-miterlimit="10"/>
<path d="M82.3906 148.518L88.4526 152.759L90.024 150.061C90.024 150.061 91.11 149.232 91.2693 148.607C91.428 147.983 91.2253 146.969 91.3886 146.344C91.5513 145.72 92.3633 145.134 92.4386 143.622C92.514 142.111 92.4386 140.85 92.4386 140.85C92.4386 140.85 93.7513 135.619 93.608 133.344C93.4646 131.07 91.2013 127.049 89.388 126.96C87.574 126.871 85.2153 127.137 83.3853 129.821C81.5553 132.504 81.9293 140.337 81.6433 140.827C81.3566 141.317 81.7546 143.734 81.7546 143.734C81.5953 143.849 81.464 143.995 81.3673 144.164C81.2713 144.332 81.214 144.518 81.198 144.709C81.166 145.338 81.866 146.884 81.866 146.884L82.3906 148.518Z" fill="white" stroke="#263238" stroke-width="1.00396" stroke-miterlimit="10"/>
<g style="mix-blend-mode:multiply">
<path d="M81.8026 138.815C81.8146 139.488 81.7626 140.16 81.6473 140.824C81.3926 141.263 81.6833 143.249 81.7466 143.654C85.1559 144.68 88.7619 144.943 92.2913 144.425C92.3673 144.156 92.4126 143.881 92.4266 143.603C92.5066 142.096 92.4266 140.831 92.4266 140.831C92.4266 140.831 92.5419 140.365 92.7013 139.655C89.0453 139.881 85.3753 139.598 81.8026 138.815Z" fill="#FAB71C"/>
</g>
<g style="mix-blend-mode:multiply">
<path d="M83.1386 130.249C82.5699 131.355 82.2513 133.017 82.0686 134.701C85.6799 136.037 89.5726 136.496 93.4093 136.039C93.5619 135.148 93.6299 134.244 93.6119 133.34C93.5433 132.626 93.3686 131.925 93.0946 131.258C89.7453 131.334 86.3993 130.995 83.1386 130.249Z" fill="#FAB71C"/>
</g>
<path d="M81.866 146.926L82.3793 148.518L88.4413 152.759L90.012 150.061C90.012 150.061 91.098 149.232 91.2573 148.608C91.2853 148.498 91.3026 148.388 91.3086 148.275C88.1146 148.222 84.9406 147.769 81.866 146.926Z" fill="#263238"/>
<path d="M86.2532 223.122C86.2532 223.122 86.3886 219.783 87.0486 214.902C87.7092 210.021 86.1219 203.089 85.8552 201.933C85.5886 200.777 85.9906 198.209 85.7239 197.307C85.4579 196.405 84.1686 192.557 84.9286 188.093C85.6886 183.628 86.3046 171.828 86.3046 171.828C86.3046 171.828 84.3919 170.32 83.8306 168.358C83.2699 166.395 83.6993 165.778 83.6993 165.778" stroke="#263238" stroke-width="1.00396" stroke-miterlimit="10"/>
<path d="M87.1406 165.96L86.4046 169.908" stroke="#263238" stroke-width="1.00396" stroke-miterlimit="10"/>
<path d="M30.9999 265.566C30.9999 263.782 32.4923 262.335 34.3333 262.335H225.667C227.507 262.335 229 263.782 229 265.566V291.412C229 293.196 227.507 294.642 225.667 294.642H34.3333C32.4923 294.642 30.9999 293.196 30.9999 291.412V265.566Z" fill="white"/>
<path d="M30.9999 314.673C30.9999 312.889 32.4923 311.442 34.3333 311.442H225.667C227.507 311.442 229 312.889 229 314.673V340.518C229 342.302 227.507 343.749 225.667 343.749H34.3333C32.4923 343.749 30.9999 342.302 30.9999 340.518V314.673Z" fill="white"/>
<path d="M45.0378 281.073V275.434H48.5492V276.04H45.7423V277.945H48.3673V278.551H45.7423V280.467H48.5946V281.073H45.0378ZM49.7281 281.073V276.844H50.3758V277.504H50.4326C50.5236 277.279 50.6704 277.104 50.873 276.978C51.0756 276.852 51.319 276.789 51.6031 276.789C51.891 276.789 52.1306 276.852 52.3219 276.978C52.515 277.104 52.6656 277.279 52.7736 277.504H52.819C52.9308 277.286 53.0984 277.113 53.3219 276.984C53.5454 276.854 53.8134 276.789 54.1258 276.789C54.516 276.789 54.8351 276.907 55.0832 277.144C55.3314 277.379 55.4554 277.745 55.4554 278.242V281.073H54.785V278.242C54.785 277.93 54.6969 277.707 54.5207 277.574C54.3446 277.439 54.1372 277.373 53.8986 277.373C53.5918 277.373 53.3541 277.462 53.1855 277.642C53.017 277.82 52.9326 278.046 52.9326 278.32V281.073H52.2508V278.176C52.2508 277.936 52.1704 277.742 52.0094 277.596C51.8484 277.447 51.641 277.373 51.3872 277.373C51.213 277.373 51.0501 277.417 50.8986 277.508C50.749 277.598 50.6278 277.722 50.535 277.882C50.444 278.039 50.3986 278.222 50.3986 278.43V281.073H49.7281ZM57.9654 281.172C57.6888 281.172 57.4379 281.122 57.2125 281.021C56.9871 280.918 56.8082 280.77 56.6756 280.578C56.543 280.383 56.4767 280.148 56.4767 279.873C56.4767 279.63 56.526 279.434 56.6244 279.283C56.7229 279.131 56.8546 279.012 57.0193 278.925C57.1841 278.839 57.3659 278.775 57.5648 278.733C57.7655 278.689 57.9672 278.654 58.1699 278.628C58.435 278.595 58.65 278.57 58.8148 278.554C58.9814 278.535 59.1026 278.505 59.1784 278.463C59.256 278.421 59.2949 278.347 59.2949 278.242V278.22C59.2949 277.949 59.2182 277.738 59.0648 277.587C58.9132 277.437 58.6832 277.362 58.3744 277.362C58.0544 277.362 57.8034 277.43 57.6216 277.565C57.4398 277.701 57.3119 277.846 57.238 278L56.6017 277.78C56.7154 277.523 56.8668 277.323 57.0562 277.179C57.2475 277.035 57.4558 276.934 57.6812 276.877C57.9085 276.818 58.132 276.789 58.3517 276.789C58.4918 276.789 58.6528 276.805 58.8346 276.838C59.0184 276.869 59.1954 276.935 59.3659 277.034C59.5382 277.133 59.6812 277.283 59.7949 277.482C59.9085 277.683 59.9654 277.951 59.9654 278.287V281.073H59.2949V280.501H59.2608C59.2154 280.592 59.1396 280.691 59.0335 280.795C58.9274 280.9 58.7864 280.988 58.6102 281.062C58.4341 281.136 58.2191 281.172 57.9654 281.172ZM58.0676 280.589C58.3328 280.589 58.5562 280.538 58.738 280.437C58.9218 280.336 59.06 280.206 59.1528 280.046C59.2475 279.886 59.2949 279.718 59.2949 279.542V278.947C59.2665 278.98 59.204 279.011 59.1074 279.038C59.0127 279.064 58.9028 279.087 58.7778 279.107C58.6547 279.126 58.5344 279.142 58.417 279.157C58.3015 279.17 58.2078 279.181 58.1358 279.19C57.9616 279.212 57.7987 279.248 57.6472 279.297C57.4975 279.345 57.3763 279.417 57.2835 279.515C57.1926 279.61 57.1472 279.74 57.1472 279.906C57.1472 280.132 57.2333 280.302 57.4057 280.418C57.5799 280.532 57.8006 280.589 58.0676 280.589ZM61.189 281.073V276.844H61.8595V281.073H61.189ZM61.53 276.139C61.3993 276.139 61.2866 276.096 61.1919 276.009C61.0991 275.923 61.0527 275.819 61.0527 275.698C61.0527 275.577 61.0991 275.474 61.1919 275.387C61.2866 275.301 61.3993 275.258 61.53 275.258C61.6606 275.258 61.7724 275.301 61.8652 275.387C61.9599 275.474 62.0072 275.577 62.0072 275.698C62.0072 275.819 61.9599 275.923 61.8652 276.009C61.7724 276.096 61.6606 276.139 61.53 276.139ZM63.758 275.434V281.073H63.0875V275.434H63.758Z" fill="#423636"/>
<path d="M45.0378 330.18V324.542H47.0037C47.4601 324.542 47.8332 324.621 48.123 324.781C48.4147 324.939 48.6306 325.153 48.7707 325.422C48.9109 325.692 48.981 325.993 48.981 326.326C48.981 326.658 48.9109 326.96 48.7707 327.231C48.6325 327.503 48.4184 327.72 48.1287 327.881C47.8389 328.041 47.4677 328.121 47.015 328.121H45.606V327.515H46.9923C47.3048 327.515 47.5558 327.463 47.7452 327.358C47.9346 327.253 48.0719 327.112 48.1571 326.934C48.2442 326.754 48.2878 326.552 48.2878 326.326C48.2878 326.1 48.2442 325.898 48.1571 325.72C48.0719 325.542 47.9336 325.402 47.7423 325.301C47.551 325.199 47.2972 325.147 46.981 325.147H45.7423V330.18H45.0378ZM51.3091 330.279C51.0326 330.279 50.7816 330.229 50.5562 330.128C50.3308 330.025 50.1519 329.877 50.0193 329.685C49.8868 329.49 49.8204 329.255 49.8204 328.98C49.8204 328.738 49.8697 328.541 49.9682 328.391C50.0666 328.238 50.1983 328.119 50.363 328.033C50.5278 327.947 50.7096 327.882 50.9085 327.84C51.1093 327.796 51.311 327.761 51.5136 327.735C51.7788 327.702 51.9938 327.677 52.1585 327.661C52.3252 327.642 52.4464 327.613 52.5222 327.57C52.5998 327.528 52.6386 327.454 52.6386 327.35V327.328C52.6386 327.056 52.5619 326.845 52.4085 326.694C52.257 326.544 52.0269 326.469 51.7182 326.469C51.3981 326.469 51.1472 326.537 50.9654 326.672C50.7835 326.808 50.6557 326.954 50.5818 327.107L49.9454 326.887C50.0591 326.63 50.2106 326.43 50.4 326.287C50.5913 326.142 50.7996 326.041 51.025 325.984C51.2523 325.926 51.4758 325.896 51.6954 325.896C51.8356 325.896 51.9966 325.913 52.1784 325.946C52.3621 325.977 52.5392 326.042 52.7096 326.141C52.882 326.24 53.025 326.39 53.1386 326.59C53.2523 326.79 53.3091 327.058 53.3091 327.394V330.18H52.6386V329.608H52.6046C52.5591 329.7 52.4833 329.798 52.3773 329.903C52.2712 330.007 52.1301 330.096 51.954 330.169C51.7778 330.243 51.5629 330.279 51.3091 330.279ZM51.4114 329.696C51.6765 329.696 51.9 329.645 52.0818 329.545C52.2655 329.443 52.4038 329.313 52.4966 329.154C52.5913 328.993 52.6386 328.825 52.6386 328.65V328.055C52.6102 328.088 52.5477 328.118 52.4511 328.146C52.3564 328.172 52.2466 328.194 52.1216 328.214C51.9985 328.233 51.8782 328.249 51.7608 328.264C51.6452 328.277 51.5515 328.288 51.4796 328.297C51.3053 328.319 51.1424 328.355 50.9909 328.404C50.8413 328.452 50.7201 328.524 50.6273 328.622C50.5364 328.718 50.4909 328.847 50.4909 329.013C50.4909 329.239 50.5771 329.41 50.7494 329.525C50.9237 329.639 51.1443 329.696 51.4114 329.696ZM57.6237 326.898L57.0214 327.063C56.9836 326.966 56.9277 326.871 56.8538 326.78C56.7818 326.686 56.6834 326.609 56.5584 326.548C56.4334 326.488 56.2734 326.458 56.0782 326.458C55.8112 326.458 55.5887 326.517 55.4106 326.637C55.2345 326.754 55.1464 326.904 55.1464 327.085C55.1464 327.247 55.207 327.375 55.3282 327.469C55.4495 327.562 55.6389 327.64 55.8964 327.702L56.5442 327.856C56.9343 327.948 57.225 328.089 57.4163 328.278C57.6076 328.465 57.7032 328.707 57.7032 329.002C57.7032 329.244 57.6313 329.461 57.4874 329.652C57.3453 329.842 57.1464 329.993 56.8908 330.104C56.6351 330.213 56.3377 330.268 55.9987 330.268C55.5536 330.268 55.1853 330.175 54.8936 329.988C54.602 329.8 54.4173 329.527 54.3396 329.167L54.976 329.013C55.0366 329.24 55.1512 329.411 55.3198 329.525C55.4902 329.639 55.7127 329.696 55.9874 329.696C56.2998 329.696 56.548 329.632 56.7317 329.503C56.9173 329.373 57.0101 329.217 57.0101 329.035C57.0101 328.888 56.957 328.765 56.851 328.666C56.7449 328.565 56.582 328.49 56.3624 328.44L55.6351 328.275C55.2354 328.183 54.9419 328.041 54.7544 327.848C54.5688 327.653 54.476 327.41 54.476 327.118C54.476 326.88 54.5451 326.669 54.6834 326.485C54.8235 326.302 55.0139 326.158 55.2544 326.053C55.4968 325.948 55.7714 325.896 56.0782 325.896C56.5101 325.896 56.8491 325.988 57.0953 326.171C57.3434 326.355 57.5196 326.598 57.6237 326.898ZM61.8034 326.898L61.2011 327.063C61.1632 326.966 61.1074 326.871 61.0335 326.78C60.9616 326.686 60.863 326.609 60.738 326.548C60.613 326.488 60.453 326.458 60.258 326.458C59.9909 326.458 59.7684 326.517 59.5904 326.637C59.4142 326.754 59.3261 326.904 59.3261 327.085C59.3261 327.247 59.3868 327.375 59.508 327.469C59.6292 327.562 59.8186 327.64 60.0761 327.702L60.7238 327.856C61.114 327.948 61.4047 328.089 61.596 328.278C61.7873 328.465 61.883 328.707 61.883 329.002C61.883 329.244 61.811 329.461 61.667 329.652C61.525 329.842 61.3261 329.993 61.0704 330.104C60.8148 330.213 60.5174 330.268 60.1784 330.268C59.7333 330.268 59.365 330.175 59.0733 329.988C58.7816 329.8 58.597 329.527 58.5193 329.167L59.1557 329.013C59.2163 329.24 59.3308 329.411 59.4994 329.525C59.6699 329.639 59.8924 329.696 60.167 329.696C60.4796 329.696 60.7276 329.632 60.9114 329.503C61.097 329.373 61.1898 329.217 61.1898 329.035C61.1898 328.888 61.1368 328.765 61.0307 328.666C60.9246 328.565 60.7618 328.49 60.542 328.44L59.8148 328.275C59.4152 328.183 59.1216 328.041 58.9341 327.848C58.7485 327.653 58.6557 327.41 58.6557 327.118C58.6557 326.88 58.7248 326.669 58.863 326.485C59.0032 326.302 59.1936 326.158 59.4341 326.053C59.6765 325.948 59.9511 325.896 60.258 325.896C60.6898 325.896 61.0288 325.988 61.275 326.171C61.5231 326.355 61.6992 326.598 61.8034 326.898ZM63.8808 330.18L62.5513 325.951H63.2558L64.199 329.189H64.2444L65.1763 325.951H65.8922L66.8126 329.178H66.8581L67.8013 325.951H68.5058L67.1763 330.18H66.5172L65.5626 326.932H65.4944L64.5399 330.18H63.8808ZM71.0165 330.268C70.6225 330.268 70.2769 330.178 69.9796 329.996C69.6841 329.814 69.453 329.56 69.2864 329.233C69.1216 328.906 69.0392 328.524 69.0392 328.088C69.0392 327.648 69.1216 327.262 69.2864 326.934C69.453 326.605 69.6841 326.35 69.9796 326.168C70.2769 325.987 70.6225 325.896 71.0165 325.896C71.4104 325.896 71.7552 325.987 72.0506 326.168C72.3479 326.35 72.5792 326.605 72.7439 326.934C72.9106 327.262 72.9939 327.648 72.9939 328.088C72.9939 328.524 72.9106 328.906 72.7439 329.233C72.5792 329.56 72.3479 329.814 72.0506 329.996C71.7552 330.178 71.4104 330.268 71.0165 330.268ZM71.0165 329.685C71.3157 329.685 71.5619 329.611 71.7552 329.462C71.9486 329.313 72.0912 329.118 72.1839 328.875C72.2766 328.633 72.3232 328.371 72.3232 328.088C72.3232 327.805 72.2766 327.542 72.1839 327.297C72.0912 327.054 71.9486 326.856 71.7552 326.705C71.5619 326.555 71.3157 326.48 71.0165 326.48C70.7172 326.48 70.471 326.555 70.2778 326.705C70.0846 326.856 69.9416 327.054 69.8488 327.297C69.756 327.542 69.7096 327.805 69.7096 328.088C69.7096 328.371 69.756 328.633 69.8488 328.875C69.9416 329.118 70.0846 329.313 70.2778 329.462C70.471 329.611 70.7172 329.685 71.0165 329.685ZM74.0172 330.18V325.951H74.6652V326.59H74.7106C74.7899 326.38 74.9339 326.211 75.1419 326.081C75.3506 325.95 75.5852 325.885 75.8466 325.885C75.8959 325.885 75.9572 325.886 76.0312 325.888C76.1052 325.889 76.1612 325.893 76.1992 325.896V326.557C76.1766 326.552 76.1239 326.543 76.0426 326.532C75.9632 326.519 75.8792 326.513 75.7899 326.513C75.5779 326.513 75.3886 326.556 75.2219 326.642C75.0572 326.727 74.9266 326.844 74.8299 326.995C74.7352 327.144 74.6879 327.313 74.6879 327.504V330.18H74.0172ZM78.5086 330.268C78.1452 330.268 77.8239 330.18 77.5459 330.001C77.2672 329.822 77.0492 329.569 76.8919 329.242C76.7352 328.913 76.6566 328.525 76.6566 328.077C76.6566 327.633 76.7352 327.247 76.8919 326.921C77.0492 326.594 77.2679 326.341 77.5486 326.163C77.8286 325.985 78.1526 325.896 78.5199 325.896C78.8039 325.896 79.0286 325.942 79.1932 326.033C79.3599 326.124 79.4866 326.227 79.5739 326.342C79.6632 326.456 79.7319 326.55 79.7812 326.623H79.8379V324.542H80.5086V330.18H79.8612V329.53H79.7812C79.7319 329.608 79.6619 329.705 79.5712 329.822C79.4806 329.938 79.3506 330.042 79.1819 330.134C79.0132 330.224 78.7892 330.268 78.5086 330.268ZM78.5999 329.685C78.8686 329.685 79.0959 329.617 79.2812 329.481C79.4672 329.344 79.6079 329.154 79.7046 328.911C79.8012 328.667 79.8499 328.385 79.8499 328.066C79.8499 327.75 79.8019 327.474 79.7072 327.237C79.6126 326.998 79.4726 326.813 79.2872 326.681C79.1012 326.546 78.8726 326.48 78.5999 326.48C78.3152 326.48 78.0786 326.55 77.8892 326.692C77.7019 326.831 77.5606 327.021 77.4659 327.262C77.3732 327.5 77.3266 327.768 77.3266 328.066C77.3266 328.367 77.3739 328.64 77.4686 328.886C77.5652 329.13 77.7072 329.325 77.8952 329.47C78.0846 329.613 78.3192 329.685 78.5999 329.685Z" fill="black"/>
<path d="M226.333 465.871H33.6666C31.8256 465.871 30.3333 467.317 30.3333 469.101V495.593C30.3333 497.378 31.8256 498.824 33.6666 498.824H226.333C228.174 498.824 229.667 497.378 229.667 495.593V469.101C229.667 467.317 228.174 465.871 226.333 465.871Z" fill="#FAB71C"/>
<path d="M123.863 477.795V487.194H122.727L117.443 479.815H117.349V487.194H116.174V477.795H117.311L122.613 485.192H122.708V477.795H123.863ZM129.111 487.34C128.41 487.34 127.806 487.19 127.297 486.891C126.793 486.588 126.403 486.166 126.128 485.624C125.857 485.079 125.721 484.446 125.721 483.724C125.721 483.002 125.857 482.366 126.128 481.815C126.403 481.261 126.785 480.83 127.274 480.521C127.767 480.209 128.341 480.053 128.997 480.053C129.376 480.053 129.75 480.114 130.119 480.237C130.489 480.359 130.825 480.558 131.128 480.833C131.431 481.106 131.673 481.466 131.853 481.916C132.033 482.366 132.123 482.919 132.123 483.577V484.037H126.517V483.1H130.986C130.986 482.702 130.904 482.348 130.74 482.035C130.579 481.723 130.349 481.477 130.049 481.297C129.752 481.116 129.401 481.026 128.997 481.026C128.552 481.026 128.167 481.133 127.842 481.347C127.52 481.558 127.272 481.834 127.099 482.173C126.925 482.513 126.838 482.877 126.838 483.265V483.889C126.838 484.422 126.933 484.873 127.123 485.244C127.315 485.611 127.582 485.89 127.923 486.083C128.263 486.273 128.659 486.368 129.111 486.368C129.405 486.368 129.67 486.328 129.907 486.248C130.147 486.166 130.353 486.043 130.527 485.881C130.701 485.716 130.835 485.511 130.929 485.266L132.009 485.56C131.895 485.915 131.704 486.227 131.436 486.496C131.167 486.762 130.836 486.97 130.441 487.12C130.047 487.267 129.603 487.34 129.111 487.34ZM134.46 480.145L136.203 483.027L137.945 480.145H139.233L136.885 483.669L139.233 487.194H137.945L136.203 484.458L134.46 487.194H133.173L135.483 483.669L133.173 480.145H134.46ZM143.99 480.145V481.062H140.221V480.145H143.99ZM141.32 478.456H142.437V485.174C142.437 485.48 142.483 485.71 142.575 485.863C142.669 486.012 142.789 486.114 142.935 486.166C143.083 486.215 143.239 486.239 143.403 486.239C143.526 486.239 143.627 486.233 143.706 486.22C143.785 486.206 143.848 486.193 143.895 486.184L144.123 487.157C144.047 487.185 143.941 487.212 143.805 487.239C143.67 487.27 143.498 487.285 143.289 487.285C142.974 487.285 142.665 487.219 142.361 487.088C142.061 486.956 141.812 486.756 141.613 486.487C141.418 486.218 141.32 485.878 141.32 485.468V478.456Z" fill="black"/>
</g>
<path d="M214.735 0.0859375L45.4651 0.0859375C33.9947 0.0987956 22.9978 4.65248 14.887 12.7479C6.77623 20.8434 2.21393 31.8195 2.20105 43.2683L2.20105 481.569C2.21393 493.018 6.77623 503.994 14.887 512.089C22.9978 520.185 33.9947 524.738 45.4651 524.751H214.735C226.206 524.738 237.203 520.185 245.314 512.089C253.424 503.994 257.987 493.018 257.999 481.569V43.2683C257.987 31.8195 253.424 20.8434 245.314 12.7479C237.203 4.65248 226.206 0.0987956 214.735 0.0859375V0.0859375ZM245.561 482.06C245.564 490.226 242.319 498.058 236.539 503.836C230.758 509.615 222.916 512.866 214.735 512.876H45.5191C37.3383 512.866 29.4962 509.615 23.716 503.836C17.9359 498.058 14.6906 490.226 14.6935 482.06L14.6935 43.8566C14.6906 35.6913 17.9359 27.8588 23.716 22.0804C29.4962 16.3021 37.3383 13.0507 45.5191 13.0406L214.735 13.0406C222.916 13.0507 230.758 16.3021 236.539 22.0804C242.319 27.8588 245.564 35.6913 245.561 43.8566V482.06Z" fill="#B8B8B8"/>
<path d="M259.622 113.439H256.377V172.275H259.622V113.439Z" fill="#B8B8B8"/>
<path d="M3.82341 73.4961H0.578613L0.578613 90.2292H3.82341L3.82341 73.4961Z" fill="#B8B8B8"/>
<path d="M3.82341 110.201H0.578613L0.578613 143.128H3.82341L3.82341 110.201Z" fill="#B8B8B8"/>
<path d="M3.82341 155.003H0.578613L0.578613 188.469H3.82341L3.82341 155.003Z" fill="#B8B8B8"/>
<path d="M84.9434 13.0405L175.257 13.0405V17.7633C175.258 19.4116 174.872 21.0439 174.122 22.5669C173.372 24.0899 172.273 25.4737 170.886 26.6392C169.499 27.8048 167.853 28.7292 166.041 29.3596C164.23 29.9901 162.288 30.3142 160.327 30.3135L99.8735 30.3135C97.9126 30.3142 95.9708 29.9901 94.159 29.3596C92.3472 28.7292 90.701 27.8048 89.3144 26.6392C87.9279 25.4737 86.8282 24.0899 86.0782 22.5669C85.3282 21.0439 84.9426 19.4116 84.9434 17.7633V13.0405Z" fill="#B8B8B8"/>
<path d="M103.936 21.6774C104.675 21.6786 105.398 21.4606 106.013 21.0513C106.47 20.7439 106.853 20.3391 107.135 19.866C107.416 19.3929 107.589 18.8633 107.641 18.3155C107.693 17.7676 107.622 17.2152 107.434 16.6979C107.246 16.1806 106.945 15.7114 106.553 15.3242C106.033 14.8022 105.368 14.447 104.644 14.304C104.104 14.1962 103.546 14.2095 103.011 14.3429C102.476 14.4764 101.977 14.7267 101.551 15.0757C101.125 15.4248 100.781 15.8639 100.546 16.3615C100.31 16.859 100.188 17.4026 100.188 17.9529C100.188 18.9398 100.581 19.8863 101.279 20.5846C101.978 21.2829 102.926 21.676 103.914 21.6774H103.936Z" fill="#2B2B29"/>
<path d="M107.116 17.9961C107.117 18.6216 106.931 19.2331 106.583 19.7534C106.235 20.2737 105.741 20.6793 105.162 20.9191C104.583 21.1588 103.946 21.2219 103.331 21.1004C102.717 20.9788 102.152 20.6781 101.708 20.2362C101.263 19.7948 100.959 19.2308 100.837 18.6163C100.715 18.0018 100.779 17.3649 101.021 16.787C101.26 16.2083 101.665 15.7134 102.186 15.3654C102.707 15.0174 103.32 14.8321 103.947 14.833C104.788 14.8367 105.594 15.1701 106.191 15.7614C106.486 16.0545 106.719 16.4029 106.878 16.7864C107.037 17.17 107.118 17.5811 107.116 17.9961V17.9961Z" fill="#1C1D22"/>
<path d="M105.494 17.9963C105.493 18.2293 105.441 18.4594 105.341 18.67C105.241 18.8806 105.096 19.0666 104.915 19.2146C104.735 19.3626 104.524 19.469 104.298 19.5262C104.072 19.5834 103.835 19.59 103.606 19.5455C103.302 19.4816 103.022 19.3317 102.8 19.1136C102.578 18.8929 102.428 18.6109 102.368 18.304C102.309 17.9992 102.341 17.6839 102.46 17.3971C102.577 17.1086 102.778 16.8621 103.038 16.69C103.341 16.4848 103.707 16.3918 104.071 16.4273C104.436 16.4628 104.776 16.6245 105.034 16.8843C105.18 17.0305 105.296 17.2039 105.375 17.3947C105.453 17.5855 105.494 17.7899 105.494 17.9963V17.9963Z" fill="#25295F"/>
<path d="M119.181 11.4214C118.72 11.4466 118.286 11.6473 117.968 11.9821C117.651 12.3169 117.474 12.7605 117.474 13.2216C117.474 13.6826 117.651 14.1262 117.968 14.461C118.286 14.7958 118.72 14.9965 119.181 15.0217H140.786C141.247 14.9965 141.681 14.7958 141.999 14.461C142.317 14.1262 142.494 13.6826 142.494 13.2216C142.494 12.7605 142.317 12.3169 141.999 11.9821C141.681 11.6473 141.247 11.4466 140.786 11.4214H119.181Z" fill="#2B2B29"/>
<defs>
<clipPath id="clip0_112_4522">
<rect x="4.99994" width="250" height="524.67" rx="50" fill="white"/>
</clipPath>
</defs>
</svg>
